<?xml version="1.0" encoding="iso-8859-1"?>
<!-- Generator: Adobe Illustrator 19.0.0, SVG Export Plug-In . SVG Version: 6.00 Build 0)  -->
<svg version="1.1" id="Layer_1" xmlns="http://www.w3.org/2000/svg" xmlns:xlink="http://www.w3.org/1999/xlink" x="0px" y="0px"
	 viewBox="0 0 339.518 339.518" style="enable-background:new 0 0 339.518 339.518;" xml:space="preserve">
<g>
	<polygon style="fill:#8CD5EF;" points="283.529,63.347 55.989,63.347 90.342,339.518 249.176,339.518 	"/>
	<polygon style="fill:#0091B8;" points="87.18,314.095 90.342,339.518 249.176,339.518 252.339,314.095 	"/>
	<polygon style="fill:#5A3C3D;" points="89.215,124.51 112.798,314.095 226.72,314.095 250.302,124.51 	"/>
	<circle style="fill:#B3874F;" cx="142.995" cy="227.952" r="9.533"/>
	<circle style="fill:#B3874F;" cx="194.69" cy="169.692" r="9.533"/>
	<circle style="fill:#B3874F;" cx="169.758" cy="258.935" r="9.533"/>
	<polygon style="fill:#E94F3D;" points="244.896,0 270.004,0 226.465,124.51 201.354,124.51 	"/>
	<path style="fill:#FFFFFF;" d="M143.055,135.351c-0.367,5.04-4.792,8.864-9.833,8.497l-22.12-1.612
		c-5.041-0.367-8.864-4.792-8.497-9.832l1.612-22.12c0.367-5.041,4.792-8.864,9.832-8.496l22.121,1.611
		c5.04,0.367,8.864,4.791,8.497,9.832L143.055,135.351z"/>
	<path style="fill:#FFFFFF;" d="M238.232,131.237c1.062,4.941-2.112,9.852-7.054,10.914l-21.684,4.66
		c-4.94,1.062-9.852-2.113-10.913-7.055l-4.659-21.684c-1.061-4.941,2.112-9.853,7.054-10.914l21.684-4.659
		c4.941-1.062,9.852,2.113,10.914,7.053L238.232,131.237z"/>
</g>
<g>
</g>
<g>
</g>
<g>
</g>
<g>
</g>
<g>
</g>
<g>
</g>
<g>
</g>
<g>
</g>
<g>
</g>
<g>
</g>
<g>
</g>
<g>
</g>
<g>
</g>
<g>
</g>
<g>
</g>
</svg>
