<?xml version="1.0" standalone="no"?>
<!DOCTYPE svg PUBLIC "-//W3C//DTD SVG 1.1//EN" "http://www.w3.org/Graphics/SVG/1.1/DTD/svg11.dtd" >
<svg xmlns="http://www.w3.org/2000/svg" xmlns:xlink="http://www.w3.org/1999/xlink" version="1.1">
<metadata>
Created by FontForge 20200427 at Tue May  2 19:04:11 2017
 By www
Copyright (c) 2017 by Mariya V. Pigoulevskaya. All rights reserved.
</metadata>
<defs>
<font id="Apoka-Regular" horiz-adv-x="0" >
  <font-face 
    font-family="Apoka"
    font-weight="400"
    font-stretch="normal"
    units-per-em="1000"
    panose-1="0 0 5 0 0 0 0 0 0 0"
    ascent="800"
    descent="-200"
    x-height="504"
    cap-height="700"
    bbox="-408 -248 1430 957"
    underline-thickness="50"
    underline-position="-100"
    unicode-range="U+0020-25CA"
  />
<missing-glyph horiz-adv-x="312" 
 />
    <glyph glyph-name=".notdef" horiz-adv-x="312" 
 />
    <glyph glyph-name=".null" 
 />
    <glyph glyph-name="nonmarkingreturn" horiz-adv-x="333" 
 />
    <glyph glyph-name="space" unicode=" " horiz-adv-x="262" 
 />
    <glyph glyph-name="exclam" unicode="!" horiz-adv-x="307" 
d="M154 187q-41 0 -41 38v437q0 38 41 38q40 0 40 -38v-437q0 -38 -40 -38zM154 -10q-60 0 -60 55t60 55q59 0 59 -55t-59 -55z" />
    <glyph glyph-name="quotedbl" unicode="&#x22;" horiz-adv-x="451" 
d="M135 422q-41 0 -41 38v202q0 38 41 38q40 0 40 -38v-202q0 -38 -40 -38zM317 422q-41 0 -41 38v202q0 38 41 38q40 0 40 -38v-202q0 -38 -40 -38z" />
    <glyph glyph-name="numbersign" unicode="#" horiz-adv-x="814" 
d="M682 515q38 0 38 -37q0 -36 -38 -36h-86l-38 -164h75q38 0 38 -36q0 -38 -38 -38h-91l-41 -176q-6 -28 -36 -28q-22 0 -33 14.5t-6 37.5l35 152h-181l-41 -176q-6 -28 -34 -28q-23 0 -34.5 14.5t-6.5 37.5l35 152h-67q-38 0 -38 38q0 36 38 36h83l38 164h-72
q-38 0 -38 36q0 37 38 37h88l37 157q8 28 38 28q23 0 32.5 -14t4.5 -38l-30 -133h180l37 157q6 28 37 28q22 0 32.5 -14.5t5.5 -37.5l-30 -133h69zM478 272l42 176h-187l-42 -176h187z" />
    <glyph glyph-name="dollar" unicode="$" horiz-adv-x="562" 
d="M510 186q0 -79 -49 -130t-139 -63v-88q0 -38 -40 -38q-41 0 -41 38v86q-86 6 -156 35q-31 13 -31 39q0 33 32 33q13 0 30 -5q86 -27 155 -27q76 0 117 31.5t41 88.5q0 53 -33 79.5t-121 52.5q-120 35 -170.5 80t-50.5 122q0 79 49.5 127.5t134.5 59.5v88q0 18 11 28
t30 10q40 0 40 -38v-86q77 -5 135 -31q19 -11 19 -33q0 -15 -9 -24t-24 -9q-8 0 -28 4q-68 18 -130 18q-72 0 -109.5 -31.5t-37.5 -82.5q0 -47 38 -73.5t133 -54.5q115 -33 159.5 -80.5t44.5 -125.5z" />
    <glyph glyph-name="percent" unicode="%" horiz-adv-x="1086" 
d="M285 331q-85 0 -138 53t-53 136q0 84 53 137t138 53q84 0 137 -53t53 -137q0 -83 -53 -136t-137 -53zM350 0q-16 0 -27.5 10t-11.5 24q0 12 9 26l383 619q13 21 33 21q16 0 27.5 -10t11.5 -24q0 -12 -9 -26l-383 -619q-13 -21 -33 -21zM285 402q50 0 82 33t32 85
q1 52 -31.5 85.5t-82.5 33.5q-51 0 -82.5 -33.5t-32.5 -85.5q0 -52 32 -85t83 -33zM801 -10q-85 0 -137.5 53t-52.5 137t52.5 136.5t137.5 52.5t138 -53t53 -136q0 -84 -53 -137t-138 -53zM801 61q50 0 82 33.5t33 85.5q0 52 -32.5 85t-82.5 33t-82 -33t-32 -85
q-1 -52 31.5 -85.5t82.5 -33.5z" />
    <glyph glyph-name="ampersand" unicode="&#x26;" horiz-adv-x="669" 
d="M629 68q14 -14 14 -29q0 -16 -11.5 -27.5t-28.5 -11.5q-18 0 -45 24l-77 72q-56 -55 -109 -80.5t-117 -25.5q-92 0 -150 51.5t-58 132.5q0 55 26 108t89 126q-48 63 -48 130q0 76 53.5 124t139.5 48q99 0 170 -32q19 -10 19 -33q0 -33 -32 -33q-9 0 -29 4q-68 18 -130 18
q-50 0 -80.5 -26.5t-30.5 -69.5q0 -36 23 -70t90 -98l171 -161q21 26 65 82q22 27 40 27t30.5 -10.5t12.5 -26.5q0 -14 -12 -29q-36 -46 -78 -97zM255 66q47 0 86.5 19.5t83.5 63.5l-172 162q-27 25 -38 37q-52 -61 -69.5 -97t-17.5 -77q0 -47 36 -77.5t91 -30.5z" />
    <glyph glyph-name="quotesingle" unicode="'" horiz-adv-x="269" 
d="M135 422q-41 0 -41 38v202q0 38 41 38q40 0 40 -38v-202q0 -38 -40 -38z" />
    <glyph glyph-name="parenleft" unicode="(" horiz-adv-x="339" 
d="M175 300q0 -189 67 -401q3 -9 3 -18q0 -37 -38 -37q-29 0 -41 35q-70 204 -72 421q-2 208 72 421q12 35 41 35q38 0 38 -37q0 -9 -3 -18q-67 -212 -67 -401z" />
    <glyph glyph-name="parenright" unicode=")" horiz-adv-x="341" 
d="M166 300q0 189 -67 401q-3 9 -3 18q0 37 38 37q29 0 41 -35q74 -213 72 -421q-2 -217 -72 -421q-12 -35 -41 -35q-38 0 -38 37q0 9 3 18q67 212 67 401z" />
    <glyph glyph-name="asterisk" unicode="*" horiz-adv-x="648" 
d="M545 512q35 0 35 -36q0 -16 -9.5 -25.5t-25.5 -9.5h-157l85 -133q6 -10 6 -20q0 -14 -12.5 -24.5t-26.5 -10.5q-15 0 -28 19l-88 139l-88 -139q-11 -19 -28 -19q-14 0 -26 10.5t-12 24.5q0 10 6 20l84 133h-157q-16 0 -25.5 9.5t-9.5 25.5q0 36 35 36h157l-84 133
q-6 10 -6 20q0 14 12 24.5t26 10.5q17 0 28 -19l88 -139l88 139q13 19 28 19q14 0 26.5 -10.5t12.5 -24.5q0 -9 -6 -20l-85 -133h157z" />
    <glyph glyph-name="plus" unicode="+" horiz-adv-x="592" 
d="M460 325q38 0 38 -38t-38 -38h-123v-120q0 -18 -11 -28t-30 -10q-40 0 -40 38v120h-124q-38 0 -38 38t38 38h124v120q0 38 40 38q19 0 30 -10t11 -28v-120h123z" />
    <glyph glyph-name="comma" unicode="," horiz-adv-x="307" 
d="M152 100q29 0 45 -16t16 -46q0 -57 -66 -189q-11 -20 -31 -20q-14 0 -23.5 8t-9.5 21q0 9 8 23q27 56 45 111q-42 9 -42 54q0 26 15 40t43 14z" />
    <glyph glyph-name="hyphen" unicode="-" horiz-adv-x="581" 
d="M449 317q38 0 38 -38t-38 -38h-317q-38 0 -38 38t38 38h317z" />
    <glyph glyph-name="period" unicode="." horiz-adv-x="307" 
d="M154 -10q-60 0 -60 55t60 55q59 0 59 -55t-59 -55z" />
    <glyph glyph-name="slash" unicode="/" horiz-adv-x="565" 
d="M136 -106q-17 0 -29.5 9.5t-12.5 26.5q0 8 4 22l294 736q11 27 37 27q17 0 29.5 -9.5t12.5 -26.5q0 -8 -4 -22l-294 -736q-11 -27 -37 -27z" />
    <glyph glyph-name="zero" unicode="0" horiz-adv-x="717" 
d="M358 -10q-134 0 -209 95t-75 265t75 265t209 95q135 0 210 -95t75 -265t-75 -265t-210 -95zM358 66q204 0 204 284t-204 284q-203 0 -203 -284t203 -284z" />
    <glyph glyph-name="one" unicode="1" horiz-adv-x="398" 
d="M263 700q41 0 41 -38v-624q0 -38 -41 -38q-40 0 -40 38v546l-131 -103q-12 -9 -25 -9q-18 0 -29.5 12.5t-11.5 28.5q0 19 20 33l185 143q14 11 32 11z" />
    <glyph glyph-name="two" unicode="2" horiz-adv-x="561" 
d="M476 76q38 0 38 -38t-38 -38h-390q-39 0 -39 39v10q0 25 32 58l226 229q66 67 88.5 103t22.5 74q0 56 -39 88.5t-104 32.5t-146 -24q-18 -5 -28 -5q-33 0 -33 33q0 22 19 33q87 39 190 39q105 0 164.5 -52.5t59.5 -142.5q0 -55 -32 -108.5t-126 -148.5l-179 -182h314z
" />
    <glyph glyph-name="three" unicode="3" horiz-adv-x="560" 
d="M413 361q100 -47 100 -166q0 -95 -62.5 -150t-174.5 -55q-91 0 -180 33q-34 12 -34 41q0 34 33 34q13 0 35 -7q73 -25 143 -25q78 0 119 35t41 98q0 61 -41 93t-115 32h-87q-38 0 -38 38t38 38h87q140 0 140 117q0 54 -39 85.5t-113 31.5q-60 0 -127 -18q-21 -4 -29 -4
q-33 0 -33 33q0 22 19 33q73 32 174 32q107 0 168 -53t61 -138q0 -111 -85 -158z" />
    <glyph glyph-name="four" unicode="4" horiz-adv-x="598" 
d="M534 253q38 0 38 -37q0 -38 -38 -38h-83v-140q0 -18 -11 -28t-30 -10q-40 0 -40 38v140h-305q-39 0 -39 39v17q0 18 20 46l284 381q18 23 28.5 31t26.5 8h24q19 0 30.5 -10.5t11.5 -28.5v-408h83zM116 253h254v338z" />
    <glyph glyph-name="five" unicode="5" horiz-adv-x="563" 
d="M278 411q238 0 238 -207q0 -97 -63.5 -155.5t-175.5 -58.5q-92 0 -179 33q-35 12 -35 41q0 34 33 34q13 0 35 -7q73 -25 143 -25q77 0 118 37t41 101q0 132 -157 132h-146q-39 0 -34 48l30 282q1 16 11.5 25t26.5 9h291q38 0 38 -38t-38 -38h-254l-22 -213h99z" />
    <glyph glyph-name="six" unicode="6" horiz-adv-x="624" 
d="M310 442q109 0 174.5 -61.5t65.5 -164.5q0 -102 -65.5 -164t-172.5 -62t-172.5 62.5t-65.5 164.5q0 94 49.5 186t197.5 275q18 22 37 22q18 0 29.5 -10t11.5 -27q0 -14 -11 -27q-106 -133 -152 -207q32 13 74 13zM312 66q72 0 114.5 41t42.5 109t-42.5 109t-114.5 41
t-114.5 -41t-42.5 -109t43 -109t114 -41z" />
    <glyph glyph-name="seven" unicode="7" horiz-adv-x="509" 
d="M443 700q40 0 40 -39q0 -16 -7 -28l-296 -611q-11 -22 -32 -22q-18 0 -31.5 10.5t-13.5 26.5q0 11 4 20l276 567h-319q-38 0 -38 38t38 38h379z" />
    <glyph glyph-name="eight" unicode="8" horiz-adv-x="597" 
d="M422 375q122 -48 122 -178q0 -95 -66 -151t-179 -56t-179.5 56t-66.5 151q0 130 122 178q-97 41 -97 150q0 85 59.5 135t161.5 50q101 0 160.5 -50t59.5 -135q0 -109 -97 -150zM299 634q-66 0 -103 -29.5t-37 -82.5t37 -82.5t103 -29.5q65 0 102 29.5t37 82.5t-37 82.5
t-102 29.5zM299 66q77 0 120.5 36t43.5 99q0 62 -43.5 98t-120.5 36t-121 -36t-44 -98q0 -63 44 -99t121 -36z" />
    <glyph glyph-name="nine" unicode="9" horiz-adv-x="621" 
d="M309 710q107 0 172.5 -62.5t65.5 -164.5q0 -94 -49.5 -186t-197.5 -275q-18 -22 -37 -22q-18 0 -29.5 10t-11.5 27q0 14 11 27q106 133 152 207q-32 -13 -74 -13q-109 0 -174.5 61.5t-65.5 164.5q0 102 65.5 164t172.5 62zM309 334q72 0 114.5 41t42.5 109t-43 109
t-114 41q-72 0 -114.5 -41t-42.5 -109t42.5 -109t114.5 -41z" />
    <glyph glyph-name="colon" unicode=":" horiz-adv-x="307" 
d="M154 355q-60 0 -60 55t60 55q59 0 59 -55t-59 -55zM154 -10q-60 0 -60 55t60 55q59 0 59 -55t-59 -55z" />
    <glyph glyph-name="semicolon" unicode=";" horiz-adv-x="307" 
d="M154 359q-60 0 -60 57q0 26 16 41t44 15t43.5 -15t15.5 -41q0 -27 -15.5 -42t-43.5 -15zM152 100q29 0 45 -16t16 -46q0 -57 -66 -189q-11 -20 -31 -20q-14 0 -23.5 8t-9.5 21q0 9 8 23q27 56 45 111q-42 9 -42 54q0 26 15 40t43 14z" />
    <glyph glyph-name="less" unicode="&#x3c;" horiz-adv-x="594" 
d="M479 156q21 -10 21 -32q0 -18 -11.5 -29t-27.5 -11q-12 0 -33 9l-299 145q-35 17 -35 50q0 34 35 49l299 146q21 9 33 9q16 0 27.5 -11t11.5 -29q0 -23 -21 -32l-272 -132z" />
    <glyph glyph-name="equal" unicode="=" horiz-adv-x="593" 
d="M461 414q38 0 38 -38t-38 -38h-329q-38 0 -38 38t38 38h329zM461 225q38 0 38 -38t-38 -38h-329q-38 0 -38 38t38 38h329z" />
    <glyph glyph-name="greater" unicode="&#x3e;" horiz-adv-x="594" 
d="M465 337q35 -15 35 -49q0 -33 -35 -50l-299 -145q-21 -9 -33 -9q-16 0 -27.5 11t-11.5 29q0 22 21 32l272 132l-272 132q-21 9 -21 32q0 18 11.5 29t27.5 11q12 0 33 -9z" />
    <glyph glyph-name="question" unicode="?" horiz-adv-x="526" 
d="M247 710q111 0 174 -50.5t63 -139.5q0 -86 -59 -134t-163 -52v-109q0 -38 -40 -38q-19 0 -30 10t-11 28v151q0 30 33 30h40q67 0 107 29t40 82q0 55 -40.5 86t-112.5 31q-61 0 -134 -26q-21 -7 -37 -7q-35 0 -35 34q0 28 34 42q74 33 171 33zM223 100q59 0 59 -55
t-59 -55t-59 55t59 55z" />
    <glyph glyph-name="at" unicode="@" horiz-adv-x="1111" 
d="M555 725q211 0 346.5 -130t135.5 -330q0 -121 -53.5 -188.5t-148.5 -67.5q-60 0 -97 29.5t-44 80.5q-44 -110 -171 -110q-98 0 -152.5 64.5t-54.5 181.5t54.5 181.5t152.5 64.5q61 0 105 -27.5t64 -78.5v59q0 37 37 37t37 -37v-286q0 -42 20 -65.5t59 -23.5q55 0 86.5 49
t31.5 137q0 172 -114 281t-294 109q-179 0 -292.5 -112t-113.5 -290t110 -285t293 -107q38 0 73.5 6t57 11.5t25.5 5.5q30 0 30 -33q0 -21 -19 -31q-71 -29 -165 -29q-215 -1 -347.5 127.5t-132.5 333.5q0 208 136 340.5t345 132.5zM541 79q74 0 112.5 44.5t38.5 131.5
t-38.5 131.5t-112.5 44.5t-112.5 -44.5t-38.5 -131.5t38.5 -131.5t112.5 -44.5z" />
    <glyph glyph-name="A" unicode="A" horiz-adv-x="660" 
d="M630 57q4 -8 4 -21q0 -15 -12.5 -25.5t-31.5 -10.5q-22 0 -34 25l-76 188h-300l-76 -188q-12 -25 -34 -25q-19 0 -31.5 10.5t-12.5 25.5q0 13 4 21l245 600q17 43 55 43q39 0 55 -43zM210 289h240l-120 297z" />
    <glyph glyph-name="B" unicode="B" horiz-adv-x="659" 
d="M495 368q117 -43 117 -174q0 -94 -59 -144t-174 -50h-244q-41 0 -41 38v624q0 36 39 38h223q231 0 231 -184q0 -103 -92 -148zM362 624h-187v-225h187q144 0 144 113q0 58 -35 85t-109 27zM385 76q146 0 146 121q0 62 -39 94.5t-113 32.5h-204v-248h210z" />
    <glyph glyph-name="C" unicode="C" horiz-adv-x="654" 
d="M406 -10q-159 0 -245.5 93.5t-86.5 266.5t86.5 266.5t245.5 93.5q96 0 167 -32q19 -11 19 -33q0 -33 -33 -33q-9 0 -28 4q-68 18 -124 18q-123 0 -187.5 -71.5t-64.5 -212.5t64.5 -212.5t187.5 -71.5q57 0 124 18q19 4 28 4q33 0 33 -33q0 -22 -19 -33q-71 -32 -167 -32z
" />
    <glyph glyph-name="D" unicode="D" horiz-adv-x="727" 
d="M343 700q148 0 229 -92t81 -258t-81 -258t-229 -92h-208q-41 0 -41 38v624q0 38 41 38h208zM346 76q226 0 226 274t-226 274h-171v-548h171z" />
    <glyph glyph-name="E" unicode="E" horiz-adv-x="576" 
d="M491 76q38 0 38 -38t-38 -38h-356q-41 0 -41 38v624q0 38 41 38h356q38 0 38 -38t-38 -38h-316v-221h257q38 0 38 -38t-38 -38h-257v-251h316z" />
    <glyph glyph-name="F" unicode="F" horiz-adv-x="576" 
d="M491 700q38 0 38 -38t-38 -38h-316v-235h257q38 0 38 -38t-38 -38h-257v-275q0 -38 -40 -38q-41 0 -41 38v624q0 38 41 38h356z" />
    <glyph glyph-name="G" unicode="G" horiz-adv-x="698" 
d="M578 366q19 0 30 -10t11 -28v-228q0 -35 -9 -51.5t-40 -30.5q-68 -28 -164 -28q-157 0 -244.5 94t-87.5 266q0 173 86.5 266.5t245.5 93.5q96 0 167 -32q19 -11 19 -33q0 -33 -33 -33q-9 0 -28 4q-68 18 -124 18q-123 0 -187.5 -71.5t-64.5 -212.5t64.5 -212.5
t189.5 -71.5q61 0 109 18q20 8 20 32v175h-138q-38 0 -38 38q0 37 38 37h178z" />
    <glyph glyph-name="H" unicode="H" horiz-adv-x="721" 
d="M586 700q41 0 41 -38v-624q0 -38 -41 -38q-40 0 -40 38v289h-371v-289q0 -38 -40 -38q-41 0 -41 38v624q0 38 41 38q40 0 40 -38v-259h371v259q0 38 40 38z" />
    <glyph glyph-name="I" unicode="I" horiz-adv-x="269" 
d="M135 0q-41 0 -41 38v624q0 38 41 38q40 0 40 -38v-624q0 -38 -40 -38z" />
    <glyph glyph-name="J" unicode="J" horiz-adv-x="460" 
d="M326 700q40 0 40 -38v-473q0 -199 -195 -199q-65 0 -122 30q-23 14 -23 35q0 33 33 33q12 0 26 -6q39 -16 81 -16q119 0 119 120v438h-157q-38 0 -38 38t38 38h198z" />
    <glyph glyph-name="K" unicode="K" horiz-adv-x="643" 
d="M599 62q8 -12 8 -23q0 -16 -14 -27.5t-33 -11.5q-16 0 -33 24l-235 322l-117 -116v-192q0 -38 -40 -38q-41 0 -41 38v624q0 38 41 38q40 0 40 -38v-319l338 333q23 24 38 24q19 0 31.5 -11.5t12.5 -27.5q0 -15 -12 -28l-233 -230z" />
    <glyph glyph-name="L" unicode="L" horiz-adv-x="555" 
d="M491 76q38 0 38 -38t-38 -38h-356q-41 0 -41 38v624q0 38 41 38q40 0 40 -38v-586h316z" />
    <glyph glyph-name="M" unicode="M" horiz-adv-x="876" 
d="M741 700q19 0 30 -10t11 -28v-624q0 -18 -11 -28t-30 -10q-40 0 -40 38v517l-227 -304q-17 -20 -37 -20t-37 20l-227 303v-516q0 -38 -40 -38q-41 0 -41 38v624q0 38 41 38q23 0 45 -24l259 -342l259 342q22 24 45 24z" />
    <glyph glyph-name="N" unicode="N" horiz-adv-x="724" 
d="M591 700q40 0 40 -38v-624q0 -38 -40 -38q-29 0 -46 24l-372 523v-509q0 -38 -40 -38q-41 0 -41 38v624q0 38 41 38q29 0 46 -24l372 -523v509q0 38 40 38z" />
    <glyph glyph-name="O" unicode="O" horiz-adv-x="766" 
d="M383 -10q-147 0 -228 94t-81 266t81 266t228 94t228 -94t81 -266t-81 -266t-228 -94zM383 66q229 0 229 284t-229 284q-228 0 -228 -284t228 -284z" />
    <glyph glyph-name="P" unicode="P" horiz-adv-x="664" 
d="M343 700q121 0 184 -54.5t63 -158.5t-63 -158t-184 -54h-168v-237q0 -38 -40 -38q-41 0 -41 38v624q0 38 41 38h208zM348 350q161 0 161 137t-161 137h-173v-274h173z" />
    <glyph glyph-name="Q" unicode="Q" horiz-adv-x="766" 
d="M629 108l50 -50q12 -12 12 -26q0 -16 -12.5 -29t-28.5 -13q-15 0 -27 12l-48 47q-76 -59 -192 -59q-147 0 -228 94t-81 266t81 266t228 94t228 -94t81 -266q0 -150 -63 -242zM383 66q83 0 136 38l-84 83q-11 12 -11 27t13 28t28 13t27 -12l80 -79q40 68 40 186
q0 284 -229 284q-228 0 -228 -284t228 -284z" />
    <glyph glyph-name="R" unicode="R" horiz-adv-x="640" 
d="M591 62q8 -12 8 -23q0 -16 -14 -27.5t-33 -11.5q-16 0 -33 24l-186 255h-158v-241q0 -38 -40 -38q-41 0 -41 38v624q0 38 41 38h202q120 0 183 -54t63 -156q0 -165 -157 -202zM175 624v-269h166q161 0 161 135q0 134 -161 134h-166z" />
    <glyph glyph-name="S" unicode="S" horiz-adv-x="562" 
d="M271 -10q-98 0 -186 36q-31 13 -31 39q0 33 32 33q13 0 30 -5q86 -27 155 -27q76 0 117 31.5t41 88.5q0 53 -33 79.5t-121 52.5q-120 35 -170.5 80t-50.5 122q0 89 63 139.5t167 50.5q99 0 170 -32q19 -11 19 -33q0 -15 -9 -24t-24 -9q-8 0 -28 4q-68 18 -130 18
q-72 0 -109.5 -31.5t-37.5 -82.5q0 -47 38 -73.5t133 -54.5q115 -33 159.5 -80.5t44.5 -125.5q0 -90 -63.5 -143t-175.5 -53z" />
    <glyph glyph-name="T" unicode="T" horiz-adv-x="609" 
d="M545 700q38 0 38 -38t-38 -38h-200v-586q0 -38 -40 -38q-41 0 -41 38v586h-200q-38 0 -38 38t38 38h481z" />
    <glyph glyph-name="U" unicode="U" horiz-adv-x="722" 
d="M587 700q19 0 30 -10t11 -28v-388q0 -133 -71 -208.5t-196 -75.5t-196 75.5t-71 208.5v388q0 38 41 38q40 0 40 -38v-390q0 -206 186 -206t186 206v390q0 38 40 38z" />
    <glyph glyph-name="V" unicode="V" horiz-adv-x="654" 
d="M585 700q20 0 31.5 -10.5t11.5 -25.5q0 -9 -4 -21l-242 -600q-16 -43 -55 -43t-55 43l-242 600q-4 12 -4 21q0 15 11.5 25.5t31.5 10.5q25 0 34 -25l224 -556l223 556q11 25 35 25z" />
    <glyph glyph-name="W" unicode="W" horiz-adv-x="952" 
d="M882 700q20 0 32 -10.5t12 -25.5q0 -1 -4 -21l-194 -600q-14 -43 -56 -43q-39 0 -55 43l-141 350l-141 -350q-17 -43 -56 -43q-42 0 -55 43l-194 600q-4 10 -4 21q0 15 12 25.5t31 10.5q27 0 35 -25l180 -554l143 358q16 41 49 41q32 0 48 -41l144 -358l180 554
q8 25 34 25z" />
    <glyph glyph-name="X" unicode="X" horiz-adv-x="636" 
d="M601 65q9 -12 9 -25q0 -16 -13 -28t-30 -12q-15 0 -29 15l-220 277l-220 -277q-12 -15 -29 -15q-16 0 -29.5 11.5t-13.5 28.5q0 14 10 25l231 292l-220 277q-10 11 -10 26q0 17 13.5 28.5t30.5 11.5q15 0 28 -15l209 -264l209 264q13 15 28 15q18 0 31 -12t13 -28
q0 -14 -9 -26l-220 -277z" />
    <glyph glyph-name="Y" unicode="Y" horiz-adv-x="639" 
d="M613 660q0 -13 -9 -25l-244 -308v-289q0 -38 -40 -38q-41 0 -41 38v290l-243 307q-10 11 -10 25q0 16 13.5 28t29.5 12q17 0 29 -15l222 -279l222 279q12 15 28 15t29.5 -11.5t13.5 -28.5z" />
    <glyph glyph-name="Z" unicode="Z" horiz-adv-x="596" 
d="M511 76q38 0 38 -38t-38 -38h-425q-39 0 -39 38q0 18 12 35l373 551h-335q-39 0 -39 38t39 38h407q39 0 39 -38q0 -18 -12 -35l-374 -551h354z" />
    <glyph glyph-name="bracketleft" unicode="[" horiz-adv-x="438" 
d="M306 -74q38 0 38 -38t-38 -38h-171q-41 0 -41 38v824q0 38 41 38h171q38 0 38 -38t-38 -38h-131v-748h131z" />
    <glyph glyph-name="backslash" unicode="\" horiz-adv-x="565" 
d="M429 -106q-26 0 -37 27l-294 736q-4 14 -4 22q0 17 12.5 26.5t29.5 9.5q26 0 37 -27l294 -736q4 -14 4 -22q0 -17 -12.5 -26.5t-29.5 -9.5z" />
    <glyph glyph-name="bracketright" unicode="]" horiz-adv-x="438" 
d="M303 750q41 0 41 -38v-824q0 -38 -41 -38h-171q-38 0 -38 38t38 38h131v748h-131q-38 0 -38 38t38 38h171z" />
    <glyph glyph-name="asciicircum" unicode="^" horiz-adv-x="641" 
d="M540 401q7 -10 7 -24q0 -17 -11 -28.5t-30 -11.5q-20 0 -33 19l-152 244l-153 -244q-13 -19 -33 -19q-19 0 -30 11.5t-11 28.5q0 12 8 24l167 268q20 31 52 31q31 0 51 -31z" />
    <glyph glyph-name="underscore" unicode="_" horiz-adv-x="581" 
d="M449 -43q38 0 38 -37q0 -38 -38 -38h-317q-38 0 -38 38q0 37 38 37h317z" />
    <glyph glyph-name="grave" unicode="`" horiz-adv-x="418" 
d="M285 622q-11 0 -25 7l-142 74q-24 13 -24 34q0 16 11.5 28.5t27.5 12.5q10 0 24 -7l143 -74q24 -13 24 -34q0 -15 -11.5 -28t-27.5 -13z" />
    <glyph glyph-name="a" unicode="a" horiz-adv-x="566" 
d="M254 514q121 0 176 -57.5t55 -183.5v-234q0 -18 -10.5 -28.5t-29.5 -10.5q-18 0 -28.5 10.5t-10.5 28.5v65q-21 -55 -67.5 -84.5t-109.5 -29.5q-79 0 -127 43.5t-48 116.5q0 151 189 151q73 0 163 -20q-2 89 -36 125t-118 36q-52 0 -103 -17q-17 -5 -26 -5q-33 0 -33 33
q0 23 29 36q51 25 135 25zM248 59q75 0 116.5 43t41.5 121v5q-92 17 -152 17q-121 0 -121 -90q0 -42 32 -69t83 -27z" />
    <glyph glyph-name="b" unicode="b" horiz-adv-x="630" 
d="M345 514q106 0 164 -68.5t58 -193.5t-58 -193.5t-164 -68.5q-65 0 -111.5 30t-68.5 85v-66q0 -18 -10.5 -28.5t-28.5 -10.5q-19 0 -29.5 10.5t-10.5 28.5v637q0 18 10.5 28.5t29.5 10.5q18 0 28.5 -10.5t10.5 -28.5v-277q22 55 68.5 85t111.5 30zM327 64q79 0 120 48
t41 140t-41 140t-120 48t-120.5 -48t-41.5 -140t41.5 -140t120.5 -48z" />
    <glyph glyph-name="c" unicode="c" horiz-adv-x="534" 
d="M309 -10q-116 0 -181 69t-65 193t65 193t181 69q81 0 135 -25q29 -13 29 -36q0 -35 -33 -35q-9 0 -25 5q-51 17 -104 17q-80 0 -124.5 -49t-44.5 -139t44.5 -139t124.5 -49q53 0 104 17q16 5 25 5q33 0 33 -35q0 -23 -29 -36q-58 -25 -135 -25z" />
    <glyph glyph-name="d" unicode="d" horiz-adv-x="625" 
d="M504 715q19 0 29.5 -10.5t10.5 -28.5v-637q0 -18 -10.5 -28.5t-29.5 -10.5q-18 0 -28.5 10.5t-10.5 28.5v66q-22 -55 -68.5 -85t-111.5 -30q-106 0 -164 68.5t-58 193.5t58 193.5t164 68.5q65 0 111.5 -30t68.5 -85v277q0 18 10.5 28.5t28.5 10.5zM303 64q79 0 120.5 48
t41.5 140t-41.5 140t-120.5 48t-120 -48t-41 -140t41 -140t120 -48z" />
    <glyph glyph-name="e" unicode="e" horiz-adv-x="587" 
d="M526 282q0 -26 -12 -37.5t-38 -11.5h-333q5 -87 51 -129t137 -42q53 0 104 17q17 4 25 4q33 0 33 -32q0 -23 -29 -36q-58 -25 -135 -25q-127 0 -196.5 68.5t-69.5 193.5q0 122 64.5 192t176.5 70q103 0 162.5 -62t59.5 -170zM440 289q7 0 7 7q0 69 -39 109t-104 40
q-69 0 -111 -40t-49 -116h296z" />
    <glyph glyph-name="f" unicode="f" horiz-adv-x="393" 
d="M278 651q-72 0 -72 -87v-60h117q39 0 39 -37t-39 -37h-117v-391q0 -18 -11 -28.5t-29 -10.5t-29 10.5t-11 28.5v391h-66q-39 0 -39 37t39 37h66v73q0 68 38.5 108t103.5 40q50 0 86 -17q27 -14 27 -37q0 -15 -9 -24t-23 -9q-5 0 -23 5q-26 8 -48 8z" />
    <glyph glyph-name="g" unicode="g" horiz-adv-x="625" 
d="M504 504q19 0 29.5 -10.5t10.5 -28.5v-435q0 -240 -250 -240q-82 0 -138 25q-29 12 -29 36q0 32 33 32q9 0 25 -5q53 -16 107 -16q90 0 131.5 40t41.5 128v75q-22 -55 -68.5 -85t-111.5 -30q-106 0 -164 68.5t-58 193.5t58 193.5t164 68.5q65 0 111.5 -30t68.5 -85v66
q0 18 10.5 28.5t28.5 10.5zM303 64q79 0 120.5 48t41.5 140t-41.5 140t-120.5 48t-120 -48t-41 -140t41 -140t120 -48z" />
    <glyph glyph-name="h" unicode="h" horiz-adv-x="610" 
d="M346 514q90 0 136.5 -58t46.5 -171v-246q0 -18 -10.5 -28.5t-29.5 -10.5q-18 0 -29 10.5t-11 28.5v244q0 157 -123 157q-76 0 -118.5 -49.5t-42.5 -137.5v-214q0 -18 -10.5 -28.5t-28.5 -10.5q-19 0 -29.5 10.5t-10.5 28.5v637q0 18 10.5 28.5t29.5 10.5q18 0 28.5 -10.5
t10.5 -28.5v-279q23 55 70.5 86t110.5 31z" />
    <glyph glyph-name="i" unicode="i" horiz-adv-x="251" 
d="M126 598q-53 0 -53 49t53 49t53 -49t-53 -49zM126 0q-19 0 -29.5 10.5t-10.5 28.5v426q0 18 10.5 28.5t29.5 10.5q18 0 28.5 -10.5t10.5 -28.5v-426q0 -18 -10.5 -28.5t-28.5 -10.5z" />
    <glyph glyph-name="j" unicode="j" horiz-adv-x="254" 
d="M131 598q-53 0 -53 49t53 49t53 -49t-53 -49zM31 -210q-50 0 -86 17q-26 14 -26 37q0 15 8.5 24t22.5 9q6 0 23 -5q26 -8 49 -8q72 0 72 87v514q0 18 10.5 28.5t28.5 10.5q19 0 29.5 -10.5t10.5 -28.5v-527q0 -68 -38 -108t-104 -40z" />
    <glyph glyph-name="k" unicode="k" horiz-adv-x="520" 
d="M491 62q8 -11 8 -25q0 -16 -12.5 -26.5t-27.5 -10.5q-19 0 -33 20l-162 229l-99 -91v-119q0 -18 -10.5 -28.5t-28.5 -10.5q-19 0 -29.5 10.5t-10.5 28.5v637q0 18 10.5 28.5t29.5 10.5q18 0 28.5 -10.5t10.5 -28.5v-413l249 230q13 11 27 11q16 0 28 -12t12 -27
q0 -17 -17 -31l-143 -132z" />
    <glyph glyph-name="l" unicode="l" horiz-adv-x="254" 
d="M127 0q-19 0 -29.5 10.5t-10.5 28.5v637q0 18 10.5 28.5t29.5 10.5q18 0 29 -10.5t11 -28.5v-637q0 -18 -11 -28.5t-29 -10.5z" />
    <glyph glyph-name="m" unicode="m" horiz-adv-x="958" 
d="M700 514q177 0 177 -229v-246q0 -18 -10.5 -28.5t-29.5 -10.5q-18 0 -28.5 10.5t-10.5 28.5v244q0 157 -120 157q-74 0 -115.5 -49.5t-41.5 -137.5v-214q0 -18 -10.5 -28.5t-28.5 -10.5q-19 0 -29.5 10.5t-10.5 28.5v244q0 157 -120 157q-74 0 -115.5 -49.5t-41.5 -137.5
v-214q0 -18 -10.5 -28.5t-28.5 -10.5q-19 0 -29.5 10.5t-10.5 28.5v426q0 18 10.5 28.5t29.5 10.5q18 0 28.5 -10.5t10.5 -28.5v-68q23 55 70 86t109 31q136 0 168 -137q22 66 71.5 101.5t116.5 35.5z" />
    <glyph glyph-name="n" unicode="n" horiz-adv-x="610" 
d="M346 514q90 0 136.5 -58t46.5 -171v-246q0 -18 -10.5 -28.5t-29.5 -10.5q-18 0 -29 10.5t-11 28.5v244q0 157 -123 157q-76 0 -118.5 -49.5t-42.5 -137.5v-214q0 -18 -10.5 -28.5t-28.5 -10.5q-19 0 -29.5 10.5t-10.5 28.5v426q0 18 10.5 28.5t29.5 10.5q18 0 28.5 -10.5
t10.5 -28.5v-68q23 55 70.5 86t110.5 31z" />
    <glyph glyph-name="o" unicode="o" horiz-adv-x="612" 
d="M306 -10q-116 0 -179.5 68.5t-63.5 193.5t63.5 193.5t179.5 68.5t179.5 -68.5t63.5 -193.5t-63.5 -193.5t-179.5 -68.5zM306 64q80 0 122 48t42 140t-42 140t-122 48t-122 -48t-42 -140t42 -140t122 -48z" />
    <glyph glyph-name="p" unicode="p" horiz-adv-x="630" 
d="M345 514q106 0 164 -68.5t58 -193.5t-58 -193.5t-164 -68.5q-65 0 -111.5 30t-68.5 85v-266q0 -18 -10.5 -28.5t-28.5 -10.5q-19 0 -29.5 10.5t-10.5 28.5v626q0 18 10.5 28.5t29.5 10.5q18 0 28.5 -10.5t10.5 -28.5v-66q22 55 68.5 85t111.5 30zM327 64q79 0 120 48
t41 140t-41 140t-120 48t-120.5 -48t-41.5 -140t41.5 -140t120.5 -48z" />
    <glyph glyph-name="q" unicode="q" horiz-adv-x="625" 
d="M504 504q19 0 29.5 -10.5t10.5 -28.5v-626q0 -18 -10.5 -28.5t-29.5 -10.5q-18 0 -28.5 10.5t-10.5 28.5v266q-22 -55 -68.5 -85t-111.5 -30q-106 0 -164 68.5t-58 193.5t58 193.5t164 68.5q65 0 111.5 -30t68.5 -85v66q0 18 10.5 28.5t28.5 10.5zM303 64q79 0 120.5 48
t41.5 140t-41.5 140t-120.5 48t-120 -48t-41 -140t41 -140t120 -48z" />
    <glyph glyph-name="r" unicode="r" horiz-adv-x="403" 
d="M343 510q39 0 39 -37t-39 -37q-86 0 -132 -48.5t-46 -138.5v-210q0 -18 -10.5 -28.5t-28.5 -10.5q-19 0 -29.5 10.5t-10.5 28.5v426q0 18 10.5 28.5t29.5 10.5q18 0 28.5 -10.5t10.5 -28.5v-73q48 118 178 118z" />
    <glyph glyph-name="s" unicode="s" horiz-adv-x="478" 
d="M233 -10q-84 0 -154 35q-27 12 -27 36q0 29 31 29q11 0 28 -6q69 -26 121 -26q55 0 85.5 20t30.5 55q0 33 -30 52.5t-72.5 31t-85 25.5t-72.5 46t-30 83q0 65 49 104t133 39q83 0 144 -28q21 -13 21 -32q0 -14 -8.5 -22t-22.5 -8q-10 0 -29 5q-55 16 -103 16t-76.5 -19
t-28.5 -51q0 -30 30 -49t72.5 -30t85 -26t72.5 -48t30 -85q0 -70 -51 -108.5t-143 -38.5z" />
    <glyph glyph-name="t" unicode="t" horiz-adv-x="430" 
d="M349 77q14 0 23 -9t9 -24q0 -23 -27 -37q-36 -17 -86 -17q-65 0 -103.5 40t-38.5 108v292h-66q-39 0 -39 37t39 37h66v109q0 18 11 28.5t29 10.5t29 -10.5t11 -28.5v-109h117q39 0 39 -37t-39 -37h-117v-279q0 -87 72 -87q24 0 48 8q18 5 23 5z" />
    <glyph glyph-name="u" unicode="u" horiz-adv-x="601" 
d="M480 504q19 0 29.5 -10.5t10.5 -28.5v-240q0 -114 -57 -174.5t-163 -60.5q-105 0 -162 60.5t-57 174.5v240q0 18 10.5 28.5t29.5 10.5q18 0 28.5 -10.5t10.5 -28.5v-240q0 -79 36 -120t104 -41q140 0 140 161v240q0 18 11 28.5t29 10.5z" />
    <glyph glyph-name="v" unicode="v" horiz-adv-x="524" 
d="M462 504q16 0 28.5 -11t12.5 -26q0 -8 -5 -21l-199 -422q-11 -24 -37 -24t-37 24l-199 422q-5 13 -5 21q0 16 13 26.5t28 10.5q24 0 34 -24l166 -353l166 353q10 24 34 24z" />
    <glyph glyph-name="w" unicode="w" horiz-adv-x="748" 
d="M685 504q17 0 29.5 -10t12.5 -26q0 -8 -5 -21l-151 -422q-8 -25 -38 -25q-28 0 -39 25l-120 276l-120 -276q-11 -25 -39 -25q-29 0 -38 25l-151 422q-5 13 -5 21q0 16 13 26t29 10q25 0 33 -25l126 -352l108 243q14 34 44 34t44 -34l108 -243l126 352q8 25 33 25z" />
    <glyph glyph-name="x" unicode="x" horiz-adv-x="498" 
d="M466 65q11 -13 11 -25q0 -16 -13 -28t-28 -12q-16 0 -30 15l-157 180l-158 -180q-12 -15 -29 -15q-16 0 -28.5 12t-12.5 28q0 14 11 25l165 189l-161 185q-11 13 -11 25q0 16 13 28t28 12q17 0 29 -15l154 -176l153 176q14 15 30 15q15 0 27.5 -12t12.5 -28
q0 -14 -10 -25l-162 -185z" />
    <glyph glyph-name="y" unicode="y" horiz-adv-x="524" 
d="M462 504q16 0 28.5 -11t12.5 -26q0 -8 -5 -21l-305 -622q-11 -24 -33 -24q-16 0 -29 11t-13 26q0 9 6 21l95 194l-193 394q-5 13 -5 21q0 16 12.5 26.5t28.5 10.5q24 0 34 -24l167 -338l165 338q10 24 34 24z" />
    <glyph glyph-name="z" unicode="z" horiz-adv-x="501" 
d="M420 74q39 0 39 -37t-39 -37h-339q-39 0 -39 37q0 16 10 29l283 364h-244q-18 0 -28.5 10t-10.5 27t10.5 27t28.5 10h322q39 0 39 -37q0 -16 -10 -29l-283 -364h261z" />
    <glyph glyph-name="braceleft" unicode="{" horiz-adv-x="558" 
d="M425 -74q39 0 39 -37q0 -39 -46 -39h-25q-80 0 -128.5 47t-48.5 139v148q0 81 -68 81h-16q-38 0 -38 38t38 38h16q68 0 68 81v142q0 92 48.5 139t128.5 47h32q38 0 38 -38t-38 -38h-15q-114 0 -114 -120v-144q0 -77 -62 -107q62 -30 62 -107v-150q0 -120 114 -120h15z
" />
    <glyph glyph-name="bar" unicode="|" horiz-adv-x="269" 
d="M135 -200q-41 0 -41 38v824q0 38 41 38q40 0 40 -38v-824q0 -38 -40 -38z" />
    <glyph glyph-name="braceright" unicode="}" horiz-adv-x="558" 
d="M426 341q38 0 38 -38t-38 -38h-16q-68 0 -68 -81v-148q0 -92 -48.5 -139t-128.5 -47h-25q-46 0 -46 39q0 37 39 37h15q114 0 114 120v150q0 77 62 107q-62 30 -62 107v144q0 120 -114 120h-15q-38 0 -38 38t38 38h32q80 0 128.5 -47t48.5 -139v-142q0 -81 68 -81h16z" />
    <glyph glyph-name="asciitilde" unicode="~" horiz-adv-x="593" 
d="M136 207q-42 0 -42 41v3q0 52 29.5 81.5t80.5 29.5q37 0 72.5 -19t63 -38.5t43.5 -19.5q40 0 40 47v1q0 13 9.5 21.5t24.5 8.5q42 0 42 -42v-3q0 -52 -29.5 -81.5t-81.5 -29.5q-37 0 -72.5 19.5t-62.5 38.5t-43 19q-40 0 -40 -47v-1q0 -13 -9.5 -21t-24.5 -8z" />
    <glyph glyph-name="uni00A0" unicode="&#xa0;" horiz-adv-x="262" 
 />
    <glyph glyph-name="exclamdown" unicode="&#xa1;" horiz-adv-x="307" 
d="M154 514q59 0 59 -55t-59 -55q-60 0 -60 55t60 55zM154 317q40 0 40 -38v-437q0 -38 -40 -38q-41 0 -41 38v437q0 38 41 38z" />
    <glyph glyph-name="cent" unicode="&#xa2;" horiz-adv-x="534" 
d="M440 86q33 0 33 -35q0 -23 -29 -36q-41 -18 -100 -24v-85q0 -39 -39 -39q-19 0 -29.5 10.5t-10.5 28.5v87q-96 13 -149 80.5t-53 178.5t53 178.5t149 80.5v87q0 18 10.5 28.5t29.5 10.5q39 0 39 -39v-85q59 -5 100 -24q29 -13 29 -36q0 -35 -33 -35q-9 0 -25 5
q-51 17 -104 17q-80 0 -124.5 -49t-44.5 -139t44.5 -139t124.5 -49q53 0 104 17q16 5 25 5z" />
    <glyph glyph-name="sterling" unicode="&#xa3;" horiz-adv-x="588" 
d="M524 76q38 0 38 -38t-38 -38h-443q-38 0 -38 38t38 38q36 0 49 19t13 71q0 63 -7 149h-72q-38 0 -38 38t38 38h66q-3 48 -3 103q0 101 59.5 158.5t164.5 57.5q87 0 160 -29q23 -12 23 -36q0 -33 -32 -33q-11 0 -32 5q-57 17 -118 17q-68 0 -106 -38t-38 -106q0 -51 3 -99
h208q38 0 38 -38t-38 -38h-202q6 -92 6 -147q0 -62 -20 -92h321z" />
    <glyph glyph-name="currency" unicode="&#xa4;" horiz-adv-x="668" 
d="M504 201l57 -57q12 -12 12 -28q0 -15 -13 -27t-29 -12t-28 12l-58 58q-45 -27 -111 -27t-111 27l-59 -58q-11 -12 -27 -12q-17 0 -30 12t-13 27q0 16 12 28l58 57q-33 49 -33 116t33 116l-58 57q-12 12 -12 28q0 15 13 27t30 12q15 0 27 -12l59 -58q45 27 111 27t111 -27
l58 58q13 12 28 12q16 0 29 -12t13 -27q0 -16 -12 -28l-57 -57q32 -47 32 -116t-32 -116zM334 194q56 0 89.5 33.5t33.5 89.5t-33.5 89.5t-89.5 33.5t-89.5 -33.5t-33.5 -89.5t33 -89.5t90 -33.5z" />
    <glyph glyph-name="yen" unicode="&#xa5;" horiz-adv-x="639" 
d="M613 660q0 -13 -9 -25l-212 -267h144q35 0 35 -35t-35 -35h-176v-103h176q35 0 35 -35t-35 -35h-176v-87q0 -38 -40 -38q-41 0 -41 38v87h-175q-35 0 -35 35t35 35h175v103h-175q-35 0 -35 35t35 35h144l-212 267q-10 11 -10 25q0 16 13.5 28t29.5 12q17 0 29 -15
l222 -279l222 279q12 15 28 15t29.5 -11.5t13.5 -28.5z" />
    <glyph glyph-name="brokenbar" unicode="&#xa6;" horiz-adv-x="269" 
d="M135 303q-41 0 -41 38v327q0 38 41 38q40 0 40 -38v-327q0 -38 -40 -38zM135 -200q-41 0 -41 38v327q0 38 41 38q40 0 40 -38v-327q0 -38 -40 -38z" />
    <glyph glyph-name="section" unicode="&#xa7;" horiz-adv-x="577" 
d="M434 195q35 -37 35 -92q0 -68 -51 -107.5t-139 -39.5q-91 0 -159 37q-20 12 -20 32q0 29 32 29q10 0 27 -5q68 -25 118 -25q52 0 82.5 20.5t30.5 54.5q0 32 -30 51.5t-72.5 31t-85 26t-72.5 47t-30 82.5q0 69 51 106q-37 35 -37 92q0 65 49 104t133 39t145 -28
q20 -13 20 -32q0 -14 -8.5 -22t-22.5 -8q-10 0 -28 5q-59 17 -104 17q-48 0 -76 -19.5t-28 -51.5q0 -30 30 -49t72 -30t84.5 -26t72.5 -48t30 -85q0 -68 -49 -106zM367 232q44 20 44 63q0 22 -11 38t-33 26.5t-43 17t-52 14.5t-50 15q-49 -18 -49 -64q0 -26 20 -44t45 -25.5
t65.5 -19t63.5 -21.5z" />
    <glyph glyph-name="dieresis" unicode="&#xa8;" horiz-adv-x="498" 
d="M147 646q-53 0 -53 49t53 49t53 -48q0 -50 -53 -50zM351 646q-53 0 -53 49t53 49t53 -48q0 -50 -53 -50z" />
    <glyph glyph-name="copyright" unicode="&#xa9;" horiz-adv-x="890" 
d="M445 -10q-161 0 -266 102t-105 258t105 258t266 102t266 -102t105 -258t-105 -258t-266 -102zM445 49q134 0 220.5 84.5t86.5 216.5t-86.5 216.5t-220.5 84.5t-220.5 -84.5t-86.5 -216.5t86.5 -216.5t220.5 -84.5zM447 167q-83 0 -130 48t-47 135t47 135t130 48
q55 0 98 -17q23 -10 23 -29q0 -27 -25 -27q-3 0 -38 7t-55 7q-56 0 -86 -32t-30 -92t30 -92t86 -32q20 0 55 7t38 7q25 0 25 -27q0 -19 -23 -29q-43 -17 -98 -17z" />
    <glyph glyph-name="ordfeminine" unicode="&#xaa;" horiz-adv-x="424" 
d="M201 710q84 0 123 -40.5t39 -128.5v-161q0 -30 -30 -30t-30 30v33q-33 -70 -119 -70q-56 0 -89.5 31t-33.5 82q0 105 133 105q47 0 109 -13q-1 58 -24 82.5t-79 24.5q-31 0 -63 -10q-22 -5 -26 -5q-26 0 -26 25q0 19 22 28q41 17 94 17zM197 396q87 0 106 75v35
q-63 12 -102 12q-80 0 -80 -60q0 -28 21 -45t55 -17z" />
    <glyph glyph-name="guillemotleft" unicode="&#xab;" horiz-adv-x="697" 
d="M190 273l148 -133q15 -16 15 -29q0 -17 -12.5 -29.5t-29.5 -12.5q-15 0 -31 14l-162 146q-24 25 -24 44t24 44l162 145q15 15 31 15q17 0 29.5 -12.5t12.5 -29.5q0 -14 -15 -29zM440 273l148 -133q15 -17 15 -29q0 -17 -12.5 -29.5t-29.5 -12.5q-15 0 -31 14l-162 146
q-24 25 -24 44t24 44l162 145q15 15 31 15q17 0 29.5 -12.5t12.5 -29.5q0 -14 -15 -29z" />
    <glyph glyph-name="logicalnot" unicode="&#xac;" horiz-adv-x="593" 
d="M461 325q38 0 38 -38v-158q0 -38 -40 -38q-41 0 -41 38v120h-286q-38 0 -38 38t38 38h329z" />
    <glyph glyph-name="uni00AD" unicode="&#xad;" horiz-adv-x="581" 
d="M449 317q38 0 38 -38t-38 -38h-317q-38 0 -38 38t38 38h317z" />
    <glyph glyph-name="registered" unicode="&#xae;" horiz-adv-x="677" 
d="M339 710q105 0 174.5 -68t69.5 -172q0 -103 -69.5 -171.5t-174.5 -68.5q-106 0 -175.5 68t-69.5 172t69.5 172t175.5 68zM339 275q87 0 141.5 54.5t54.5 140.5t-54.5 141t-141.5 55t-142 -55t-55 -141t55 -140.5t142 -54.5zM386 452l41 -57q5 -7 5 -14q0 -9 -7.5 -15.5
t-18.5 -6.5q-10 0 -19 14l-54 73h-29v-66q0 -21 -23 -21t-23 21v178q0 21 23 21h66q78 0 78 -66q0 -47 -39 -61zM304 539v-54h43q32 0 32 27t-32 27h-43z" />
    <glyph glyph-name="macron" unicode="&#xaf;" horiz-adv-x="474" 
d="M136 649q-42 0 -42 39t42 39h202q42 0 42 -39t-42 -39h-202z" />
    <glyph glyph-name="degree" unicode="&#xb0;" horiz-adv-x="500" 
d="M250 418q-69 0 -112.5 43t-43.5 113q0 67 43.5 109t112.5 42t112.5 -42t43.5 -109q0 -70 -43.5 -113t-112.5 -43zM250 480q41 0 66.5 25.5t25.5 67.5q0 40 -25.5 65t-66.5 25t-66.5 -25t-25.5 -65q0 -42 25.5 -67.5t66.5 -25.5z" />
    <glyph glyph-name="plusminus" unicode="&#xb1;" horiz-adv-x="594" 
d="M127 323q-33 0 -33 32q0 33 33 33h135v79q0 33 35 33q34 0 34 -33v-79h135q33 0 33 -33q0 -32 -33 -32h-135v-79q0 -33 -34 -33q-35 0 -35 33v79h-135zM466 165q33 0 33 -33t-33 -33h-338q-33 0 -33 33t33 33h338z" />
    <glyph glyph-name="uni00B2" unicode="&#xb2;" horiz-adv-x="462" 
d="M363 407q37 0 37 -36q0 -35 -37 -35h-263q-18 0 -28 9.5t-10 25.5v7q0 24 20 43l162 146q63 56 63 102q0 32 -23 51t-60 19q-44 0 -96 -15q-22 -6 -30 -6q-27 0 -27 33q0 22 21 33q59 26 132 26q75 0 117 -37t42 -102q0 -79 -94 -162l-116 -102h190z" />
    <glyph glyph-name="uni00B3" unicode="&#xb3;" horiz-adv-x="445" 
d="M324 574q59 -35 59 -108q0 -66 -45 -102.5t-125 -36.5q-69 0 -126 23q-25 11 -25 35q0 32 27 32q9 0 26 -5q55 -16 99 -16q42 0 67.5 19.5t25.5 52.5q0 70 -85 70h-55q-38 0 -38 34q0 36 38 36h48q39 0 61.5 16t22.5 47q0 32 -23 51t-61 19q-40 0 -94 -16q-18 -5 -27 -5
q-28 0 -28 32q0 23 25 35q58 23 123 23q76 0 118.5 -36.5t42.5 -100.5q0 -63 -51 -99z" />
    <glyph glyph-name="acute" unicode="&#xb4;" horiz-adv-x="390" 
d="M105 622q-16 0 -27.5 13t-11.5 28q0 21 24 34l143 74q14 7 24 7q16 0 27.5 -12.5t11.5 -28.5q0 -21 -24 -34l-142 -74q-14 -7 -25 -7z" />
    <glyph glyph-name="uni00B5" unicode="&#xb5;" horiz-adv-x="614" 
d="M491 504q19 0 29.5 -10.5t10.5 -28.5v-426q0 -18 -10.5 -28.5t-29.5 -10.5q-18 0 -28.5 10.5t-10.5 28.5v68q-23 -55 -70 -86t-110 -31t-104 28v-179q0 -18 -10.5 -28.5t-29.5 -10.5q-18 0 -29 10.5t-11 28.5v626q0 18 11 28.5t29 10.5q19 0 29.5 -10.5t10.5 -28.5v-244
q0 -157 123 -157q76 0 118.5 49t42.5 138v214q0 18 10.5 28.5t28.5 10.5z" />
    <glyph glyph-name="paragraph" unicode="&#xb6;" horiz-adv-x="554" 
d="M237 700q40 0 40 -38v-738q0 -38 -40 -38t-40 38v407q-83 9 -127 56.5t-44 127.5q0 89 55 137t156 48zM420 700q40 0 40 -38v-738q0 -38 -40 -38q-41 0 -41 38v738q0 38 41 38z" />
    <glyph glyph-name="periodcentered" unicode="&#xb7;" horiz-adv-x="307" 
d="M154 269q-60 0 -60 55t60 55q59 0 59 -55t-59 -55z" />
    <glyph glyph-name="cedilla" unicode="&#xb8;" horiz-adv-x="381" 
d="M174 -38q52 0 82.5 -27.5t30.5 -73.5t-30.5 -73.5t-82.5 -27.5q-35 0 -57.5 11t-22.5 29q0 24 26 24q3 0 17 -4t31 -4q53 0 53 45q0 46 -53 46q-17 0 -31 -4.5t-17 -4.5q-26 0 -26 25q0 18 22 28.5t58 10.5z" />
    <glyph glyph-name="uni00B9" unicode="&#xb9;" horiz-adv-x="312" 
d="M212 800q17 0 27.5 -10t10.5 -26v-391q0 -16 -10.5 -26t-27.5 -10q-38 0 -38 36v320l-88 -70q-10 -9 -23 -9q-15 0 -26 11t-11 26q0 19 17 30l139 109q14 10 30 10z" />
    <glyph glyph-name="ordmasculine" unicode="&#xba;" horiz-adv-x="463" 
d="M231 343q-81 0 -125.5 48t-44.5 136q0 87 44.5 135t125.5 48t126 -48t45 -135q0 -88 -45 -136t-126 -48zM231 399q54 0 82.5 33t28.5 95t-28.5 94.5t-82.5 32.5q-53 0 -81.5 -32.5t-28.5 -94.5t28.5 -95t81.5 -33z" />
    <glyph glyph-name="guillemotright" unicode="&#xbb;" horiz-adv-x="697" 
d="M329 317q24 -25 24 -44t-24 -44l-162 -146q-16 -14 -31 -14q-17 0 -29.5 12.5t-12.5 29.5q0 13 15 29l148 133l-148 133q-15 15 -15 29q0 17 12.5 29.5t29.5 12.5q16 0 31 -15zM579 317q24 -25 24 -44t-24 -44l-162 -146q-16 -14 -31 -14q-17 0 -29.5 12.5t-12.5 29.5
q0 13 15 29l148 133l-148 133q-15 15 -15 29q0 17 12.5 29.5t29.5 12.5q16 0 31 -15z" />
    <glyph glyph-name="onequarter" unicode="&#xbc;" horiz-adv-x="967" 
d="M250 273q0 -16 -10.5 -26t-27.5 -10q-38 0 -38 36v320l-88 -70q-10 -9 -23 -9q-15 0 -26 11t-11 26q0 19 17 30l139 109q14 10 30 10q17 0 27.5 -10t10.5 -26v-391zM700 666q0 -12 -9 -26l-383 -619q-13 -21 -33 -21q-16 0 -27.5 10t-11.5 24q0 12 9 26l383 619
q13 21 33 21q16 0 27.5 -10t11.5 -24zM903 171q38 0 38 -35q0 -34 -38 -34h-48v-66q0 -36 -38 -36q-17 0 -27.5 10t-10.5 26v66h-195q-38 0 -38 35v14q0 16 16 36l189 249q20 27 45 27h21q38 0 38 -36v-256h48zM623 171h156v204z" />
    <glyph glyph-name="onehalf" unicode="&#xbd;" horiz-adv-x="1050" 
d="M250 273q0 -16 -10.5 -26t-27.5 -10q-38 0 -38 36v320l-88 -70q-10 -9 -23 -9q-15 0 -26 11t-11 26q0 19 17 30l139 109q14 10 30 10q17 0 27.5 -10t10.5 -26v-391zM700 666q0 -12 -9 -26l-383 -619q-13 -21 -33 -21q-16 0 -27.5 10t-11.5 24q0 12 9 26l383 619
q13 21 33 21q16 0 27.5 -10t11.5 -24zM951 71q37 0 37 -36q0 -35 -37 -35h-263q-18 0 -28 9.5t-10 25.5v7q0 24 20 43l162 146q63 56 63 102q0 32 -23 51t-60 19q-44 0 -96 -15q-22 -6 -30 -6q-27 0 -27 33q0 22 21 33q58 26 132 26q75 0 117 -37t42 -102q0 -79 -94 -162
l-116 -102h190z" />
    <glyph glyph-name="threequarters" unicode="&#xbe;" horiz-adv-x="1064" 
d="M383 366q0 -66 -45 -102.5t-125 -36.5q-69 0 -126 23q-25 11 -25 35q0 32 27 32q9 0 26 -5q55 -16 99 -16q42 0 67.5 19.5t25.5 52.5q0 70 -85 70h-55q-38 0 -38 34q0 36 38 36h48q39 0 61.5 16t22.5 47q0 32 -23 51t-61 19q-40 0 -94 -16q-18 -5 -27 -5q-28 0 -28 32
q0 23 25 35q58 23 123 23q76 0 118.5 -36.5t42.5 -100.5q0 -63 -51 -99q59 -35 59 -108zM797 666q0 -12 -9 -26l-383 -619q-13 -21 -33 -21q-16 0 -27.5 10t-11.5 24q0 12 9 26l383 619q13 21 33 21q16 0 27.5 -10t11.5 -24zM1000 171q38 0 38 -35q0 -34 -38 -34h-48v-66
q0 -36 -38 -36q-17 0 -27.5 10t-10.5 26v66h-195q-38 0 -38 35v14q0 16 16 36l189 249q20 27 45 27h21q38 0 38 -36v-256h48zM720 171h156v204z" />
    <glyph glyph-name="questiondown" unicode="&#xbf;" horiz-adv-x="630" 
d="M407 404q-59 0 -59 55t59 55t59 -55t-59 -55zM553 -97q35 0 35 -34q0 -28 -34 -42q-74 -33 -171 -33q-111 0 -174 50.5t-63 139.5q0 86 59 134t163 52v109q0 38 40 38q19 0 30 -10t11 -28v-151q0 -30 -33 -30h-40q-67 0 -107 -29t-40 -82q0 -55 40.5 -86t112.5 -31
q61 0 134 26q21 7 37 7z" />
    <glyph glyph-name="Agrave" unicode="&#xc0;" horiz-adv-x="660" 
d="M237 839q-24 13 -24 34q0 16 11.5 28.5t27.5 12.5q10 0 24 -7l143 -74q24 -13 24 -34q0 -15 -11.5 -28t-27.5 -13q-11 0 -25 7zM630 57q4 -8 4 -21q0 -15 -12.5 -25.5t-31.5 -10.5q-22 0 -34 25l-76 188h-300l-76 -188q-12 -25 -34 -25q-19 0 -31.5 10.5t-12.5 25.5
q0 13 4 21l245 600q17 43 55 43q39 0 55 -43zM210 289h240l-120 297z" />
    <glyph glyph-name="Aacute" unicode="&#xc1;" horiz-adv-x="660" 
d="M257 758q-16 0 -27.5 13t-11.5 28q0 21 24 34l143 74q14 7 24 7q16 0 27.5 -12.5t11.5 -28.5q0 -21 -24 -34l-142 -74q-14 -7 -25 -7zM630 57q4 -8 4 -21q0 -15 -12.5 -25.5t-31.5 -10.5q-22 0 -34 25l-76 188h-300l-76 -188q-12 -25 -34 -25q-19 0 -31.5 10.5
t-12.5 25.5q0 13 4 21l245 600q17 43 55 43q39 0 55 -43zM210 289h240l-120 297z" />
    <glyph glyph-name="Acircumflex" unicode="&#xc2;" horiz-adv-x="660" 
d="M214 764q-15 0 -26.5 10.5t-11.5 26.5q0 19 23 34l105 67q10 6 26 6t26 -6l106 -67q22 -15 22 -34q0 -16 -11 -26.5t-27 -10.5q-11 0 -24 9l-92 63l-91 -63q-14 -9 -25 -9zM630 57q4 -8 4 -21q0 -15 -12.5 -25.5t-31.5 -10.5q-22 0 -34 25l-76 188h-300l-76 -188
q-12 -25 -34 -25q-19 0 -31.5 10.5t-12.5 25.5q0 13 4 21l245 600q17 43 55 43q39 0 55 -43zM210 289h240l-120 297z" />
    <glyph glyph-name="Atilde" unicode="&#xc3;" horiz-adv-x="660" 
d="M210 760q-30 0 -30 29v36q0 35 22 57.5t59 22.5q44 0 86 -46q20 -21 28.5 -27t18.5 -6q11 0 18 8t7 21v19q0 28 30 28t30 -28v-36q0 -35 -22.5 -57.5t-58.5 -22.5q-46 0 -87 45q-19 22 -27.5 28t-18.5 6q-25 0 -25 -29v-19q0 -29 -30 -29zM630 57q4 -8 4 -21
q0 -15 -12.5 -25.5t-31.5 -10.5q-22 0 -34 25l-76 188h-300l-76 -188q-12 -25 -34 -25q-19 0 -31.5 10.5t-12.5 25.5q0 13 4 21l245 600q17 43 55 43q39 0 55 -43zM210 289h240l-120 297z" />
    <glyph glyph-name="Adieresis" unicode="&#xc4;" horiz-adv-x="660" 
d="M233 764q-53 0 -53 49t53 49t53 -48q0 -50 -53 -50zM437 764q-53 0 -53 49t53 49t53 -48q0 -50 -53 -50zM630 57q4 -8 4 -21q0 -15 -12.5 -25.5t-31.5 -10.5q-22 0 -34 25l-76 188h-300l-76 -188q-12 -25 -34 -25q-19 0 -31.5 10.5t-12.5 25.5q0 13 4 21l245 600
q17 43 55 43q39 0 55 -43zM210 289h240l-120 297z" />
    <glyph glyph-name="Aring" unicode="&#xc5;" horiz-adv-x="660" 
d="M330 739q-47 0 -76 26t-29 68q0 41 29 67t76 26q46 0 75 -26t29 -67q0 -42 -29 -68t-75 -26zM330 876q-22 0 -35 -12t-13 -31q0 -20 13 -32t35 -12q21 0 34 12t13 32q0 19 -13 31t-34 12zM630 57q4 -8 4 -21q0 -15 -12.5 -25.5t-31.5 -10.5q-22 0 -34 25l-76 188h-300
l-76 -188q-12 -25 -34 -25q-19 0 -31.5 10.5t-12.5 25.5q0 13 4 21l245 600q17 43 55 43q39 0 55 -43zM210 289h240l-120 297z" />
    <glyph glyph-name="AE" unicode="&#xc6;" horiz-adv-x="916" 
d="M831 76q38 0 38 -38t-38 -38h-356q-41 0 -41 38v186h-249l-81 -199q-12 -25 -34 -25q-19 0 -31.5 10.5t-12.5 25.5q0 13 4 21l245 600q17 43 55 43h501q38 0 38 -38t-38 -38h-316v-221h257q38 0 38 -38t-38 -38h-257v-251h316zM216 299h218v325h-85z" />
    <glyph glyph-name="Ccedilla" unicode="&#xc7;" horiz-adv-x="654" 
d="M406 -10q-159 0 -245.5 93.5t-86.5 266.5t86.5 266.5t245.5 93.5q96 0 167 -32q19 -11 19 -33q0 -33 -33 -33q-9 0 -28 4q-68 18 -124 18q-123 0 -187.5 -71.5t-64.5 -212.5t64.5 -212.5t187.5 -71.5q57 0 124 18q19 4 28 4q33 0 33 -33q0 -22 -19 -33q-71 -32 -167 -32z
M384 -38q52 0 82.5 -27.5t30.5 -73.5t-30.5 -73.5t-82.5 -27.5q-35 0 -57.5 11t-22.5 29q0 24 26 24q3 0 17 -4t31 -4q53 0 53 45q0 46 -53 46q-17 0 -31 -4.5t-17 -4.5q-26 0 -26 25q0 18 22 28.5t58 10.5z" />
    <glyph glyph-name="Egrave" unicode="&#xc8;" horiz-adv-x="576" 
d="M217 839q-24 13 -24 34q0 16 11.5 28.5t27.5 12.5q10 0 24 -7l143 -74q24 -13 24 -34q0 -15 -11.5 -28t-27.5 -13q-11 0 -25 7zM491 76q38 0 38 -38t-38 -38h-356q-41 0 -41 38v624q0 38 41 38h356q38 0 38 -38t-38 -38h-316v-221h257q38 0 38 -38t-38 -38h-257v-251h316
z" />
    <glyph glyph-name="Eacute" unicode="&#xc9;" horiz-adv-x="576" 
d="M237 758q-16 0 -27.5 13t-11.5 28q0 21 24 34l143 74q14 7 24 7q16 0 27.5 -12.5t11.5 -28.5q0 -21 -24 -34l-142 -74q-14 -7 -25 -7zM491 76q38 0 38 -38t-38 -38h-356q-41 0 -41 38v624q0 38 41 38h356q38 0 38 -38t-38 -38h-316v-221h257q38 0 38 -38t-38 -38h-257
v-251h316z" />
    <glyph glyph-name="Ecircumflex" unicode="&#xca;" horiz-adv-x="576" 
d="M194 764q-15 0 -26.5 10.5t-11.5 26.5q0 19 23 34l105 67q10 6 26 6t26 -6l106 -67q22 -15 22 -34q0 -16 -11 -26.5t-27 -10.5q-11 0 -24 9l-92 63l-91 -63q-14 -9 -25 -9zM491 76q38 0 38 -38t-38 -38h-356q-41 0 -41 38v624q0 38 41 38h356q38 0 38 -38t-38 -38h-316
v-221h257q38 0 38 -38t-38 -38h-257v-251h316z" />
    <glyph glyph-name="Edieresis" unicode="&#xcb;" horiz-adv-x="576" 
d="M213 764q-53 0 -53 49t53 49t53 -48q0 -50 -53 -50zM417 764q-53 0 -53 49t53 49t53 -48q0 -50 -53 -50zM491 76q38 0 38 -38t-38 -38h-356q-41 0 -41 38v624q0 38 41 38h356q38 0 38 -38t-38 -38h-316v-221h257q38 0 38 -38t-38 -38h-257v-251h316z" />
    <glyph glyph-name="Igrave" unicode="&#xcc;" horiz-adv-x="269" 
d="M209 758q-11 0 -25 7l-142 74q-24 13 -24 34q0 16 11.5 28.5t27.5 12.5q10 0 24 -7l143 -74q24 -13 24 -34q0 -15 -11.5 -28t-27.5 -13zM135 0q-41 0 -41 38v624q0 38 41 38q40 0 40 -38v-624q0 -38 -40 -38z" />
    <glyph glyph-name="Iacute" unicode="&#xcd;" horiz-adv-x="269" 
d="M62 758q-16 0 -27.5 13t-11.5 28q0 21 24 34l143 74q14 7 24 7q16 0 27.5 -12.5t11.5 -28.5q0 -21 -24 -34l-142 -74q-14 -7 -25 -7zM135 0q-41 0 -41 38v624q0 38 41 38q40 0 40 -38v-624q0 -38 -40 -38z" />
    <glyph glyph-name="Icircumflex" unicode="&#xce;" horiz-adv-x="269" 
d="M267 835q22 -15 22 -34q0 -16 -11 -26.5t-27 -10.5q-11 0 -24 9l-92 63l-91 -63q-14 -9 -25 -9q-15 0 -26.5 10.5t-11.5 26.5q0 19 23 34l105 67q10 6 26 6q15 0 26 -6zM135 700q40 0 40 -38v-624q0 -38 -40 -38q-41 0 -41 38v624q0 38 41 38z" />
    <glyph glyph-name="Idieresis" unicode="&#xcf;" horiz-adv-x="269" 
d="M38 764q-53 0 -53 49t53 49t53 -48q0 -50 -53 -50zM242 764q-53 0 -53 49t53 49t53 -48q0 -50 -53 -50zM135 0q-41 0 -41 38v624q0 38 41 38q40 0 40 -38v-624q0 -38 -40 -38z" />
    <glyph glyph-name="Eth" unicode="&#xd0;" horiz-adv-x="727" 
d="M343 700q148 0 229 -92t81 -258t-81 -258t-229 -92h-208q-41 0 -41 38v283h-75q-36 0 -36 36q0 35 36 35h75v270q0 38 41 38h208zM346 76q226 0 226 274t-226 274h-171v-232h134q37 0 37 -35q0 -36 -37 -36h-134v-245h171z" />
    <glyph glyph-name="Ntilde" unicode="&#xd1;" horiz-adv-x="724" 
d="M242 760q-30 0 -30 29v36q0 35 22 57.5t59 22.5q44 0 86 -46q20 -21 28.5 -27t18.5 -6q11 0 18 8t7 21v19q0 28 30 28t30 -28v-36q0 -35 -22.5 -57.5t-58.5 -22.5q-46 0 -87 45q-19 22 -27.5 28t-18.5 6q-25 0 -25 -29v-19q0 -29 -30 -29zM591 700q40 0 40 -38v-624
q0 -38 -40 -38q-29 0 -46 24l-372 523v-509q0 -38 -40 -38q-41 0 -41 38v624q0 38 41 38q29 0 46 -24l372 -523v509q0 38 40 38z" />
    <glyph glyph-name="Ograve" unicode="&#xd2;" horiz-adv-x="766" 
d="M457 758q-11 0 -25 7l-142 74q-24 13 -24 34q0 16 11.5 28.5t27.5 12.5q10 0 24 -7l143 -74q24 -13 24 -34q0 -15 -11.5 -28t-27.5 -13zM383 -10q-147 0 -228 94t-81 266t81 266t228 94t228 -94t81 -266t-81 -266t-228 -94zM383 66q229 0 229 284t-229 284
q-228 0 -228 -284t228 -284z" />
    <glyph glyph-name="Oacute" unicode="&#xd3;" horiz-adv-x="766" 
d="M310 758q-16 0 -27.5 13t-11.5 28q0 21 24 34l143 74q14 7 24 7q16 0 27.5 -12.5t11.5 -28.5q0 -21 -24 -34l-142 -74q-14 -7 -25 -7zM383 -10q-147 0 -228 94t-81 266t81 266t228 94t228 -94t81 -266t-81 -266t-228 -94zM383 66q229 0 229 284t-229 284
q-228 0 -228 -284t228 -284z" />
    <glyph glyph-name="Ocircumflex" unicode="&#xd4;" horiz-adv-x="766" 
d="M267 764q-15 0 -26.5 10.5t-11.5 26.5q0 19 23 34l105 67q10 6 26 6q15 0 26 -6l106 -67q22 -15 22 -34q0 -16 -11 -26.5t-27 -10.5q-11 0 -24 9l-92 63l-91 -63q-14 -9 -25 -9zM383 710q147 0 228 -94t81 -266t-81 -266t-228 -94t-228 94t-81 266t81 266t228 94zM383 66
q229 0 229 284t-229 284q-228 0 -228 -284t228 -284z" />
    <glyph glyph-name="Otilde" unicode="&#xd5;" horiz-adv-x="766" 
d="M451 758q-46 0 -87 45q-19 22 -27.5 28t-18.5 6q-25 0 -25 -29v-19q0 -29 -30 -29t-30 29v36q0 35 22.5 57.5t58.5 22.5q44 0 86 -46q20 -21 28.5 -27t18.5 -6q11 0 18 8t7 21v19q0 28 30 28t30 -28v-36q0 -35 -22.5 -57.5t-58.5 -22.5zM383 -10q-147 0 -228 94t-81 266
t81 266t228 94t228 -94t81 -266t-81 -266t-228 -94zM383 66q229 0 229 284t-229 284q-228 0 -228 -284t228 -284z" />
    <glyph glyph-name="Odieresis" unicode="&#xd6;" horiz-adv-x="766" 
d="M286 764q-53 0 -53 49t53 49t53 -48q0 -50 -53 -50zM490 764q-53 0 -53 49t53 49t53 -48q0 -50 -53 -50zM383 -10q-147 0 -228 94t-81 266t81 266t228 94t228 -94t81 -266t-81 -266t-228 -94zM383 66q229 0 229 284t-229 284q-228 0 -228 -284t228 -284z" />
    <glyph glyph-name="multiply" unicode="&#xd7;" horiz-adv-x="543" 
d="M326 286l110 -111q12 -12 12 -28q0 -14 -12.5 -26.5t-26.5 -12.5t-27 13l-110 111l-111 -111q-14 -13 -27 -13q-14 0 -27 12.5t-13 26.5q0 15 13 28l111 111l-111 110q-13 14 -13 27q0 14 13 27t27 13q13 0 27 -13l111 -110l110 110q13 13 27 13t26.5 -13t12.5 -27
t-12 -27z" />
    <glyph glyph-name="Oslash" unicode="&#xd8;" horiz-adv-x="766" 
d="M632 587q60 -91 60 -237q0 -172 -81 -266t-228 -94q-119 0 -197 64l-32 -39q-14 -15 -30 -15q-18 0 -30.5 11t-12.5 27t10 27l41 50q-58 90 -58 235q0 172 81 266t228 94q119 0 195 -62l31 37q13 15 30 15q18 0 30.5 -11t12.5 -27t-10 -27zM155 350q0 -103 31 -171
l343 410q-55 45 -146 45q-228 0 -228 -284zM383 66q229 0 229 284q0 106 -33 174l-343 -411q56 -47 147 -47z" />
    <glyph glyph-name="Ugrave" unicode="&#xd9;" horiz-adv-x="722" 
d="M433 758q-11 0 -25 7l-142 74q-24 13 -24 34q0 16 11.5 28.5t27.5 12.5q10 0 24 -7l143 -74q24 -13 24 -34q0 -15 -11.5 -28t-27.5 -13zM587 700q19 0 30 -10t11 -28v-388q0 -133 -71 -208.5t-196 -75.5t-196 75.5t-71 208.5v388q0 38 41 38q40 0 40 -38v-390
q0 -206 186 -206t186 206v390q0 38 40 38z" />
    <glyph glyph-name="Uacute" unicode="&#xda;" horiz-adv-x="722" 
d="M286 758q-16 0 -27.5 13t-11.5 28q0 21 24 34l143 74q14 7 24 7q16 0 27.5 -12.5t11.5 -28.5q0 -21 -24 -34l-142 -74q-14 -7 -25 -7zM587 700q19 0 30 -10t11 -28v-388q0 -133 -71 -208.5t-196 -75.5t-196 75.5t-71 208.5v388q0 38 41 38q40 0 40 -38v-390
q0 -206 186 -206t186 206v390q0 38 40 38z" />
    <glyph glyph-name="Ucircumflex" unicode="&#xdb;" horiz-adv-x="722" 
d="M243 764q-15 0 -26.5 10.5t-11.5 26.5q0 19 23 34l105 67q10 6 26 6q15 0 26 -6l106 -67q22 -15 22 -34q0 -16 -11 -26.5t-27 -10.5q-11 0 -24 9l-92 63l-91 -63q-14 -9 -25 -9zM587 700q19 0 30 -10t11 -28v-388q0 -133 -71 -208.5t-196 -75.5t-196 75.5t-71 208.5v388
q0 38 41 38q40 0 40 -38v-390q0 -206 186 -206t186 206v390q0 38 40 38z" />
    <glyph glyph-name="Udieresis" unicode="&#xdc;" horiz-adv-x="722" 
d="M262 764q-53 0 -53 49t53 49t53 -48q0 -50 -53 -50zM466 764q-53 0 -53 49t53 49t53 -48q0 -50 -53 -50zM587 700q19 0 30 -10t11 -28v-388q0 -133 -71 -208.5t-196 -75.5t-196 75.5t-71 208.5v388q0 38 41 38q40 0 40 -38v-390q0 -206 186 -206t186 206v390q0 38 40 38z
" />
    <glyph glyph-name="Yacute" unicode="&#xdd;" horiz-adv-x="639" 
d="M247 758q-16 0 -27.5 13t-11.5 28q0 21 24 34l143 74q14 7 24 7q16 0 27.5 -12.5t11.5 -28.5q0 -21 -24 -34l-142 -74q-14 -7 -25 -7zM613 660q0 -13 -9 -25l-244 -308v-289q0 -38 -40 -38q-41 0 -41 38v290l-243 307q-10 11 -10 25q0 16 13.5 28t29.5 12q17 0 29 -15
l222 -279l222 279q12 15 28 15t29.5 -11.5t13.5 -28.5z" />
    <glyph glyph-name="Thorn" unicode="&#xde;" horiz-adv-x="664" 
d="M343 580q121 0 184 -54t63 -158t-63 -158.5t-184 -54.5h-168v-117q0 -38 -40 -38q-41 0 -41 38v624q0 38 41 38q40 0 40 -38v-82h168zM348 231q161 0 161 137t-161 137h-173v-274h173z" />
    <glyph glyph-name="germandbls" unicode="&#xdf;" horiz-adv-x="625" 
d="M458 372q120 -44 120 -178q0 -97 -55.5 -150.5t-156.5 -53.5q-63 0 -118 23q-30 12 -30 40q0 15 8.5 24t22.5 9q7 0 22 -5q46 -17 91 -17q67 0 102 34.5t35 99.5q0 62 -40.5 95.5t-114.5 33.5h-48q-34 0 -34 38q0 36 34 36h30q137 0 137 119q0 58 -39.5 94.5t-102.5 36.5
q-74 0 -115 -43t-41 -122v-447q0 -18 -10.5 -28.5t-28.5 -10.5q-19 0 -29.5 10.5t-10.5 28.5v447q0 112 62.5 175.5t172.5 63.5q97 0 159 -55.5t62 -143.5q0 -111 -84 -154z" />
    <glyph glyph-name="agrave" unicode="&#xe0;" horiz-adv-x="566" 
d="M172 671q-24 13 -24 34q0 16 11.5 28.5t27.5 12.5q10 0 24 -7l143 -74q24 -13 24 -34q0 -15 -11.5 -28t-27.5 -13q-11 0 -25 7zM254 514q121 0 176 -57.5t55 -183.5v-234q0 -18 -10.5 -28.5t-29.5 -10.5q-18 0 -28.5 10.5t-10.5 28.5v65q-21 -55 -67.5 -84.5
t-109.5 -29.5q-79 0 -127 43.5t-48 116.5q0 151 189 151q73 0 163 -20q-2 89 -36 125t-118 36q-52 0 -103 -17q-17 -5 -26 -5q-33 0 -33 33q0 23 29 36q51 25 135 25zM248 59q75 0 116.5 43t41.5 121v5q-92 17 -152 17q-121 0 -121 -90q0 -42 32 -69t83 -27z" />
    <glyph glyph-name="aacute" unicode="&#xe1;" horiz-adv-x="566" 
d="M191 590q-16 0 -27.5 13t-11.5 28q0 21 24 34l143 74q14 7 24 7q16 0 27.5 -12.5t11.5 -28.5q0 -21 -24 -34l-142 -74q-14 -7 -25 -7zM254 514q121 0 176 -57.5t55 -183.5v-234q0 -18 -10.5 -28.5t-29.5 -10.5q-18 0 -28.5 10.5t-10.5 28.5v65q-21 -55 -67.5 -84.5
t-109.5 -29.5q-79 0 -127 43.5t-48 116.5q0 151 189 151q73 0 163 -20q-2 89 -36 125t-118 36q-52 0 -103 -17q-17 -5 -26 -5q-33 0 -33 33q0 23 29 36q51 25 135 25zM248 59q75 0 116.5 43t41.5 121v5q-92 17 -152 17q-121 0 -121 -90q0 -42 32 -69t83 -27z" />
    <glyph glyph-name="acircumflex" unicode="&#xe2;" horiz-adv-x="566" 
d="M149 596q-15 0 -26.5 10.5t-11.5 26.5q0 19 23 34l105 67q10 6 26 6q15 0 26 -6l106 -67q22 -15 22 -34q0 -16 -11 -26.5t-27 -10.5q-11 0 -24 9l-92 63l-91 -63q-14 -9 -25 -9zM254 514q121 0 176 -57.5t55 -183.5v-234q0 -18 -10.5 -28.5t-29.5 -10.5q-18 0 -28.5 10.5
t-10.5 28.5v65q-21 -55 -67.5 -84.5t-109.5 -29.5q-79 0 -127 43.5t-48 116.5q0 151 189 151q73 0 163 -20q-2 89 -36 125t-118 36q-52 0 -103 -17q-17 -5 -26 -5q-33 0 -33 33q0 23 29 36q51 25 135 25zM248 59q75 0 116.5 43t41.5 121v5q-92 17 -152 17q-121 0 -121 -90
q0 -42 32 -69t83 -27z" />
    <glyph glyph-name="atilde" unicode="&#xe3;" horiz-adv-x="566" 
d="M145 592q-30 0 -30 29v36q0 35 22.5 57.5t58.5 22.5q44 0 86 -46q20 -21 28.5 -27t18.5 -6q11 0 18 8t7 21v19q0 28 30 28t30 -28v-36q0 -35 -22.5 -57.5t-58.5 -22.5q-46 0 -87 45q-19 22 -27.5 28t-18.5 6q-25 0 -25 -29v-19q0 -29 -30 -29zM254 514q121 0 176 -57.5
t55 -183.5v-234q0 -18 -10.5 -28.5t-29.5 -10.5q-18 0 -28.5 10.5t-10.5 28.5v65q-21 -55 -67.5 -84.5t-109.5 -29.5q-79 0 -127 43.5t-48 116.5q0 151 189 151q73 0 163 -20q-2 89 -36 125t-118 36q-52 0 -103 -17q-17 -5 -26 -5q-33 0 -33 33q0 23 29 36q51 25 135 25z
M248 59q75 0 116.5 43t41.5 121v5q-92 17 -152 17q-121 0 -121 -90q0 -42 32 -69t83 -27z" />
    <glyph glyph-name="adieresis" unicode="&#xe4;" horiz-adv-x="566" 
d="M163 614q-53 0 -53 49t53 49t53 -48q0 -50 -53 -50zM367 614q-53 0 -53 49t53 49t53 -48q0 -50 -53 -50zM254 514q121 0 176 -57.5t55 -183.5v-234q0 -18 -10.5 -28.5t-29.5 -10.5q-18 0 -28.5 10.5t-10.5 28.5v65q-21 -55 -67.5 -84.5t-109.5 -29.5q-79 0 -127 43.5
t-48 116.5q0 151 189 151q73 0 163 -20q-2 89 -36 125t-118 36q-52 0 -103 -17q-17 -5 -26 -5q-33 0 -33 33q0 23 29 36q51 25 135 25zM248 59q75 0 116.5 43t41.5 121v5q-92 17 -152 17q-121 0 -121 -90q0 -42 32 -69t83 -27z" />
    <glyph glyph-name="aring" unicode="&#xe5;" horiz-adv-x="566" 
d="M265 571q-47 0 -76 26t-29 68q0 41 29 67t76 26q46 0 75 -26t29 -67q0 -42 -29 -68t-75 -26zM265 708q-22 0 -35 -12t-13 -31q0 -20 13 -32t35 -12q21 0 34 12t13 32q0 19 -13 31t-34 12zM254 514q121 0 176 -57.5t55 -183.5v-234q0 -18 -10.5 -28.5t-29.5 -10.5
q-18 0 -28.5 10.5t-10.5 28.5v65q-21 -55 -67.5 -84.5t-109.5 -29.5q-79 0 -127 43.5t-48 116.5q0 151 189 151q73 0 163 -20q-2 89 -36 125t-118 36q-52 0 -103 -17q-17 -5 -26 -5q-33 0 -33 33q0 23 29 36q51 25 135 25zM248 59q75 0 116.5 43t41.5 121v5q-92 17 -152 17
q-121 0 -121 -90q0 -42 32 -69t83 -27z" />
    <glyph glyph-name="ae" unicode="&#xe6;" horiz-adv-x="930" 
d="M869 282q0 -26 -12 -37.5t-39 -11.5h-332q5 -87 51 -129t137 -42q54 0 103 17q19 4 26 4q15 0 23.5 -9t8.5 -23q0 -24 -28 -36q-59 -25 -136 -25q-177 0 -239 130q-23 -62 -73.5 -96t-122.5 -34q-82 0 -132 43.5t-50 116.5q0 151 189 151q73 0 163 -20q-2 87 -36.5 123
t-117.5 36q-52 0 -103 -17q-17 -5 -26 -5q-33 0 -33 35q0 23 29 36q51 25 135 25q149 0 200 -90q64 90 192 90q104 0 163.5 -62t59.5 -170zM782 289q8 0 8 7q0 69 -39 109t-105 40q-69 0 -110.5 -40t-48.5 -116h295zM248 59q75 0 116.5 43t41.5 121v5q-92 17 -152 17
q-121 0 -121 -90q0 -42 32 -69t83 -27z" />
    <glyph glyph-name="ccedilla" unicode="&#xe7;" horiz-adv-x="534" 
d="M309 -10q-116 0 -181 69t-65 193t65 193t181 69q81 0 135 -25q29 -13 29 -36q0 -35 -33 -35q-9 0 -25 5q-51 17 -104 17q-80 0 -124.5 -49t-44.5 -139t44.5 -139t124.5 -49q53 0 104 17q16 5 25 5q33 0 33 -35q0 -23 -29 -36q-58 -25 -135 -25zM291 -38q52 0 82.5 -27.5
t30.5 -73.5t-30.5 -73.5t-82.5 -27.5q-35 0 -57.5 11t-22.5 29q0 24 26 24q3 0 17 -4t31 -4q53 0 53 45q0 46 -53 46q-17 0 -31 -4.5t-17 -4.5q-26 0 -26 25q0 18 22 28.5t58 10.5z" />
    <glyph glyph-name="egrave" unicode="&#xe8;" horiz-adv-x="587" 
d="M210 671q-24 13 -24 34q0 16 11.5 28.5t27.5 12.5q10 0 24 -7l143 -74q24 -13 24 -34q0 -15 -11.5 -28t-27.5 -13q-11 0 -25 7zM526 282q0 -26 -12 -37.5t-38 -11.5h-333q5 -87 51 -129t137 -42q53 0 104 17q17 4 25 4q33 0 33 -32q0 -23 -29 -36q-58 -25 -135 -25
q-127 0 -196.5 68.5t-69.5 193.5q0 122 64.5 192t176.5 70q103 0 162.5 -62t59.5 -170zM440 289q7 0 7 7q0 69 -39 109t-104 40q-69 0 -111 -40t-49 -116h296z" />
    <glyph glyph-name="eacute" unicode="&#xe9;" horiz-adv-x="587" 
d="M229 590q-16 0 -27.5 13t-11.5 28q0 21 24 34l143 74q14 7 24 7q16 0 27.5 -12.5t11.5 -28.5q0 -21 -24 -34l-142 -74q-14 -7 -25 -7zM526 282q0 -26 -12 -37.5t-38 -11.5h-333q5 -87 51 -129t137 -42q53 0 104 17q17 4 25 4q33 0 33 -32q0 -23 -29 -36q-58 -25 -135 -25
q-127 0 -196.5 68.5t-69.5 193.5q0 122 64.5 192t176.5 70q103 0 162.5 -62t59.5 -170zM440 289q7 0 7 7q0 69 -39 109t-104 40q-69 0 -111 -40t-49 -116h296z" />
    <glyph glyph-name="ecircumflex" unicode="&#xea;" horiz-adv-x="587" 
d="M187 596q-15 0 -26.5 10.5t-11.5 26.5q0 19 23 34l105 67q10 6 26 6q15 0 26 -6l106 -67q22 -15 22 -34q0 -16 -11 -26.5t-27 -10.5q-11 0 -24 9l-92 63l-91 -63q-14 -9 -25 -9zM526 282q0 -26 -12 -37.5t-38 -11.5h-333q5 -87 51 -129t137 -42q53 0 104 17q17 4 25 4
q33 0 33 -32q0 -23 -29 -36q-58 -25 -135 -25q-127 0 -196.5 68.5t-69.5 193.5q0 122 64.5 192t176.5 70q103 0 162.5 -62t59.5 -170zM440 289q7 0 7 7q0 69 -39 109t-104 40q-69 0 -111 -40t-49 -116h296z" />
    <glyph glyph-name="edieresis" unicode="&#xeb;" horiz-adv-x="587" 
d="M201 614q-53 0 -53 49t53 49t53 -48q0 -50 -53 -50zM405 614q-53 0 -53 49t53 49t53 -48q0 -50 -53 -50zM526 282q0 -26 -12 -37.5t-38 -11.5h-333q5 -87 51 -129t137 -42q53 0 104 17q17 4 25 4q33 0 33 -32q0 -23 -29 -36q-58 -25 -135 -25q-127 0 -196.5 68.5
t-69.5 193.5q0 122 64.5 192t176.5 70q103 0 162.5 -62t59.5 -170zM440 289q7 0 7 7q0 69 -39 109t-104 40q-69 0 -111 -40t-49 -116h296z" />
    <glyph glyph-name="igrave" unicode="&#xec;" horiz-adv-x="251" 
d="M200 590q-11 0 -25 7l-142 74q-24 13 -24 34q0 16 11.5 28.5t27.5 12.5q10 0 24 -7l143 -74q24 -13 24 -34q0 -15 -11.5 -28t-27.5 -13zM126 0q-19 0 -29.5 10.5t-10.5 28.5v426q0 18 10.5 28.5t29.5 10.5q18 0 28.5 -10.5t10.5 -28.5v-426q0 -18 -10.5 -28.5
t-28.5 -10.5z" />
    <glyph glyph-name="iacute" unicode="&#xed;" horiz-adv-x="251" 
d="M52 590q-16 0 -27.5 13t-11.5 28q0 21 24 34l143 74q14 7 24 7q16 0 27.5 -12.5t11.5 -28.5q0 -21 -24 -34l-142 -74q-14 -7 -25 -7zM126 0q-19 0 -29.5 10.5t-10.5 28.5v426q0 18 10.5 28.5t29.5 10.5q18 0 28.5 -10.5t10.5 -28.5v-426q0 -18 -10.5 -28.5t-28.5 -10.5z
" />
    <glyph glyph-name="icircumflex" unicode="&#xee;" horiz-adv-x="251" 
d="M258 667q22 -15 22 -34q0 -16 -11 -26.5t-27 -10.5q-11 0 -24 9l-92 63l-91 -63q-14 -9 -25 -9q-15 0 -26.5 10.5t-11.5 26.5q0 19 23 34l105 67q11 6 26 6q16 0 26 -6zM126 504q18 0 28.5 -10.5t10.5 -28.5v-426q0 -18 -10.5 -28.5t-28.5 -10.5q-19 0 -29.5 10.5
t-10.5 28.5v426q0 18 10.5 28.5t29.5 10.5z" />
    <glyph glyph-name="idieresis" unicode="&#xef;" horiz-adv-x="251" 
d="M24 614q-53 0 -53 49t53 49t53 -48q0 -50 -53 -50zM228 614q-53 0 -53 49t53 49t53 -48q0 -50 -53 -50zM126 0q-19 0 -29.5 10.5t-10.5 28.5v426q0 18 10.5 28.5t29.5 10.5q18 0 28.5 -10.5t10.5 -28.5v-426q0 -18 -10.5 -28.5t-28.5 -10.5z" />
    <glyph glyph-name="eth" unicode="&#xf0;" horiz-adv-x="613" 
d="M379 613q92 -111 131.5 -196t39.5 -172q0 -121 -64.5 -188t-179.5 -67t-179 67t-64 188q0 120 63.5 187.5t175.5 67.5q36 0 71 -11q-39 54 -60 79l-71 -47q-8 -6 -18 -6q-11 0 -19.5 9.5t-8.5 21.5q0 14 13 23l65 44l-33 36q-10 13 -10 27q0 17 11.5 28t30.5 11
q18 0 37 -22l31 -35l61 41q8 6 19 6t19.5 -9.5t8.5 -21.5q0 -13 -14 -23zM306 64q79 0 121.5 47t42.5 134q0 86 -42.5 133t-121.5 47t-121 -46.5t-42 -133.5t42 -134t121 -47z" />
    <glyph glyph-name="ntilde" unicode="&#xf1;" horiz-adv-x="610" 
d="M185 592q-30 0 -30 29v36q0 35 22.5 57.5t58.5 22.5q44 0 86 -46q20 -21 28.5 -27t18.5 -6q11 0 18 8t7 21v19q0 28 30 28t30 -28v-36q0 -35 -22.5 -57.5t-58.5 -22.5q-46 0 -87 45q-19 22 -27.5 28t-18.5 6q-25 0 -25 -29v-19q0 -29 -30 -29zM346 514q90 0 136.5 -58
t46.5 -171v-246q0 -18 -10.5 -28.5t-29.5 -10.5q-18 0 -29 10.5t-11 28.5v244q0 157 -123 157q-76 0 -118.5 -49.5t-42.5 -137.5v-214q0 -18 -10.5 -28.5t-28.5 -10.5q-19 0 -29.5 10.5t-10.5 28.5v426q0 18 10.5 28.5t29.5 10.5q18 0 28.5 -10.5t10.5 -28.5v-68
q23 55 70.5 86t110.5 31z" />
    <glyph glyph-name="ograve" unicode="&#xf2;" horiz-adv-x="612" 
d="M380 590q-11 0 -25 7l-142 74q-24 13 -24 34q0 16 11.5 28.5t27.5 12.5q10 0 24 -7l143 -74q24 -13 24 -34q0 -15 -11.5 -28t-27.5 -13zM306 -10q-116 0 -179.5 68.5t-63.5 193.5t63.5 193.5t179.5 68.5t179.5 -68.5t63.5 -193.5t-63.5 -193.5t-179.5 -68.5zM306 64
q80 0 122 48t42 140t-42 140t-122 48t-122 -48t-42 -140t42 -140t122 -48z" />
    <glyph glyph-name="oacute" unicode="&#xf3;" horiz-adv-x="612" 
d="M232 590q-16 0 -27.5 13t-11.5 28q0 21 24 34l143 74q14 7 24 7q16 0 27.5 -12.5t11.5 -28.5q0 -21 -24 -34l-142 -74q-14 -7 -25 -7zM306 -10q-116 0 -179.5 68.5t-63.5 193.5t63.5 193.5t179.5 68.5t179.5 -68.5t63.5 -193.5t-63.5 -193.5t-179.5 -68.5zM306 64
q80 0 122 48t42 140t-42 140t-122 48t-122 -48t-42 -140t42 -140t122 -48z" />
    <glyph glyph-name="ocircumflex" unicode="&#xf4;" horiz-adv-x="612" 
d="M190 596q-15 0 -26.5 10.5t-11.5 26.5q0 19 23 34l105 67q10 6 26 6t26 -6l106 -67q22 -15 22 -34q0 -16 -11 -26.5t-27 -10.5q-11 0 -24 9l-92 63l-91 -63q-14 -9 -25 -9zM306 514q116 0 179.5 -68.5t63.5 -193.5t-63.5 -193.5t-179.5 -68.5t-179.5 68.5t-63.5 193.5
t63.5 193.5t179.5 68.5zM306 64q80 0 122 48t42 140t-42 140t-122 48t-122 -48t-42 -140t42 -140t122 -48z" />
    <glyph glyph-name="otilde" unicode="&#xf5;" horiz-adv-x="612" 
d="M374 590q-46 0 -87 45q-19 22 -27.5 28t-18.5 6q-25 0 -25 -29v-19q0 -29 -30 -29t-30 29v36q0 35 22 57.5t59 22.5q44 0 86 -46q20 -21 28.5 -27t18.5 -6q11 0 18 8t7 21v19q0 28 30 28t30 -28v-36q0 -35 -22.5 -57.5t-58.5 -22.5zM306 -10q-116 0 -179.5 68.5
t-63.5 193.5t63.5 193.5t179.5 68.5t179.5 -68.5t63.5 -193.5t-63.5 -193.5t-179.5 -68.5zM306 64q80 0 122 48t42 140t-42 140t-122 48t-122 -48t-42 -140t42 -140t122 -48z" />
    <glyph glyph-name="odieresis" unicode="&#xf6;" horiz-adv-x="612" 
d="M204 614q-53 0 -53 49t53 49t53 -48q0 -50 -53 -50zM408 614q-53 0 -53 49t53 49t53 -48q0 -50 -53 -50zM306 -10q-116 0 -179.5 68.5t-63.5 193.5t63.5 193.5t179.5 68.5t179.5 -68.5t63.5 -193.5t-63.5 -193.5t-179.5 -68.5zM306 64q80 0 122 48t42 140t-42 140
t-122 48t-122 -48t-42 -140t42 -140t122 -48z" />
    <glyph glyph-name="divide" unicode="&#xf7;" horiz-adv-x="593" 
d="M297 394q-58 0 -58 48q0 49 58 49q57 0 57 -49q0 -48 -57 -48zM132 249q-38 0 -38 38q0 37 38 37h329q38 0 38 -37q0 -38 -38 -38h-329zM297 82q-58 0 -58 48q0 49 58 49q57 0 57 -49q0 -48 -57 -48z" />
    <glyph glyph-name="oslash" unicode="&#xf8;" horiz-adv-x="612" 
d="M561 468q0 -15 -11 -26l-36 -36q35 -61 35 -154q0 -125 -63.5 -193.5t-179.5 -68.5q-99 0 -161 51l-28 -28q-14 -13 -28 -13q-16 0 -27 10.5t-11 25.5q0 14 12 26l35 35q-35 62 -35 155q0 125 63.5 193.5t179.5 68.5q99 0 161 -51l28 28q16 13 28 13q16 0 27 -10.5
t11 -25.5zM142 252q0 -57 16 -96l253 252q-40 32 -105 32q-80 0 -122 -48t-42 -140zM470 252q0 57 -16 95l-253 -251q40 -32 105 -32q80 0 122 48t42 140z" />
    <glyph glyph-name="ugrave" unicode="&#xf9;" horiz-adv-x="601" 
d="M374 590q-11 0 -25 7l-142 74q-24 13 -24 34q0 16 11.5 28.5t27.5 12.5q10 0 24 -7l143 -74q24 -13 24 -34q0 -15 -11.5 -28t-27.5 -13zM480 504q19 0 29.5 -10.5t10.5 -28.5v-240q0 -114 -57 -174.5t-163 -60.5q-105 0 -162 60.5t-57 174.5v240q0 18 10.5 28.5
t29.5 10.5q18 0 28.5 -10.5t10.5 -28.5v-240q0 -79 36 -120t104 -41q140 0 140 161v240q0 18 11 28.5t29 10.5z" />
    <glyph glyph-name="uacute" unicode="&#xfa;" horiz-adv-x="601" 
d="M226 590q-16 0 -27.5 13t-11.5 28q0 21 24 34l143 74q14 7 24 7q16 0 27.5 -12.5t11.5 -28.5q0 -21 -24 -34l-142 -74q-14 -7 -25 -7zM480 504q19 0 29.5 -10.5t10.5 -28.5v-240q0 -114 -57 -174.5t-163 -60.5q-105 0 -162 60.5t-57 174.5v240q0 18 10.5 28.5t29.5 10.5
q18 0 28.5 -10.5t10.5 -28.5v-240q0 -79 36 -120t104 -41q140 0 140 161v240q0 18 11 28.5t29 10.5z" />
    <glyph glyph-name="ucircumflex" unicode="&#xfb;" horiz-adv-x="601" 
d="M184 596q-15 0 -26.5 10.5t-11.5 26.5q0 19 23 34l105 67q10 6 26 6t26 -6l106 -67q22 -15 22 -34q0 -16 -11 -26.5t-27 -10.5q-11 0 -24 9l-92 63l-91 -63q-14 -9 -25 -9zM480 504q19 0 29.5 -10.5t10.5 -28.5v-240q0 -114 -57 -174.5t-163 -60.5q-105 0 -162 60.5
t-57 174.5v240q0 18 10.5 28.5t29.5 10.5q18 0 28.5 -10.5t10.5 -28.5v-240q0 -79 36 -120t104 -41q140 0 140 161v240q0 18 11 28.5t29 10.5z" />
    <glyph glyph-name="udieresis" unicode="&#xfc;" horiz-adv-x="601" 
d="M198 614q-53 0 -53 49t53 49t53 -48q0 -50 -53 -50zM402 614q-53 0 -53 49t53 49t53 -48q0 -50 -53 -50zM480 504q19 0 29.5 -10.5t10.5 -28.5v-240q0 -114 -57 -174.5t-163 -60.5q-105 0 -162 60.5t-57 174.5v240q0 18 10.5 28.5t29.5 10.5q18 0 28.5 -10.5t10.5 -28.5
v-240q0 -79 36 -120t104 -41q140 0 140 161v240q0 18 11 28.5t29 10.5z" />
    <glyph glyph-name="yacute" unicode="&#xfd;" horiz-adv-x="524" 
d="M188 590q-16 0 -27.5 13t-11.5 28q0 21 24 34l143 74q14 7 24 7q16 0 27.5 -12.5t11.5 -28.5q0 -21 -24 -34l-142 -74q-14 -7 -25 -7zM462 504q16 0 28.5 -11t12.5 -26q0 -8 -5 -21l-305 -622q-11 -24 -33 -24q-16 0 -29 11t-13 26q0 9 6 21l95 194l-193 394q-5 13 -5 21
q0 16 12.5 26.5t28.5 10.5q24 0 34 -24l167 -338l165 338q10 24 34 24z" />
    <glyph glyph-name="thorn" unicode="&#xfe;" horiz-adv-x="630" 
d="M345 514q106 0 164 -68.5t58 -193.5t-58 -193.5t-164 -68.5q-65 0 -111.5 30t-68.5 85v-266q0 -18 -10.5 -28.5t-28.5 -10.5q-19 0 -29.5 10.5t-10.5 28.5v837q0 18 10.5 28.5t29.5 10.5q18 0 28.5 -10.5t10.5 -28.5v-277q22 55 68.5 85t111.5 30zM327 64q79 0 120 48
t41 140t-41 140t-120 48t-120.5 -48t-41.5 -140t41.5 -140t120.5 -48z" />
    <glyph glyph-name="ydieresis" unicode="&#xff;" horiz-adv-x="524" 
d="M160 614q-53 0 -53 49t53 49t53 -48q0 -50 -53 -50zM364 614q-53 0 -53 49t53 49t53 -48q0 -50 -53 -50zM462 504q16 0 28.5 -11t12.5 -26q0 -8 -5 -21l-305 -622q-11 -24 -33 -24q-16 0 -29 11t-13 26q0 9 6 21l95 194l-193 394q-5 13 -5 21q0 16 12.5 26.5t28.5 10.5
q24 0 34 -24l167 -338l165 338q10 24 34 24z" />
    <glyph glyph-name="Amacron" unicode="&#x100;" horiz-adv-x="660" 
d="M228 788q-42 0 -42 39t42 39h202q42 0 42 -39t-42 -39h-202zM630 57q4 -8 4 -21q0 -15 -12.5 -25.5t-31.5 -10.5q-22 0 -34 25l-76 188h-300l-76 -188q-12 -25 -34 -25q-19 0 -31.5 10.5t-12.5 25.5q0 13 4 21l245 600q17 43 55 43q39 0 55 -43zM210 289h240l-120 297z
" />
    <glyph glyph-name="amacron" unicode="&#x101;" horiz-adv-x="566" 
d="M163 617q-42 0 -42 39t42 39h202q42 0 42 -39t-42 -39h-202zM254 514q121 0 176 -57.5t55 -183.5v-234q0 -18 -10.5 -28.5t-29.5 -10.5q-18 0 -28.5 10.5t-10.5 28.5v65q-21 -55 -67.5 -84.5t-109.5 -29.5q-79 0 -127 43.5t-48 116.5q0 151 189 151q73 0 163 -20
q-2 89 -36 125t-118 36q-52 0 -103 -17q-17 -5 -26 -5q-33 0 -33 33q0 23 29 36q51 25 135 25zM248 59q75 0 116.5 43t41.5 121v5q-92 17 -152 17q-121 0 -121 -90q0 -42 32 -69t83 -27z" />
    <glyph glyph-name="Abreve" unicode="&#x102;" horiz-adv-x="660" 
d="M330 755q-67 0 -106 34t-39 92v4q0 37 40 37q35 0 35 -35v-4q0 -60 70 -60q69 0 69 60v4q0 35 36 35q39 0 39 -37v-4q0 -58 -38.5 -92t-105.5 -34zM630 57q4 -8 4 -21q0 -15 -12.5 -25.5t-31.5 -10.5q-22 0 -34 25l-76 188h-300l-76 -188q-12 -25 -34 -25
q-19 0 -31.5 10.5t-12.5 25.5q0 13 4 21l245 600q17 43 55 43q39 0 55 -43zM210 289h240l-120 297z" />
    <glyph glyph-name="abreve" unicode="&#x103;" horiz-adv-x="566" 
d="M265 587q-67 0 -106 34t-39 92v4q0 37 40 37q35 0 35 -35v-4q0 -60 70 -60q69 0 69 60v4q0 35 36 35q39 0 39 -37v-4q0 -58 -38.5 -92t-105.5 -34zM254 514q121 0 176 -57.5t55 -183.5v-234q0 -18 -10.5 -28.5t-29.5 -10.5q-18 0 -28.5 10.5t-10.5 28.5v65
q-21 -55 -67.5 -84.5t-109.5 -29.5q-79 0 -127 43.5t-48 116.5q0 151 189 151q73 0 163 -20q-2 89 -36 125t-118 36q-52 0 -103 -17q-17 -5 -26 -5q-33 0 -33 33q0 23 29 36q51 25 135 25zM248 59q75 0 116.5 43t41.5 121v5q-92 17 -152 17q-121 0 -121 -90q0 -42 32 -69
t83 -27z" />
    <glyph glyph-name="Aogonek" unicode="&#x104;" horiz-adv-x="660" 
d="M632 -143q11 0 18.5 -7.5t7.5 -20.5q0 -17 -22.5 -28t-57.5 -11q-52 0 -82.5 26t-30.5 70q0 58 90 142l-74 185h-301l-76 -188q-12 -25 -34 -25q-19 0 -31.5 10.5t-12.5 25.5q0 13 4 21l245 600q17 43 55 43q39 0 55 -43l245 -600q4 -8 4 -21q0 -19 -20 -31
q-83 -63 -83 -111q0 -45 53 -45q17 0 31 4t17 4zM211 289h239l-120 296z" />
    <glyph glyph-name="aogonek" unicode="&#x105;" horiz-adv-x="566" 
d="M490 -143q12 0 19.5 -7.5t7.5 -20.5q0 -17 -23 -28t-58 -11q-51 0 -81.5 26t-30.5 70q0 62 83 142q-1 4 -1 12v64q-21 -55 -67.5 -84.5t-109.5 -29.5q-79 0 -127 43.5t-48 116.5q0 151 189 151q73 0 163 -20q-2 89 -36 125t-118 36q-52 0 -103 -17q-17 -5 -26 -5
q-33 0 -33 33q0 23 29 36q51 25 135 25q121 0 176 -57.5t55 -183.5v-234q0 -19 -18 -35q-77 -69 -77 -110q0 -45 53 -45q16 0 30 4t17 4zM248 59q75 0 116.5 43t41.5 121v5q-92 17 -152 17q-121 0 -121 -90q0 -42 32 -69t83 -27z" />
    <glyph glyph-name="Cacute" unicode="&#x106;" horiz-adv-x="654" 
d="M325 758q-16 0 -27.5 13t-11.5 28q0 21 24 34l143 74q14 7 24 7q16 0 27.5 -12.5t11.5 -28.5q0 -21 -24 -34l-142 -74q-14 -7 -25 -7zM406 -10q-159 0 -245.5 93.5t-86.5 266.5t86.5 266.5t245.5 93.5q96 0 167 -32q19 -11 19 -33q0 -33 -33 -33q-9 0 -28 4
q-68 18 -124 18q-123 0 -187.5 -71.5t-64.5 -212.5t64.5 -212.5t187.5 -71.5q57 0 124 18q19 4 28 4q33 0 33 -33q0 -22 -19 -33q-71 -32 -167 -32z" />
    <glyph glyph-name="cacute" unicode="&#x107;" horiz-adv-x="534" 
d="M231 590q-16 0 -27.5 13t-11.5 28q0 21 24 34l143 74q14 7 24 7q16 0 27.5 -12.5t11.5 -28.5q0 -21 -24 -34l-142 -74q-14 -7 -25 -7zM309 -10q-116 0 -181 69t-65 193t65 193t181 69q81 0 135 -25q29 -13 29 -36q0 -35 -33 -35q-9 0 -25 5q-51 17 -104 17
q-80 0 -124.5 -49t-44.5 -139t44.5 -139t124.5 -49q53 0 104 17q16 5 25 5q33 0 33 -35q0 -23 -29 -36q-58 -25 -135 -25z" />
    <glyph glyph-name="Ccaron" unicode="&#x10c;" horiz-adv-x="654" 
d="M267 836q-23 15 -23 34q0 16 11.5 26.5t26.5 10.5q11 0 25 -9l91 -63l92 63q13 9 24 9q16 0 27 -10.5t11 -26.5q0 -19 -22 -34l-106 -67q-11 -6 -26 -6q-16 0 -26 6zM559 88q33 0 33 -33q0 -22 -19 -33q-71 -32 -167 -32q-159 0 -245.5 93.5t-86.5 266.5t86.5 266.5
t245.5 93.5q96 0 167 -32q19 -11 19 -33q0 -33 -33 -33q-9 0 -28 4q-68 18 -124 18q-123 0 -187.5 -71.5t-64.5 -212.5t64.5 -212.5t187.5 -71.5q57 0 124 18q19 4 28 4z" />
    <glyph glyph-name="ccaron" unicode="&#x10d;" horiz-adv-x="534" 
d="M174 668q-23 15 -23 34q0 16 11.5 26.5t26.5 10.5q11 0 25 -9l91 -63l92 63q13 9 24 9q16 0 27 -10.5t11 -26.5q0 -19 -22 -34l-106 -67q-10 -6 -26 -6q-15 0 -26 6zM440 86q33 0 33 -35q0 -23 -29 -36q-58 -25 -135 -25q-116 0 -181 69t-65 193t65 193t181 69
q81 0 135 -25q29 -13 29 -36q0 -35 -33 -35q-9 0 -25 5q-51 17 -104 17q-80 0 -124.5 -49t-44.5 -139t44.5 -139t124.5 -49q53 0 104 17q16 5 25 5z" />
    <glyph glyph-name="Dcaron" unicode="&#x10e;" horiz-adv-x="727" 
d="M173 836q-23 15 -23 34q0 16 11.5 26.5t26.5 10.5q11 0 25 -9l91 -63l92 63q13 9 24 9q16 0 27 -10.5t11 -26.5q0 -19 -22 -34l-106 -67q-11 -6 -26 -6q-16 0 -26 6zM343 700q148 0 229 -92t81 -258t-81 -258t-229 -92h-208q-41 0 -41 38v624q0 38 41 38h208zM346 76
q226 0 226 274t-226 274h-171v-548h171z" />
    <glyph glyph-name="dcaron" unicode="&#x10f;" horiz-adv-x="630" 
d="M504 715q19 0 29.5 -10.5t10.5 -28.5v-637q0 -18 -10.5 -28.5t-29.5 -10.5q-18 0 -28.5 10.5t-10.5 28.5v66q-22 -55 -68.5 -85t-111.5 -30q-106 0 -164 68.5t-58 193.5t58 193.5t164 68.5q65 0 111.5 -30t68.5 -85v277q0 18 10.5 28.5t28.5 10.5zM679 710q25 0 40 -15.5
t15 -43.5q0 -57 -62 -181q-11 -19 -29 -19q-14 0 -22.5 7.5t-8.5 19.5q0 8 7 22q25 55 43 108q-37 7 -37 48q0 25 14.5 39.5t39.5 14.5zM303 64q79 0 120.5 48t41.5 140t-41.5 140t-120.5 48t-120 -48t-41 -140t41 -140t120 -48z" />
    <glyph glyph-name="Dcroat" unicode="&#x110;" horiz-adv-x="727" 
d="M343 700q148 0 229 -92t81 -258t-81 -258t-229 -92h-208q-41 0 -41 38v283h-75q-36 0 -36 36q0 35 36 35h75v270q0 38 41 38h208zM346 76q226 0 226 274t-226 274h-171v-232h134q37 0 37 -35q0 -36 -37 -36h-134v-245h171z" />
    <glyph glyph-name="dcroat" unicode="&#x111;" horiz-adv-x="630" 
d="M626 622q32 0 32 -31t-32 -31h-82v-521q0 -18 -10.5 -28.5t-29.5 -10.5q-18 0 -28.5 10.5t-10.5 28.5v66q-22 -55 -68.5 -85t-111.5 -30q-106 0 -164 68.5t-58 193.5t58 193.5t164 68.5q65 0 111.5 -30t68.5 -85v161h-110q-31 0 -31 31t31 31h110v54q0 18 10.5 28.5
t28.5 10.5q19 0 29.5 -10.5t10.5 -28.5v-54h82zM303 64q79 0 120.5 48t41.5 140t-41.5 140t-120.5 48t-120 -48t-41 -140t41 -140t120 -48z" />
    <glyph glyph-name="Emacron" unicode="&#x112;" horiz-adv-x="576" 
d="M208 788q-42 0 -42 39t42 39h202q42 0 42 -39t-42 -39h-202zM491 76q38 0 38 -38t-38 -38h-356q-41 0 -41 38v624q0 38 41 38h356q38 0 38 -38t-38 -38h-316v-221h257q38 0 38 -38t-38 -38h-257v-251h316z" />
    <glyph glyph-name="emacron" unicode="&#x113;" horiz-adv-x="587" 
d="M201 617q-42 0 -42 39t42 39h202q42 0 42 -39t-42 -39h-202zM526 282q0 -26 -12 -37.5t-38 -11.5h-333q5 -87 51 -129t137 -42q53 0 104 17q17 4 25 4q33 0 33 -32q0 -23 -29 -36q-58 -25 -135 -25q-127 0 -196.5 68.5t-69.5 193.5q0 122 64.5 192t176.5 70
q103 0 162.5 -62t59.5 -170zM440 289q7 0 7 7q0 69 -39 109t-104 40q-69 0 -111 -40t-49 -116h296z" />
    <glyph glyph-name="Edotaccent" unicode="&#x116;" horiz-adv-x="576" 
d="M310 764q-53 0 -53 49t53 49t53 -49t-53 -49zM491 76q38 0 38 -38t-38 -38h-356q-41 0 -41 38v624q0 38 41 38h356q38 0 38 -38t-38 -38h-316v-221h257q38 0 38 -38t-38 -38h-257v-251h316z" />
    <glyph glyph-name="edotaccent" unicode="&#x117;" horiz-adv-x="587" 
d="M303 598q-53 0 -53 49t53 49t53 -49t-53 -49zM526 282q0 -26 -12 -37.5t-38 -11.5h-333q5 -87 51 -129t137 -42q53 0 104 17q17 4 25 4q33 0 33 -32q0 -23 -29 -36q-58 -25 -135 -25q-127 0 -196.5 68.5t-69.5 193.5q0 122 64.5 192t176.5 70q103 0 162.5 -62t59.5 -170z
M440 289q7 0 7 7q0 69 -39 109t-104 40q-69 0 -111 -40t-49 -116h296z" />
    <glyph glyph-name="Eogonek" unicode="&#x118;" horiz-adv-x="576" 
d="M499 -1q-49 -19 -73 -48.5t-24 -56.5q0 -45 53 -45q17 0 31 4t17 4q11 0 18.5 -7.5t7.5 -20.5q0 -17 -22.5 -28t-57.5 -11q-52 0 -82.5 26t-30.5 70q0 61 64 114h-265q-41 0 -41 38v624q0 38 41 38h356q38 0 38 -38t-38 -38h-316v-221h257q38 0 38 -38t-38 -38h-257v-251
h316q38 0 38 -38q0 -16 -7 -24t-23 -15z" />
    <glyph glyph-name="eogonek" unicode="&#x119;" horiz-adv-x="587" 
d="M526 282q0 -26 -12 -37.5t-38 -11.5h-333q5 -87 51 -129t138 -42q49 0 103 17q17 4 25 4q33 0 33 -32q0 -17 -27 -35q-96 -55 -96 -118q0 -49 53 -49q17 0 31 4t17 4q11 0 18.5 -7.5t7.5 -19.5q0 -18 -22.5 -29t-57.5 -11q-52 0 -82.5 26.5t-30.5 73.5q0 53 48 101
q-9 -1 -28 -1q-123 0 -192 68.5t-69 193.5q0 122 64 192t176 70q104 0 163.5 -62t59.5 -170zM440 289q7 0 7 7q0 69 -38.5 109t-106.5 40t-109.5 -40t-48.5 -116h296z" />
    <glyph glyph-name="Ecaron" unicode="&#x11a;" horiz-adv-x="576" 
d="M179 836q-23 15 -23 34q0 16 11.5 26.5t26.5 10.5q11 0 25 -9l91 -63l92 63q13 9 24 9q16 0 27 -10.5t11 -26.5q0 -19 -22 -34l-106 -67q-10 -6 -26 -6t-26 6zM491 76q38 0 38 -38t-38 -38h-356q-41 0 -41 38v624q0 38 41 38h356q38 0 38 -38t-38 -38h-316v-221h257
q38 0 38 -38t-38 -38h-257v-251h316z" />
    <glyph glyph-name="ecaron" unicode="&#x11b;" horiz-adv-x="587" 
d="M172 668q-23 15 -23 34q0 16 11.5 26.5t26.5 10.5q11 0 25 -9l91 -63l92 63q13 9 24 9q16 0 27 -10.5t11 -26.5q0 -19 -22 -34l-106 -67q-11 -6 -26 -6t-26 6zM526 282q0 -26 -12 -37.5t-38 -11.5h-333q5 -87 51 -129t137 -42q53 0 104 17q17 4 25 4q33 0 33 -32
q0 -23 -29 -36q-58 -25 -135 -25q-127 0 -196.5 68.5t-69.5 193.5q0 122 64.5 192t176.5 70q103 0 162.5 -62t59.5 -170zM440 289q7 0 7 7q0 69 -39 109t-104 40q-69 0 -111 -40t-49 -116h296z" />
    <glyph glyph-name="Gbreve" unicode="&#x11e;" horiz-adv-x="698" 
d="M399 755q-67 0 -106 34t-39 92v4q0 37 40 37q35 0 35 -35v-4q0 -60 70 -60q69 0 69 60v4q0 35 36 35q39 0 39 -37v-4q0 -58 -38.5 -92t-105.5 -34zM578 366q19 0 30 -10t11 -28v-228q0 -35 -9 -51.5t-40 -30.5q-68 -28 -164 -28q-157 0 -244.5 94t-87.5 266
q0 173 86.5 266.5t245.5 93.5q96 0 167 -32q19 -11 19 -33q0 -33 -33 -33q-9 0 -28 4q-68 18 -124 18q-123 0 -187.5 -71.5t-64.5 -212.5t64.5 -212.5t189.5 -71.5q61 0 109 18q20 8 20 32v175h-138q-38 0 -38 38q0 37 38 37h178z" />
    <glyph glyph-name="gbreve" unicode="&#x11f;" horiz-adv-x="625" 
d="M315 587q-67 0 -106 34t-39 92v4q0 37 40 37q35 0 35 -35v-4q0 -60 70 -60q69 0 69 60v4q0 35 36 35q39 0 39 -37v-4q0 -58 -38.5 -92t-105.5 -34zM504 504q19 0 29.5 -10.5t10.5 -28.5v-435q0 -240 -250 -240q-82 0 -138 25q-29 12 -29 36q0 32 33 32q9 0 25 -5
q53 -16 107 -16q90 0 131.5 40t41.5 128v75q-22 -55 -68.5 -85t-111.5 -30q-106 0 -164 68.5t-58 193.5t58 193.5t164 68.5q65 0 111.5 -30t68.5 -85v66q0 18 10.5 28.5t28.5 10.5zM303 64q79 0 120.5 48t41.5 140t-41.5 140t-120.5 48t-120 -48t-41 -140t41 -140t120 -48z
" />
    <glyph glyph-name="Gcommaaccent" unicode="&#x122;" horiz-adv-x="698" 
d="M578 366q19 0 30 -10t11 -28v-228q0 -35 -9 -51.5t-40 -30.5q-68 -28 -164 -28q-157 0 -244.5 94t-87.5 266q0 173 86.5 266.5t245.5 93.5q96 0 167 -32q19 -11 19 -33q0 -33 -33 -33q-9 0 -28 4q-68 18 -124 18q-123 0 -187.5 -71.5t-64.5 -212.5t64.5 -212.5
t189.5 -71.5q61 0 109 18q20 8 20 32v175h-138q-38 0 -38 38q0 37 38 37h178zM405 -54q26 0 41 -15.5t15 -41.5q0 -34 -44 -119q-15 -18 -32 -18q-29 0 -29 26q0 13 8 22q13 21 28 53q-41 5 -41 45q0 22 14.5 35t39.5 13z" />
    <glyph glyph-name="gcommaaccent" unicode="&#x123;" horiz-adv-x="630" 
d="M308 606q-26 0 -41 15.5t-15 41.5q0 33 46 124q15 22 32 22q13 0 22 -7t9 -19q0 -8 -6 -20l-27 -58q34 -11 34 -49q0 -50 -54 -50zM504 504q19 0 29.5 -10.5t10.5 -28.5v-435q0 -240 -250 -240q-82 0 -138 25q-29 12 -29 36q0 32 33 32q9 0 25 -5q53 -16 107 -16
q90 0 131.5 40t41.5 128v75q-22 -55 -68.5 -85t-111.5 -30q-106 0 -164 68.5t-58 193.5t58 193.5t164 68.5q65 0 111.5 -30t68.5 -85v66q0 18 10.5 28.5t28.5 10.5zM303 64q79 0 120.5 48t41.5 140t-41.5 140t-120.5 48t-120 -48t-41 -140t41 -140t120 -48z" />
    <glyph glyph-name="Hbar" unicode="&#x126;" horiz-adv-x="721" 
d="M673 578q36 0 36 -35q0 -36 -36 -36h-46v-469q0 -38 -41 -38q-40 0 -40 38v289h-371v-289q0 -38 -40 -38q-41 0 -41 38v469h-44q-36 0 -36 36q0 35 36 35h44v84q0 38 41 38q40 0 40 -38v-84h371v84q0 38 40 38q41 0 41 -38v-84h46zM546 403v104h-371v-104h371z" />
    <glyph glyph-name="hbar" unicode="&#x127;" horiz-adv-x="612" 
d="M346 514q90 0 136.5 -58t46.5 -171v-246q0 -18 -10.5 -28.5t-29.5 -10.5q-18 0 -29 10.5t-11 28.5v244q0 157 -123 157q-76 0 -118.5 -49.5t-42.5 -137.5v-214q0 -18 -10.5 -28.5t-28.5 -10.5q-19 0 -29.5 10.5t-10.5 28.5v521h-80q-32 0 -32 31t32 31h80v54
q0 18 10.5 28.5t29.5 10.5q18 0 28.5 -10.5t10.5 -28.5v-54h112q32 0 32 -31t-32 -31h-112v-163q23 55 70.5 86t110.5 31z" />
    <glyph glyph-name="Imacron" unicode="&#x12a;" horiz-adv-x="269" 
d="M33 788q-42 0 -42 39t42 39h202q42 0 42 -39t-42 -39h-202zM135 0q-41 0 -41 38v624q0 38 41 38q40 0 40 -38v-624q0 -38 -40 -38z" />
    <glyph glyph-name="imacron" unicode="&#x12b;" horiz-adv-x="251" 
d="M24 617q-42 0 -42 39t42 39h202q42 0 42 -39t-42 -39h-202zM126 0q-19 0 -29.5 10.5t-10.5 28.5v426q0 18 10.5 28.5t29.5 10.5q18 0 28.5 -10.5t10.5 -28.5v-426q0 -18 -10.5 -28.5t-28.5 -10.5z" />
    <glyph glyph-name="Iogonek" unicode="&#x12e;" horiz-adv-x="269" 
d="M187 -143q11 0 18.5 -7.5t7.5 -20.5q0 -17 -22.5 -28t-57.5 -11q-52 0 -82.5 26t-30.5 70q0 59 76 139q-2 6 -2 10v627q0 38 41 38q40 0 40 -38v-624q0 -20 -18 -35q-29 -24 -50 -53.5t-21 -55.5q0 -45 53 -45q17 0 31 4t17 4z" />
    <glyph glyph-name="iogonek" unicode="&#x12f;" horiz-adv-x="251" 
d="M126 598q-53 0 -53 49t53 49q52 0 52 -49t-52 -49zM177 -143q11 0 18.5 -7.5t7.5 -20.5q0 -17 -22.5 -28t-57.5 -11q-52 0 -82.5 26t-30.5 70q0 60 78 141q-2 4 -2 12v426q0 18 10.5 28.5t29.5 10.5q18 0 28.5 -10.5t10.5 -28.5v-426q0 -20 -18 -35q-71 -64 -71 -110
q0 -45 53 -45q17 0 31 4t17 4z" />
    <glyph glyph-name="Idotaccent" unicode="&#x130;" horiz-adv-x="269" 
d="M135 764q-53 0 -53 49t53 49t53 -49t-53 -49zM135 0q-41 0 -41 38v624q0 38 41 38q40 0 40 -38v-624q0 -38 -40 -38z" />
    <glyph glyph-name="dotlessi" unicode="&#x131;" horiz-adv-x="251" 
d="M126 0q-19 0 -29.5 10.5t-10.5 28.5v426q0 18 10.5 28.5t29.5 10.5q18 0 28.5 -10.5t10.5 -28.5v-426q0 -18 -10.5 -28.5t-28.5 -10.5z" />
    <glyph glyph-name="IJ" unicode="&#x132;" horiz-adv-x="729" 
d="M135 700q40 0 40 -38v-624q0 -38 -40 -38q-41 0 -41 38v624q0 38 41 38zM595 700q40 0 40 -38v-473q0 -199 -195 -199q-65 0 -122 30q-23 14 -23 35q0 33 33 33q12 0 26 -6q39 -16 81 -16q119 0 119 120v438h-157q-38 0 -38 38t38 38h198z" />
    <glyph glyph-name="ij" unicode="&#x133;" horiz-adv-x="501" 
d="M126 598q-53 0 -53 49t53 49t53 -49t-53 -49zM378 598q-53 0 -53 49t53 49t53 -49t-53 -49zM126 0q-19 0 -29.5 10.5t-10.5 28.5v426q0 18 10.5 28.5t29.5 10.5q18 0 28.5 -10.5t10.5 -28.5v-426q0 -18 -10.5 -28.5t-28.5 -10.5zM278 -210q-50 0 -86 17q-26 14 -26 37
q0 15 8.5 24t22.5 9q6 0 23 -5q26 -8 49 -8q72 0 72 87v514q0 18 10.5 28.5t28.5 10.5q19 0 29.5 -10.5t10.5 -28.5v-527q0 -68 -38 -108t-104 -40z" />
    <glyph glyph-name="Kcommaaccent" unicode="&#x136;" horiz-adv-x="643" 
d="M599 62q8 -12 8 -23q0 -16 -14 -27.5t-33 -11.5q-16 0 -33 24l-235 322l-117 -116v-192q0 -38 -40 -38q-41 0 -41 38v624q0 38 41 38q40 0 40 -38v-319l338 333q23 24 38 24q19 0 31.5 -11.5t12.5 -27.5q0 -15 -12 -28l-233 -230zM342 -54q26 0 41 -15.5t15 -41.5
q0 -34 -44 -119q-15 -18 -32 -18q-29 0 -29 26q0 13 8 22q13 21 28 53q-41 5 -41 45q0 22 14.5 35t39.5 13z" />
    <glyph glyph-name="kcommaaccent" unicode="&#x137;" horiz-adv-x="520" 
d="M491 62q8 -11 8 -25q0 -16 -12.5 -26.5t-27.5 -10.5q-19 0 -33 20l-162 229l-99 -91v-119q0 -18 -10.5 -28.5t-28.5 -10.5q-19 0 -29.5 10.5t-10.5 28.5v637q0 18 10.5 28.5t29.5 10.5q18 0 28.5 -10.5t10.5 -28.5v-413l249 230q13 11 27 11q16 0 28 -12t12 -27
q0 -17 -17 -31l-143 -132zM289 -54q26 0 41 -15.5t15 -41.5q0 -34 -44 -119q-15 -18 -32 -18q-29 0 -29 26q0 13 8 22q13 21 28 53q-41 5 -41 45q0 22 14.5 35t39.5 13z" />
    <glyph glyph-name="Lacute" unicode="&#x139;" horiz-adv-x="555" 
d="M205 758q-16 0 -27.5 13t-11.5 28q0 21 24 34l143 74q14 7 24 7q16 0 27.5 -12.5t11.5 -28.5q0 -21 -24 -34l-142 -74q-14 -7 -25 -7zM491 76q38 0 38 -38t-38 -38h-356q-41 0 -41 38v624q0 38 41 38q40 0 40 -38v-586h316z" />
    <glyph glyph-name="lacute" unicode="&#x13a;" horiz-adv-x="254" 
d="M53 801q-16 0 -27.5 13t-11.5 28q0 20 24 34l143 74q14 7 24 7q16 0 27.5 -12.5t11.5 -28.5q0 -20 -24 -34l-142 -74q-14 -7 -25 -7zM127 0q-19 0 -29.5 10.5t-10.5 28.5v637q0 18 10.5 28.5t29.5 10.5q18 0 29 -10.5t11 -28.5v-637q0 -18 -11 -28.5t-29 -10.5z" />
    <glyph glyph-name="Lcommaaccent" unicode="&#x13b;" horiz-adv-x="555" 
d="M491 76q38 0 38 -38t-38 -38h-356q-41 0 -41 38v624q0 38 41 38q40 0 40 -38v-586h316zM318 -54q26 0 41 -15.5t15 -41.5q0 -34 -44 -119q-15 -18 -32 -18q-29 0 -29 26q0 13 8 22q13 21 28 53q-41 5 -41 45q0 22 14.5 35t39.5 13z" />
    <glyph glyph-name="lcommaaccent" unicode="&#x13c;" horiz-adv-x="254" 
d="M127 0q-19 0 -29.5 10.5t-10.5 28.5v637q0 18 10.5 28.5t29.5 10.5q18 0 29 -10.5t11 -28.5v-637q0 -18 -11 -28.5t-29 -10.5zM129 -54q26 0 41 -15.5t15 -41.5q0 -34 -44 -119q-15 -18 -32 -18q-29 0 -29 26q0 13 8 22q13 21 28 53q-41 5 -41 45q0 22 14.5 35t39.5 13z
" />
    <glyph glyph-name="Lcaron" unicode="&#x13d;" horiz-adv-x="555" 
d="M389 451q-13 0 -21.5 7.5t-8.5 19.5q0 11 7 22q25 55 43 108q-37 7 -37 48q0 25 14.5 39.5t39.5 14.5t40 -15.5t15 -43.5q0 -57 -62 -181q-11 -19 -30 -19zM491 76q38 0 38 -38t-38 -38h-356q-41 0 -41 38v624q0 38 41 38q40 0 40 -38v-586h316z" />
    <glyph glyph-name="lcaron" unicode="&#x13e;" horiz-adv-x="249" 
d="M127 715q18 0 29 -10.5t11 -28.5v-637q0 -18 -11 -28.5t-29 -10.5q-19 0 -29.5 10.5t-10.5 28.5v637q0 18 10.5 28.5t29.5 10.5zM303 710q25 0 40 -15.5t15 -43.5q0 -57 -62 -181q-11 -19 -30 -19q-13 0 -21.5 7.5t-8.5 19.5q0 11 7 22q25 55 43 108q-37 7 -37 48
q0 25 14.5 39.5t39.5 14.5z" />
    <glyph glyph-name="Ldot" unicode="&#x13f;" horiz-adv-x="555" 
d="M491 76q38 0 38 -38t-38 -38h-356q-41 0 -41 38v624q0 38 41 38q40 0 40 -38v-586h316zM412 334q-60 0 -60 55t60 55q59 0 59 -55t-59 -55z" />
    <glyph glyph-name="ldot" unicode="&#x140;" horiz-adv-x="321" 
d="M127 0q-19 0 -29.5 10.5t-10.5 28.5v637q0 18 10.5 28.5t29.5 10.5q18 0 29 -10.5t11 -28.5v-637q0 -18 -11 -28.5t-29 -10.5zM289 269q-60 0 -60 55t60 55q59 0 59 -55t-59 -55z" />
    <glyph glyph-name="Lslash" unicode="&#x141;" horiz-adv-x="555" 
d="M491 76q38 0 38 -38t-38 -38h-356q-41 0 -41 38v242l-55 -22q-7 -3 -18 -3q-16 0 -26.5 13t-10.5 29q0 23 26 33l84 34v298q0 38 41 38q40 0 40 -38v-265l108 44q9 4 19 4q16 0 26 -13.5t10 -29.5q0 -23 -25 -33l-138 -56v-237h316z" />
    <glyph glyph-name="lslash" unicode="&#x142;" horiz-adv-x="254" 
d="M267 456q16 0 26 -13.5t10 -29.5q0 -23 -25 -33l-111 -45v-296q0 -18 -11 -28.5t-29 -10.5q-19 0 -29.5 10.5t-10.5 28.5v264l-83 -34q-7 -3 -18 -3q-16 0 -26.5 13t-10.5 29q0 23 26 33l112 46v289q0 18 10.5 28.5t29.5 10.5q18 0 29 -10.5t11 -28.5v-257l81 33
q9 4 19 4z" />
    <glyph glyph-name="Nacute" unicode="&#x143;" horiz-adv-x="724" 
d="M289 758q-16 0 -27.5 13t-11.5 28q0 21 24 34l143 74q14 7 24 7q16 0 27.5 -12.5t11.5 -28.5q0 -21 -24 -34l-142 -74q-14 -7 -25 -7zM591 700q40 0 40 -38v-624q0 -38 -40 -38q-29 0 -46 24l-372 523v-509q0 -38 -40 -38q-41 0 -41 38v624q0 38 41 38q29 0 46 -24
l372 -523v509q0 38 40 38z" />
    <glyph glyph-name="nacute" unicode="&#x144;" horiz-adv-x="610" 
d="M231 590q-16 0 -27.5 13t-11.5 28q0 21 24 34l143 74q14 7 24 7q16 0 27.5 -12.5t11.5 -28.5q0 -21 -24 -34l-142 -74q-14 -7 -25 -7zM346 514q90 0 136.5 -58t46.5 -171v-246q0 -18 -10.5 -28.5t-29.5 -10.5q-18 0 -29 10.5t-11 28.5v244q0 157 -123 157
q-76 0 -118.5 -49.5t-42.5 -137.5v-214q0 -18 -10.5 -28.5t-28.5 -10.5q-19 0 -29.5 10.5t-10.5 28.5v426q0 18 10.5 28.5t29.5 10.5q18 0 28.5 -10.5t10.5 -28.5v-68q23 55 70.5 86t110.5 31z" />
    <glyph glyph-name="Ncommaaccent" unicode="&#x145;" horiz-adv-x="724" 
d="M591 700q40 0 40 -38v-624q0 -38 -40 -38q-29 0 -46 24l-372 523v-509q0 -38 -40 -38q-41 0 -41 38v624q0 38 41 38q29 0 46 -24l372 -523v509q0 38 40 38zM370 -54q26 0 41 -15.5t15 -41.5q0 -34 -44 -119q-15 -18 -32 -18q-29 0 -29 26q0 13 8 22q13 21 28 53
q-41 5 -41 45q0 22 14.5 35t39.5 13z" />
    <glyph glyph-name="ncommaaccent" unicode="&#x146;" horiz-adv-x="610" 
d="M346 514q90 0 136.5 -58t46.5 -171v-246q0 -18 -10.5 -28.5t-29.5 -10.5q-18 0 -29 10.5t-11 28.5v244q0 157 -123 157q-76 0 -118.5 -49.5t-42.5 -137.5v-214q0 -18 -10.5 -28.5t-28.5 -10.5q-19 0 -29.5 10.5t-10.5 28.5v426q0 18 10.5 28.5t29.5 10.5q18 0 28.5 -10.5
t10.5 -28.5v-68q23 55 70.5 86t110.5 31zM314 -54q26 0 41 -15.5t15 -41.5q0 -34 -44 -119q-15 -18 -32 -18q-29 0 -29 26q0 13 8 22q13 21 28 53q-41 5 -41 45q0 22 14.5 35t39.5 13z" />
    <glyph glyph-name="Ncaron" unicode="&#x147;" horiz-adv-x="724" 
d="M231 836q-23 15 -23 34q0 16 11.5 26.5t26.5 10.5q11 0 25 -9l91 -63l92 63q13 9 24 9q16 0 27 -10.5t11 -26.5q0 -19 -22 -34l-106 -67q-10 -6 -26 -6t-26 6zM591 700q40 0 40 -38v-624q0 -38 -40 -38q-29 0 -46 24l-372 523v-509q0 -38 -40 -38q-41 0 -41 38v624
q0 38 41 38q29 0 46 -24l372 -523v509q0 38 40 38z" />
    <glyph glyph-name="ncaron" unicode="&#x148;" horiz-adv-x="610" 
d="M174 668q-23 15 -23 34q0 16 11.5 26.5t26.5 10.5q11 0 25 -9l91 -63l92 63q13 9 24 9q16 0 27 -10.5t11 -26.5q0 -19 -22 -34l-106 -67q-10 -6 -26 -6q-15 0 -26 6zM346 514q90 0 136.5 -58t46.5 -171v-246q0 -18 -10.5 -28.5t-29.5 -10.5q-18 0 -29 10.5t-11 28.5v244
q0 157 -123 157q-76 0 -118.5 -49.5t-42.5 -137.5v-214q0 -18 -10.5 -28.5t-28.5 -10.5q-19 0 -29.5 10.5t-10.5 28.5v426q0 18 10.5 28.5t29.5 10.5q18 0 28.5 -10.5t10.5 -28.5v-68q23 55 70.5 86t110.5 31z" />
    <glyph glyph-name="Eng" unicode="&#x14a;" horiz-adv-x="724" 
d="M591 700q40 0 40 -38v-673q0 -199 -194 -199q-66 0 -123 30q-22 14 -22 35q0 33 32 33q13 0 26 -6q40 -16 82 -16q119 0 119 120v31q-4 4 -6 7l-372 523v-509q0 -38 -40 -38q-41 0 -41 38v624q0 38 41 38q29 0 46 -24l372 -523v509q0 38 40 38z" />
    <glyph glyph-name="eng" unicode="&#x14b;" horiz-adv-x="610" 
d="M346 514q90 0 136.5 -58t46.5 -171v-347q0 -68 -38 -108t-104 -40q-50 0 -86 17q-27 14 -27 37q0 15 9 24t23 9q5 0 23 -5q26 -8 48 -8q72 0 72 87v332q0 157 -123 157q-76 0 -118.5 -49.5t-42.5 -137.5v-214q0 -18 -10.5 -28.5t-28.5 -10.5q-19 0 -29.5 10.5t-10.5 28.5
v426q0 18 10.5 28.5t29.5 10.5q18 0 28.5 -10.5t10.5 -28.5v-68q23 55 70.5 86t110.5 31z" />
    <glyph glyph-name="Omacron" unicode="&#x14c;" horiz-adv-x="766" 
d="M281 788q-42 0 -42 39t42 39h202q42 0 42 -39t-42 -39h-202zM383 -10q-147 0 -228 94t-81 266t81 266t228 94t228 -94t81 -266t-81 -266t-228 -94zM383 66q229 0 229 284t-229 284q-228 0 -228 -284t228 -284z" />
    <glyph glyph-name="omacron" unicode="&#x14d;" horiz-adv-x="612" 
d="M204 617q-42 0 -42 39t42 39h202q42 0 42 -39t-42 -39h-202zM306 -10q-116 0 -179.5 68.5t-63.5 193.5t63.5 193.5t179.5 68.5t179.5 -68.5t63.5 -193.5t-63.5 -193.5t-179.5 -68.5zM306 64q80 0 122 48t42 140t-42 140t-122 48t-122 -48t-42 -140t42 -140t122 -48z" />
    <glyph glyph-name="Ohungarumlaut" unicode="&#x150;" horiz-adv-x="766" 
d="M342 933q16 0 27 -9.5t11 -23.5t-4 -22l-48 -107q-12 -26 -34 -26q-16 0 -27 10t-11 24q0 11 5 21l47 107q12 26 34 26zM514 933q16 0 27 -9.5t11 -23.5q0 -7 -5 -22l-48 -107q-12 -26 -34 -26q-16 0 -27 10t-11 24q0 6 5 21l48 107q12 26 34 26zM383 -10q-147 0 -228 94
t-81 266t81 266t228 94t228 -94t81 -266t-81 -266t-228 -94zM383 66q229 0 229 284t-229 284q-228 0 -228 -284t228 -284z" />
    <glyph glyph-name="ohungarumlaut" unicode="&#x151;" horiz-adv-x="612" 
d="M262 765q16 0 27 -9.5t11 -23.5t-4 -22l-48 -107q-12 -26 -34 -26q-16 0 -27 10t-11 24q0 11 5 21l47 107q12 26 34 26zM434 765q16 0 27 -9.5t11 -23.5q0 -7 -5 -22l-48 -107q-12 -26 -34 -26q-16 0 -27 10t-11 24q0 6 5 21l48 107q12 26 34 26zM306 -10
q-116 0 -179.5 68.5t-63.5 193.5t63.5 193.5t179.5 68.5t179.5 -68.5t63.5 -193.5t-63.5 -193.5t-179.5 -68.5zM306 64q80 0 122 48t42 140t-42 140t-122 48t-122 -48t-42 -140t42 -140t122 -48z" />
    <glyph glyph-name="OE" unicode="&#x152;" horiz-adv-x="1093" 
d="M1008 76q38 0 38 -38t-38 -38h-356q-41 0 -41 38v46q-82 -94 -228 -94q-147 0 -228 94t-81 266t81 266t228 94q146 0 228 -94v46q0 38 41 38h356q38 0 38 -38t-38 -38h-316v-221h257q38 0 38 -38t-38 -38h-257v-251h316zM383 66q214 0 228 248v72q-14 248 -228 248
q-228 0 -228 -284t228 -284z" />
    <glyph glyph-name="oe" unicode="&#x153;" horiz-adv-x="994" 
d="M933 282q0 -26 -12 -37.5t-38 -11.5h-333q5 -87 51 -129t137 -42q53 0 104 17q17 4 25 4q33 0 33 -32q0 -23 -29 -36q-58 -25 -135 -25q-157 0 -225 103q-60 -103 -205 -103q-116 0 -179.5 68.5t-63.5 193.5t63.5 193.5t179.5 68.5q143 0 204 -101q64 101 201 101
q103 0 162.5 -62t59.5 -170zM847 289q7 0 7 7q0 69 -39 109t-104 40q-69 0 -111 -40t-49 -116h296zM306 64q80 0 122 48t42 140t-42 140t-122 48t-122 -48t-42 -140t42 -140t122 -48z" />
    <glyph glyph-name="Racute" unicode="&#x154;" horiz-adv-x="640" 
d="M224 758q-16 0 -27.5 13t-11.5 28q0 21 24 34l143 74q14 7 24 7q16 0 27.5 -12.5t11.5 -28.5q0 -21 -24 -34l-142 -74q-14 -7 -25 -7zM591 62q8 -12 8 -23q0 -16 -14 -27.5t-33 -11.5q-16 0 -33 24l-186 255h-158v-241q0 -38 -40 -38q-41 0 -41 38v624q0 38 41 38h202
q120 0 183 -54t63 -156q0 -165 -157 -202zM175 624v-269h166q161 0 161 135q0 134 -161 134h-166z" />
    <glyph glyph-name="racute" unicode="&#x155;" horiz-adv-x="403" 
d="M164 590q-16 0 -27.5 13t-11.5 28q0 21 24 34l143 74q14 7 24 7q16 0 27.5 -12.5t11.5 -28.5q0 -21 -24 -34l-142 -74q-14 -7 -25 -7zM343 510q39 0 39 -37t-39 -37q-86 0 -132 -48.5t-46 -138.5v-210q0 -18 -10.5 -28.5t-28.5 -10.5q-19 0 -29.5 10.5t-10.5 28.5v426
q0 18 10.5 28.5t29.5 10.5q18 0 28.5 -10.5t10.5 -28.5v-73q48 118 178 118z" />
    <glyph glyph-name="Rcommaaccent" unicode="&#x156;" horiz-adv-x="640" 
d="M591 62q8 -12 8 -23q0 -16 -14 -27.5t-33 -11.5q-16 0 -33 24l-186 255h-158v-241q0 -38 -40 -38q-41 0 -41 38v624q0 38 41 38h202q120 0 183 -54t63 -156q0 -165 -157 -202zM175 624v-269h166q161 0 161 135q0 134 -161 134h-166zM339 -54q26 0 41 -15.5t15 -41.5
q0 -34 -44 -119q-15 -18 -32 -18q-29 0 -29 26q0 13 8 22q13 21 28 53q-41 5 -41 45q0 22 14.5 35t39.5 13z" />
    <glyph glyph-name="rcommaaccent" unicode="&#x157;" horiz-adv-x="403" 
d="M343 510q39 0 39 -37t-39 -37q-86 0 -132 -48.5t-46 -138.5v-210q0 -18 -10.5 -28.5t-28.5 -10.5q-19 0 -29.5 10.5t-10.5 28.5v426q0 18 10.5 28.5t29.5 10.5q18 0 28.5 -10.5t10.5 -28.5v-73q48 118 178 118zM128 -54q26 0 41 -15.5t15 -41.5q0 -34 -44 -119
q-15 -18 -32 -18q-29 0 -29 26q0 13 8 22q13 21 28 53q-41 5 -41 45q0 22 14.5 35t39.5 13z" />
    <glyph glyph-name="Rcaron" unicode="&#x158;" horiz-adv-x="640" 
d="M166 836q-23 15 -23 34q0 16 11.5 26.5t26.5 10.5q11 0 25 -9l91 -63l92 63q13 9 24 9q16 0 27 -10.5t11 -26.5q0 -19 -22 -34l-106 -67q-11 -6 -26 -6t-26 6zM591 62q8 -12 8 -23q0 -16 -14 -27.5t-33 -11.5q-16 0 -33 24l-186 255h-158v-241q0 -38 -40 -38
q-41 0 -41 38v624q0 38 41 38h202q120 0 183 -54t63 -156q0 -165 -157 -202zM175 624v-269h166q161 0 161 135q0 134 -161 134h-166z" />
    <glyph glyph-name="rcaron" unicode="&#x159;" horiz-adv-x="403" 
d="M107 668q-23 15 -23 34q0 16 11.5 26.5t26.5 10.5q11 0 25 -9l91 -63l92 63q13 9 24 9q16 0 27 -10.5t11 -26.5q0 -19 -22 -34l-106 -67q-10 -6 -26 -6t-26 6zM343 510q39 0 39 -37t-39 -37q-86 0 -132 -48.5t-46 -138.5v-210q0 -18 -10.5 -28.5t-28.5 -10.5
q-19 0 -29.5 10.5t-10.5 28.5v426q0 18 10.5 28.5t29.5 10.5q18 0 28.5 -10.5t10.5 -28.5v-73q48 118 178 118z" />
    <glyph glyph-name="Sacute" unicode="&#x15a;" horiz-adv-x="562" 
d="M208 758q-16 0 -27.5 13t-11.5 28q0 21 24 34l143 74q14 7 24 7q16 0 27.5 -12.5t11.5 -28.5q0 -21 -24 -34l-142 -74q-14 -7 -25 -7zM271 -10q-98 0 -186 36q-31 13 -31 39q0 33 32 33q13 0 30 -5q86 -27 155 -27q76 0 117 31.5t41 88.5q0 53 -33 79.5t-121 52.5
q-120 35 -170.5 80t-50.5 122q0 89 63 139.5t167 50.5q99 0 170 -32q19 -11 19 -33q0 -15 -9 -24t-24 -9q-8 0 -28 4q-68 18 -130 18q-72 0 -109.5 -31.5t-37.5 -82.5q0 -47 38 -73.5t133 -54.5q115 -33 159.5 -80.5t44.5 -125.5q0 -90 -63.5 -143t-175.5 -53z" />
    <glyph glyph-name="sacute" unicode="&#x15b;" horiz-adv-x="478" 
d="M165 590q-16 0 -27.5 13t-11.5 28q0 21 24 34l143 74q14 7 24 7q16 0 27.5 -12.5t11.5 -28.5q0 -21 -24 -34l-142 -74q-14 -7 -25 -7zM233 -10q-84 0 -154 35q-27 12 -27 36q0 29 31 29q11 0 28 -6q69 -26 121 -26q55 0 85.5 20t30.5 55q0 33 -30 52.5t-72.5 31t-85 25.5
t-72.5 46t-30 83q0 65 49 104t133 39q83 0 144 -28q21 -13 21 -32q0 -14 -8.5 -22t-22.5 -8q-10 0 -29 5q-55 16 -103 16t-76.5 -19t-28.5 -51q0 -30 30 -49t72.5 -30t85 -26t72.5 -48t30 -85q0 -70 -51 -108.5t-143 -38.5z" />
    <glyph glyph-name="Scedilla" unicode="&#x15e;" horiz-adv-x="562" 
d="M271 -10q-98 0 -186 36q-31 13 -31 39q0 33 32 33q13 0 30 -5q86 -27 155 -27q76 0 117 31.5t41 88.5q0 53 -33 79.5t-121 52.5q-120 35 -170.5 80t-50.5 122q0 89 63 139.5t167 50.5q99 0 170 -32q19 -11 19 -33q0 -15 -9 -24t-24 -9q-8 0 -28 4q-68 18 -130 18
q-72 0 -109.5 -31.5t-37.5 -82.5q0 -47 38 -73.5t133 -54.5q115 -33 159.5 -80.5t44.5 -125.5q0 -90 -63.5 -143t-175.5 -53zM259 -38q52 0 82.5 -27.5t30.5 -73.5t-30.5 -73.5t-82.5 -27.5q-35 0 -57.5 11t-22.5 29q0 24 26 24q3 0 17 -4t31 -4q53 0 53 45q0 46 -53 46
q-17 0 -31 -4.5t-17 -4.5q-26 0 -26 25q0 18 22 28.5t58 10.5z" />
    <glyph glyph-name="scedilla" unicode="&#x15f;" horiz-adv-x="478" 
d="M233 -10q-84 0 -154 35q-27 12 -27 36q0 29 31 29q11 0 28 -6q69 -26 121 -26q55 0 85.5 20t30.5 55q0 33 -30 52.5t-72.5 31t-85 25.5t-72.5 46t-30 83q0 65 49 104t133 39q83 0 144 -28q21 -13 21 -32q0 -14 -8.5 -22t-22.5 -8q-10 0 -29 5q-55 16 -103 16t-76.5 -19
t-28.5 -51q0 -30 30 -49t72.5 -30t85 -26t72.5 -48t30 -85q0 -70 -51 -108.5t-143 -38.5zM221 -38q52 0 82.5 -27.5t30.5 -73.5t-30.5 -73.5t-82.5 -27.5q-35 0 -57.5 11t-22.5 29q0 24 26 24q3 0 17 -4t31 -4q53 0 53 45q0 46 -53 46q-17 0 -31 -4.5t-17 -4.5q-26 0 -26 25
q0 18 22 28.5t58 10.5z" />
    <glyph glyph-name="Scaron" unicode="&#x160;" horiz-adv-x="562" 
d="M150 836q-23 15 -23 34q0 16 11.5 26.5t26.5 10.5q11 0 25 -9l91 -63l92 63q13 9 24 9q16 0 27 -10.5t11 -26.5q0 -19 -22 -34l-106 -67q-10 -6 -26 -6q-15 0 -26 6zM306 392q115 -33 159.5 -80.5t44.5 -125.5q0 -90 -63.5 -143t-175.5 -53q-98 0 -186 36q-31 13 -31 39
q0 33 32 33q13 0 30 -5q86 -27 155 -27q76 0 117 31.5t41 88.5q0 53 -33 79.5t-121 52.5q-120 35 -170.5 80t-50.5 122q0 89 63 139.5t167 50.5q99 0 170 -32q19 -11 19 -33q0 -15 -9 -24t-24 -9q-8 0 -28 4q-68 18 -130 18q-72 0 -109.5 -31.5t-37.5 -82.5q0 -47 38 -73.5
t133 -54.5z" />
    <glyph glyph-name="scaron" unicode="&#x161;" horiz-adv-x="478" 
d="M108 668q-23 15 -23 34q0 16 11.5 26.5t26.5 10.5q11 0 25 -9l91 -63l92 63q13 9 24 9q16 0 27 -10.5t11 -26.5q0 -19 -22 -34l-106 -67q-10 -6 -26 -6q-15 0 -26 6zM137 375q0 -30 30 -49t72.5 -30t85 -26t72.5 -48t30 -85q0 -70 -51 -108.5t-143 -38.5q-84 0 -154 35
q-27 12 -27 36q0 29 31 29q11 0 28 -6q69 -26 121 -26q55 0 85.5 20t30.5 55q0 33 -30 52.5t-72.5 31t-85 25.5t-72.5 46t-30 83q0 65 49 104t133 39q83 0 144 -28q21 -13 21 -32q0 -14 -8.5 -22t-22.5 -8q-10 0 -29 5q-55 16 -103 16t-76.5 -19t-28.5 -51z" />
    <glyph glyph-name="uni0162" unicode="&#x162;" horiz-adv-x="609" 
d="M545 700q38 0 38 -38t-38 -38h-200v-586q0 -38 -40 -38q-41 0 -41 38v586h-200q-38 0 -38 38t38 38h481zM285 -38q52 0 82.5 -27.5t30.5 -73.5t-30.5 -73.5t-82.5 -27.5q-35 0 -57.5 11t-22.5 29q0 24 26 24q3 0 17 -4t31 -4q53 0 53 45q0 46 -53 46q-17 0 -31 -4.5
t-17 -4.5q-26 0 -26 25q0 18 22 28.5t58 10.5z" />
    <glyph glyph-name="uni0163" unicode="&#x163;" horiz-adv-x="430" 
d="M349 77q14 0 23 -9t9 -24q0 -23 -27 -37q-36 -17 -86 -17q-65 0 -103.5 40t-38.5 108v292h-66q-39 0 -39 37t39 37h66v109q0 18 11 28.5t29 10.5t29 -10.5t11 -28.5v-109h117q39 0 39 -37t-39 -37h-117v-279q0 -87 72 -87q24 0 48 8q18 5 23 5zM226 -38q52 0 82.5 -27.5
t30.5 -73.5t-30.5 -73.5t-82.5 -27.5q-35 0 -57.5 11t-22.5 29q0 24 26 24q3 0 17 -4t31 -4q53 0 53 45q0 46 -53 46q-17 0 -31 -4.5t-17 -4.5q-26 0 -26 25q0 18 22 28.5t58 10.5z" />
    <glyph glyph-name="Tcaron" unicode="&#x164;" horiz-adv-x="609" 
d="M174 836q-23 15 -23 34q0 16 11.5 26.5t26.5 10.5q11 0 25 -9l91 -63l92 63q13 9 24 9q16 0 27 -10.5t11 -26.5q0 -19 -22 -34l-106 -67q-10 -6 -26 -6q-15 0 -26 6zM545 700q38 0 38 -38t-38 -38h-200v-586q0 -38 -40 -38q-41 0 -41 38v586h-200q-38 0 -38 38t38 38h481
z" />
    <glyph glyph-name="tcaron" unicode="&#x165;" horiz-adv-x="430" 
d="M469 710q25 0 40.5 -15.5t15.5 -43.5q0 -55 -63 -181q-11 -19 -29 -19q-14 0 -22.5 7.5t-8.5 19.5q0 8 7 22q25 55 43 108q-37 7 -37 48q0 25 14.5 39.5t39.5 14.5zM349 77q14 0 23 -9t9 -24q0 -23 -27 -37q-36 -17 -86 -17q-65 0 -103.5 40t-38.5 108v292h-66
q-39 0 -39 37t39 37h66v109q0 18 11 28.5t29 10.5t29 -10.5t11 -28.5v-109h117q39 0 39 -37t-39 -37h-117v-279q0 -87 72 -87q24 0 48 8q18 5 23 5z" />
    <glyph glyph-name="Tbar" unicode="&#x166;" horiz-adv-x="609" 
d="M545 700q38 0 38 -38t-38 -38h-200v-239h104q37 0 37 -35q0 -36 -37 -36h-104v-276q0 -38 -40 -38q-41 0 -41 38v276h-105q-36 0 -36 36q0 35 36 35h105v239h-200q-38 0 -38 38t38 38h481z" />
    <glyph glyph-name="tbar" unicode="&#x167;" horiz-adv-x="430" 
d="M349 77q14 0 23 -9t9 -24q0 -23 -27 -37q-36 -17 -86 -17q-65 0 -103.5 40t-38.5 108v111h-66q-39 0 -39 37t39 37h66v107h-66q-39 0 -39 37t39 37h66v109q0 18 11 28.5t29 10.5t29 -10.5t11 -28.5v-109h117q39 0 39 -37t-39 -37h-117v-107h117q39 0 39 -37t-39 -37h-117
v-98q0 -87 72 -87q24 0 48 8q18 5 23 5z" />
    <glyph glyph-name="Umacron" unicode="&#x16a;" horiz-adv-x="722" 
d="M257 788q-42 0 -42 39t42 39h202q42 0 42 -39t-42 -39h-202zM587 700q19 0 30 -10t11 -28v-388q0 -133 -71 -208.5t-196 -75.5t-196 75.5t-71 208.5v388q0 38 41 38q40 0 40 -38v-390q0 -206 186 -206t186 206v390q0 38 40 38z" />
    <glyph glyph-name="umacron" unicode="&#x16b;" horiz-adv-x="601" 
d="M198 617q-42 0 -42 39t42 39h202q42 0 42 -39t-42 -39h-202zM480 504q19 0 29.5 -10.5t10.5 -28.5v-240q0 -114 -57 -174.5t-163 -60.5q-105 0 -162 60.5t-57 174.5v240q0 18 10.5 28.5t29.5 10.5q18 0 28.5 -10.5t10.5 -28.5v-240q0 -79 36 -120t104 -41q140 0 140 161
v240q0 18 11 28.5t29 10.5z" />
    <glyph glyph-name="Uring" unicode="&#x16e;" horiz-adv-x="722" 
d="M359 739q-47 0 -76 26t-29 68q0 41 29 67t76 26q46 0 75 -26t29 -67q0 -42 -29 -68t-75 -26zM359 789q21 0 34 12t13 32q0 19 -13 31t-34 12q-22 0 -35 -12t-13 -31q0 -20 13 -32t35 -12zM587 700q19 0 30 -10t11 -28v-388q0 -133 -71 -208.5t-196 -75.5t-196 75.5
t-71 208.5v388q0 38 41 38q40 0 40 -38v-390q0 -206 186 -206t186 206v390q0 38 40 38z" />
    <glyph glyph-name="uring" unicode="&#x16f;" horiz-adv-x="601" 
d="M300 571q-47 0 -76 26t-29 68q0 41 29 67t76 26q46 0 75 -26t29 -67q0 -42 -29 -68t-75 -26zM300 621q21 0 34 12t13 32q0 19 -13 31t-34 12q-22 0 -35 -12t-13 -31q0 -20 13 -32t35 -12zM480 504q19 0 29.5 -10.5t10.5 -28.5v-240q0 -114 -57 -174.5t-163 -60.5
q-105 0 -162 60.5t-57 174.5v240q0 18 10.5 28.5t29.5 10.5q18 0 28.5 -10.5t10.5 -28.5v-240q0 -79 36 -120t104 -41q140 0 140 161v240q0 18 11 28.5t29 10.5z" />
    <glyph glyph-name="Uhungarumlaut" unicode="&#x170;" horiz-adv-x="722" 
d="M318 933q16 0 27 -9.5t11 -23.5t-4 -22l-48 -107q-12 -26 -34 -26q-16 0 -27 10t-11 24q0 11 5 21l47 107q12 26 34 26zM490 933q16 0 27 -9.5t11 -23.5q0 -7 -5 -22l-48 -107q-12 -26 -34 -26q-16 0 -27 10t-11 24q0 6 5 21l48 107q12 26 34 26zM587 700q19 0 30 -10
t11 -28v-388q0 -133 -71 -208.5t-196 -75.5t-196 75.5t-71 208.5v388q0 38 41 38q40 0 40 -38v-390q0 -206 186 -206t186 206v390q0 38 40 38z" />
    <glyph glyph-name="uhungarumlaut" unicode="&#x171;" horiz-adv-x="601" 
d="M256 765q16 0 27 -9.5t11 -23.5t-4 -22l-48 -107q-12 -26 -34 -26q-16 0 -27 10t-11 24q0 11 5 21l47 107q12 26 34 26zM428 765q16 0 27 -9.5t11 -23.5q0 -7 -5 -22l-48 -107q-12 -26 -34 -26q-16 0 -27 10t-11 24q0 6 5 21l48 107q12 26 34 26zM480 504
q19 0 29.5 -10.5t10.5 -28.5v-240q0 -114 -57 -174.5t-163 -60.5q-105 0 -162 60.5t-57 174.5v240q0 18 10.5 28.5t29.5 10.5q18 0 28.5 -10.5t10.5 -28.5v-240q0 -79 36 -120t104 -41q140 0 140 161v240q0 18 11 28.5t29 10.5z" />
    <glyph glyph-name="Uogonek" unicode="&#x172;" horiz-adv-x="722" 
d="M513 29q-40 -27 -64.5 -67.5t-24.5 -66.5q0 -21 14 -33.5t39 -12.5q17 0 31 4t17 4q26 0 26 -28q0 -17 -22.5 -28t-57.5 -11q-51 0 -81.5 26t-30.5 70q0 49 42 106q-26 -2 -40 -2q-125 0 -196 75.5t-71 208.5v388q0 38 41 38q40 0 40 -38v-390q0 -206 186 -206t186 206
v390q0 38 40 38q19 0 30 -10t11 -28v-388q0 -166 -115 -245z" />
    <glyph glyph-name="uogonek" unicode="&#x173;" horiz-adv-x="601" 
d="M428 22q-47 -33 -68.5 -67.5t-21.5 -60.5q0 -45 53 -45q17 0 30.5 4t16.5 4q12 0 19.5 -7.5t7.5 -20.5q0 -17 -22.5 -28t-58.5 -11q-51 0 -81.5 26t-30.5 70q0 50 43 104h-14q-106 0 -163 60.5t-57 174.5v240q0 18 10.5 28.5t29.5 10.5q18 0 28.5 -10.5t10.5 -28.5v-240
q0 -79 36 -120t104 -41q140 0 140 161v240q0 18 11 28.5t29 10.5q19 0 29.5 -10.5t10.5 -28.5v-240q0 -142 -92 -203z" />
    <glyph glyph-name="Ydieresis" unicode="&#x178;" horiz-adv-x="639" 
d="M223 764q-53 0 -53 49t53 49t53 -48q0 -50 -53 -50zM427 764q-53 0 -53 49t53 49t53 -48q0 -50 -53 -50zM613 660q0 -13 -9 -25l-244 -308v-289q0 -38 -40 -38q-41 0 -41 38v290l-243 307q-10 11 -10 25q0 16 13.5 28t29.5 12q17 0 29 -15l222 -279l222 279q12 15 28 15
t29.5 -11.5t13.5 -28.5z" />
    <glyph glyph-name="Zacute" unicode="&#x179;" horiz-adv-x="596" 
d="M225 758q-16 0 -27.5 13t-11.5 28q0 21 24 34l143 74q14 7 24 7q16 0 27.5 -12.5t11.5 -28.5q0 -21 -24 -34l-142 -74q-14 -7 -25 -7zM511 76q38 0 38 -38t-38 -38h-425q-39 0 -39 38q0 18 12 35l373 551h-335q-39 0 -39 38t39 38h407q39 0 39 -38q0 -18 -12 -35
l-374 -551h354z" />
    <glyph glyph-name="zacute" unicode="&#x17a;" horiz-adv-x="501" 
d="M174 590q-16 0 -27.5 13t-11.5 28q0 21 24 34l143 74q14 7 24 7q16 0 27.5 -12.5t11.5 -28.5q0 -21 -24 -34l-142 -74q-14 -7 -25 -7zM420 74q39 0 39 -37t-39 -37h-339q-39 0 -39 37q0 16 10 29l283 364h-244q-18 0 -28.5 10t-10.5 27t10.5 27t28.5 10h322q39 0 39 -37
q0 -16 -10 -29l-283 -364h261z" />
    <glyph glyph-name="Zdotaccent" unicode="&#x17b;" horiz-adv-x="596" 
d="M298 764q-53 0 -53 49t53 49t53 -49t-53 -49zM511 76q38 0 38 -38t-38 -38h-425q-39 0 -39 38q0 18 12 35l373 551h-335q-39 0 -39 38t39 38h407q39 0 39 -38q0 -18 -12 -35l-374 -551h354z" />
    <glyph glyph-name="zdotaccent" unicode="&#x17c;" horiz-adv-x="501" 
d="M248 598q-53 0 -53 49t53 49t53 -49t-53 -49zM420 74q39 0 39 -37t-39 -37h-339q-39 0 -39 37q0 16 10 29l283 364h-244q-18 0 -28.5 10t-10.5 27t10.5 27t28.5 10h322q39 0 39 -37q0 -16 -10 -29l-283 -364h261z" />
    <glyph glyph-name="Zcaron" unicode="&#x17d;" horiz-adv-x="596" 
d="M167 836q-23 15 -23 34q0 16 11.5 26.5t26.5 10.5q11 0 25 -9l91 -63l92 63q13 9 24 9q16 0 27 -10.5t11 -26.5q0 -19 -22 -34l-106 -67q-10 -6 -26 -6t-26 6zM511 76q38 0 38 -38t-38 -38h-425q-39 0 -39 38q0 18 12 35l373 551h-335q-39 0 -39 38t39 38h407
q39 0 39 -38q0 -18 -12 -35l-374 -551h354z" />
    <glyph glyph-name="zcaron" unicode="&#x17e;" horiz-adv-x="501" 
d="M117 668q-23 15 -23 34q0 16 11.5 26.5t26.5 10.5q11 0 25 -9l91 -63l92 63q13 9 24 9q16 0 27 -10.5t11 -26.5q0 -19 -22 -34l-106 -67q-10 -6 -26 -6t-26 6zM420 74q39 0 39 -37t-39 -37h-339q-39 0 -39 37q0 16 10 29l283 364h-244q-18 0 -28.5 10t-10.5 27t10.5 27
t28.5 10h322q39 0 39 -37q0 -16 -10 -29l-283 -364h261z" />
    <glyph glyph-name="florin" unicode="&#x192;" horiz-adv-x="723" 
d="M671 681q26 -15 26 -36q0 -33 -33 -33q-13 0 -26 6q-40 16 -81 16q-49 0 -75.5 -27.5t-42.5 -95.5l-25 -108h175q38 0 38 -37q0 -38 -38 -38h-192l-32 -139q-23 -107 -68 -153t-126 -46q-65 0 -120 29q-25 13 -25 36q0 33 33 33q12 0 26 -6q39 -16 81 -16q48 0 75 27.5
t43 95.5l32 139h-169q-38 0 -38 38q0 37 38 37h186l25 108q23 108 67.5 153.5t125.5 45.5q67 0 120 -29z" />
    <glyph glyph-name="Scommaaccent" unicode="&#x218;" horiz-adv-x="562" 
d="M306 392q115 -33 159.5 -80.5t44.5 -125.5q0 -90 -63.5 -143t-175.5 -53q-98 0 -186 36q-31 13 -31 39q0 33 32 33q13 0 30 -5q86 -27 155 -27q76 0 117 31.5t41 88.5q0 53 -33 79.5t-121 52.5q-120 35 -170.5 80t-50.5 122q0 89 63 139.5t167 50.5q99 0 170 -32
q19 -11 19 -33q0 -15 -9 -24t-24 -9q-8 0 -28 4q-68 18 -130 18q-72 0 -109.5 -31.5t-37.5 -82.5q0 -47 38 -73.5t133 -54.5zM278 -54q26 0 41 -15.5t15 -41.5q0 -34 -44 -119q-15 -18 -32 -18q-29 0 -29 26q0 13 8 22q13 21 28 53q-41 5 -41 45q0 22 14.5 35t39.5 13z" />
    <glyph glyph-name="scommaaccent" unicode="&#x219;" horiz-adv-x="478" 
d="M137 375q0 -30 30 -49t72.5 -30t85 -26t72.5 -48t30 -85q0 -70 -51 -108.5t-143 -38.5q-84 0 -154 35q-27 12 -27 36q0 29 31 29q11 0 28 -6q69 -26 121 -26q55 0 85.5 20t30.5 55q0 33 -30 52.5t-72.5 31t-85 25.5t-72.5 46t-30 83q0 65 49 104t133 39q83 0 144 -28
q21 -13 21 -32q0 -14 -8.5 -22t-22.5 -8q-10 0 -29 5q-55 16 -103 16t-76.5 -19t-28.5 -51zM237 -54q26 0 41 -15.5t15 -41.5q0 -34 -44 -119q-15 -18 -32 -18q-29 0 -29 26q0 13 8 22q13 21 28 53q-41 5 -41 45q0 22 14.5 35t39.5 13z" />
    <glyph glyph-name="uni021A" unicode="&#x21a;" horiz-adv-x="609" 
d="M545 700q38 0 38 -38t-38 -38h-200v-586q0 -38 -40 -38q-41 0 -41 38v586h-200q-38 0 -38 38t38 38h481zM304 -54q26 0 41 -15.5t15 -41.5q0 -34 -44 -119q-15 -18 -32 -18q-29 0 -29 26q0 13 8 22q13 21 28 53q-41 5 -41 45q0 22 14.5 35t39.5 13z" />
    <glyph glyph-name="uni021B" unicode="&#x21b;" horiz-adv-x="430" 
d="M349 77q14 0 23 -9t9 -24q0 -23 -27 -37q-36 -17 -86 -17q-65 0 -103.5 40t-38.5 108v292h-66q-39 0 -39 37t39 37h66v109q0 18 11 28.5t29 10.5t29 -10.5t11 -28.5v-109h117q39 0 39 -37t-39 -37h-117v-279q0 -87 72 -87q24 0 48 8q18 5 23 5zM242 -54q26 0 41 -15.5
t15 -41.5q0 -34 -44 -119q-15 -18 -32 -18q-29 0 -29 26q0 13 8 22q13 21 28 53q-41 5 -41 45q0 22 14.5 35t39.5 13z" />
    <glyph glyph-name="uni0237" unicode="&#x237;" horiz-adv-x="254" 
d="M31 -210q-50 0 -86 17q-26 14 -26 37q0 15 8.5 24t22.5 9q6 0 23 -5q26 -8 49 -8q72 0 72 87v514q0 18 10.5 28.5t28.5 10.5q19 0 29.5 -10.5t10.5 -28.5v-527q0 -68 -38 -108t-104 -40z" />
    <glyph glyph-name="circumflex" unicode="&#x2c6;" horiz-adv-x="508" 
d="M386 699q22 -15 22 -34q0 -16 -11 -26.5t-27 -10.5q-11 0 -24 9l-92 63l-91 -63q-14 -9 -25 -9q-15 0 -26.5 10.5t-11.5 26.5q0 19 23 34l105 67q10 6 26 6t26 -6z" />
    <glyph glyph-name="caron" unicode="&#x2c7;" horiz-adv-x="508" 
d="M370 771q16 0 27 -10.5t11 -26.5q0 -19 -22 -34l-106 -67q-10 -6 -26 -6t-26 6l-105 67q-23 15 -23 34q0 16 11.5 26.5t26.5 10.5q11 0 25 -9l91 -63l92 63q13 9 24 9z" />
    <glyph glyph-name="uni02C9" unicode="&#x2c9;" horiz-adv-x="474" 
d="M136 649q-42 0 -42 39t42 39h202q42 0 42 -39t-42 -39h-202z" />
    <glyph glyph-name="breve" unicode="&#x2d8;" horiz-adv-x="477" 
d="M239 619q-67 0 -106 34t-39 92v4q0 37 40 37q35 0 35 -35v-4q0 -60 70 -60q69 0 69 60v4q0 35 36 35q39 0 39 -37v-4q0 -58 -38.5 -92t-105.5 -34z" />
    <glyph glyph-name="dotaccent" unicode="&#x2d9;" horiz-adv-x="294" 
d="M147 598q-53 0 -53 49t53 49t53 -49t-53 -49z" />
    <glyph glyph-name="ring" unicode="&#x2da;" horiz-adv-x="397" 
d="M199 603q-47 0 -76 26t-29 68q0 41 29 67t76 26q46 0 75 -26t29 -67q0 -42 -29 -68t-75 -26zM199 653q21 0 34 12t13 32q0 19 -13 31t-34 12q-22 0 -35 -12t-13 -31q0 -20 13 -32t35 -12z" />
    <glyph glyph-name="ogonek" unicode="&#x2db;" horiz-adv-x="381" 
d="M207 -210q-52 0 -82.5 26t-30.5 70q0 35 21 70t71 85l48 -33q-74 -70 -74 -114q0 -45 53 -45q17 0 31 4t17 4q11 0 18.5 -7.5t7.5 -20.5q0 -17 -22.5 -28t-57.5 -11z" />
    <glyph glyph-name="tilde" unicode="&#x2dc;" horiz-adv-x="487" 
d="M312 622q-46 0 -87 45q-19 22 -27.5 28t-18.5 6q-25 0 -25 -29v-19q0 -29 -30 -29t-30 29v36q0 35 22 57.5t59 22.5q44 0 86 -46q20 -21 28.5 -27t18.5 -6q11 0 18 8t7 21v19q0 28 30 28t30 -28v-36q0 -35 -22.5 -57.5t-58.5 -22.5z" />
    <glyph glyph-name="hungarumlaut" unicode="&#x2dd;" horiz-adv-x="484" 
d="M180 797q16 0 27 -9.5t11 -23.5t-4 -22l-48 -107q-12 -26 -34 -26q-16 0 -27 10t-11 24q0 11 5 21l47 107q12 26 34 26zM352 797q16 0 27 -9.5t11 -23.5q0 -7 -5 -22l-48 -107q-12 -26 -34 -26q-16 0 -27 10t-11 24q0 6 5 21l48 107q12 26 34 26z" />
    <glyph glyph-name="gravecomb" unicode="&#x300;" 
d="M-133 622q-11 0 -25 7l-142 74q-24 13 -24 34q0 16 11.5 28.5t27.5 12.5q10 0 24 -7l143 -74q24 -13 24 -34q0 -15 -11.5 -28t-27.5 -13z" />
    <glyph glyph-name="acutecomb" unicode="&#x301;" 
d="M-285 622q-16 0 -27.5 13t-11.5 28q0 21 24 34l143 74q14 7 24 7q16 0 27.5 -12.5t11.5 -28.5q0 -21 -24 -34l-142 -74q-14 -7 -25 -7z" />
    <glyph glyph-name="uni0302" unicode="&#x302;" 
d="M-122 699q22 -15 22 -34q0 -16 -11 -26.5t-27 -10.5q-11 0 -24 9l-92 63l-91 -63q-14 -9 -25 -9q-15 0 -26.5 10.5t-11.5 26.5q0 19 23 34l105 67q10 6 26 6t26 -6z" />
    <glyph glyph-name="tildecomb" unicode="&#x303;" 
d="M-175 622q-46 0 -87 45q-19 22 -27.5 28t-18.5 6q-25 0 -25 -29v-19q0 -29 -30 -29t-30 29v36q0 35 22.5 57.5t58.5 22.5q44 0 86 -46q20 -21 28.5 -27t18.5 -6q11 0 18 8t7 21v19q0 28 30 28t30 -28v-36q0 -35 -22.5 -57.5t-58.5 -22.5z" />
    <glyph glyph-name="uni0304" unicode="&#x304;" 
d="M-338 649q-42 0 -42 39t42 39h202q42 0 42 -39t-42 -39h-202z" />
    <glyph glyph-name="uni0306" unicode="&#x306;" 
d="M-238 619q-67 0 -106 34t-39 92v4q0 37 40 37q35 0 35 -35v-4q0 -60 70 -60q69 0 69 60v4q0 35 36 35q39 0 39 -37v-4q0 -58 -38.5 -92t-105.5 -34z" />
    <glyph glyph-name="uni0307" unicode="&#x307;" 
d="M-147 598q-53 0 -53 49t53 49t53 -49t-53 -49z" />
    <glyph glyph-name="uni0308" unicode="&#x308;" 
d="M-351 646q-53 0 -53 49t53 49t53 -48q0 -50 -53 -50zM-147 646q-53 0 -53 49t53 49t53 -48q0 -50 -53 -50z" />
    <glyph glyph-name="uni030A" unicode="&#x30a;" 
d="M-198 603q-47 0 -76 26t-29 68q0 41 29 67t76 26q46 0 75 -26t29 -67q0 -42 -29 -68t-75 -26zM-198 653q21 0 34 12t13 32q0 19 -13 31t-34 12q-22 0 -35 -12t-13 -31q0 -20 13 -32t35 -12z" />
    <glyph glyph-name="uni030B" unicode="&#x30b;" 
d="M-304 797q16 0 27 -9.5t11 -23.5t-4 -22l-48 -107q-12 -26 -34 -26q-16 0 -27 10t-11 24q0 11 5 21l47 107q12 26 34 26zM-132 797q16 0 27 -9.5t11 -23.5q0 -7 -5 -22l-48 -107q-12 -26 -34 -26q-16 0 -27 10t-11 24q0 6 5 21l48 107q12 26 34 26z" />
    <glyph glyph-name="uni030C" unicode="&#x30c;" 
d="M-138 771q16 0 27 -10.5t11 -26.5q0 -19 -22 -34l-106 -67q-10 -6 -26 -6t-26 6l-105 67q-23 15 -23 34q0 16 11.5 26.5t26.5 10.5q11 0 25 -9l91 -63l92 63q13 9 24 9z" />
    <glyph glyph-name="uni0326" unicode="&#x326;" 
d="M-150 -54q26 0 41 -15.5t15 -41.5q0 -34 -44 -119q-15 -18 -32 -18q-29 0 -29 26q0 13 8 22q13 21 28 53q-41 5 -41 45q0 22 14.5 35t39.5 13z" />
    <glyph glyph-name="uni0327" unicode="&#x327;" 
d="M-207 -38q52 0 82.5 -27.5t30.5 -73.5t-30.5 -73.5t-82.5 -27.5q-35 0 -57.5 11t-22.5 29q0 24 26 24q3 0 17 -4t31 -4q53 0 53 45q0 46 -53 46q-17 0 -31 -4.5t-17 -4.5q-26 0 -26 25q0 18 22 28.5t58 10.5z" />
    <glyph glyph-name="uni0328" unicode="&#x328;" 
d="M-174 -210q-52 0 -82.5 26t-30.5 70q0 35 21 70t71 85l48 -33q-74 -70 -74 -114q0 -45 53 -45q17 0 31 4t17 4q11 0 18.5 -7.5t7.5 -20.5q0 -17 -22.5 -28t-57.5 -11z" />
    <glyph glyph-name="uni0394" unicode="&#x394;" horiz-adv-x="660" 
d="M630 57q4 -8 4 -21q0 -15 -12 -25.5t-31 -10.5h-522q-19 0 -31 10.5t-12 25.5q0 13 4 21l245 600q17 43 55 43q39 0 55 -43zM330 586l-205 -510h410z" />
    <glyph glyph-name="uni03A9" unicode="&#x3a9;" horiz-adv-x="806" 
d="M674 76q38 0 38 -38t-38 -38h-174q-38 0 -38 38v113q0 23 23 38q147 58 147 221q0 104 -61.5 164t-167.5 60t-167 -60t-61 -164q0 -160 146 -221q23 -14 23 -38v-113q0 -38 -38 -38h-174q-38 0 -38 38t38 38h132v60q0 8 -9 13q-77 35 -119 103t-42 160q0 135 84.5 216.5
t224.5 81.5t224.5 -81.5t84.5 -216.5q0 -93 -42 -162t-119 -101q-8 -5 -8 -13v-60h131z" />
    <glyph glyph-name="uni03BC" unicode="&#x3bc;" horiz-adv-x="614" 
d="M491 504q19 0 29.5 -10.5t10.5 -28.5v-426q0 -18 -10.5 -28.5t-29.5 -10.5q-18 0 -28.5 10.5t-10.5 28.5v68q-23 -55 -70 -86t-110 -31t-104 28v-179q0 -18 -10.5 -28.5t-29.5 -10.5q-18 0 -29 10.5t-11 28.5v626q0 18 11 28.5t29 10.5q19 0 29.5 -10.5t10.5 -28.5v-244
q0 -157 123 -157q76 0 118.5 49t42.5 138v214q0 18 10.5 28.5t28.5 10.5z" />
    <glyph glyph-name="pi" unicode="&#x3c0;" horiz-adv-x="596" 
d="M536 504q39 0 39 -37t-39 -37h-47v-391q0 -18 -10.5 -28.5t-29.5 -10.5q-18 0 -29 10.5t-11 28.5v391h-222v-391q0 -18 -10.5 -28.5t-29.5 -10.5q-18 0 -28.5 10.5t-10.5 28.5v391h-48q-39 0 -39 37t39 37h476z" />
    <glyph glyph-name="uni2009" unicode="&#x2009;" horiz-adv-x="212" 
 />
    <glyph glyph-name="endash" unicode="&#x2013;" horiz-adv-x="707" 
d="M575 317q38 0 38 -38t-38 -38h-443q-38 0 -38 38t38 38h443z" />
    <glyph glyph-name="emdash" unicode="&#x2014;" horiz-adv-x="809" 
d="M677 317q38 0 38 -38t-38 -38h-545q-38 0 -38 38t38 38h545z" />
    <glyph glyph-name="quoteleft" unicode="&#x2018;" horiz-adv-x="307" 
d="M224 681q0 -9 -8 -23q-27 -56 -45 -111q42 -9 42 -54q0 -26 -15 -40t-43 -14q-29 0 -45 16t-16 46q0 57 66 189q11 20 31 20q14 0 23.5 -8t9.5 -21z" />
    <glyph glyph-name="quoteright" unicode="&#x2019;" horiz-adv-x="307" 
d="M152 710q29 0 45 -16t16 -46q0 -57 -66 -189q-11 -20 -31 -20q-14 0 -23.5 8t-9.5 21q0 9 8 23q27 56 45 111q-42 9 -42 54q0 26 15 40t43 14z" />
    <glyph glyph-name="quotesinglbase" unicode="&#x201a;" horiz-adv-x="307" 
d="M152 100q29 0 45 -16t16 -46q0 -57 -66 -189q-11 -20 -31 -20q-14 0 -23.5 8t-9.5 21q0 9 8 23q27 56 45 111q-42 9 -42 54q0 26 15 40t43 14z" />
    <glyph glyph-name="quotedblleft" unicode="&#x201c;" horiz-adv-x="514" 
d="M191 710q14 0 23.5 -8t9.5 -21q0 -9 -8 -23q-27 -56 -45 -111q42 -9 42 -54q0 -26 -15 -40t-43 -14q-29 0 -45 16t-16 46q0 57 66 189q11 20 31 20zM431 681q0 -9 -8 -23q-27 -56 -45 -111q42 -9 42 -54q0 -26 -15 -40t-43 -14q-29 0 -45 16t-16 46q0 57 66 189
q11 20 31 20q14 0 23.5 -8t9.5 -21z" />
    <glyph glyph-name="quotedblright" unicode="&#x201d;" horiz-adv-x="514" 
d="M152 710q29 0 45 -16t16 -46q0 -57 -66 -189q-11 -20 -31 -20q-14 0 -23.5 8t-9.5 21q0 9 8 23q27 56 45 111q-42 9 -42 54q0 26 15 40t43 14zM359 710q29 0 45 -16t16 -46q0 -57 -66 -189q-11 -20 -31 -20q-14 0 -23.5 8t-9.5 21q0 9 8 23q27 56 45 111q-42 9 -42 54
q0 26 15 40t43 14z" />
    <glyph glyph-name="quotedblbase" unicode="&#x201e;" horiz-adv-x="514" 
d="M152 100q29 0 45 -16t16 -46q0 -57 -66 -189q-11 -20 -31 -20q-14 0 -23.5 8t-9.5 21q0 9 8 23q27 56 45 111q-42 9 -42 54q0 26 15 40t43 14zM359 100q29 0 45 -16t16 -46q0 -57 -66 -189q-11 -20 -31 -20q-14 0 -23.5 8t-9.5 21q0 9 8 23q27 56 45 111q-42 9 -42 54
q0 26 15 40t43 14z" />
    <glyph glyph-name="dagger" unicode="&#x2020;" horiz-adv-x="630" 
d="M498 456q38 0 38 -38q0 -37 -38 -37h-142v-343q0 -18 -11 -28t-30 -10q-40 0 -40 38v343h-143q-38 0 -38 37q0 38 38 38h143v206q0 38 40 38q19 0 30 -10t11 -28v-206h142z" />
    <glyph glyph-name="daggerdbl" unicode="&#x2021;" horiz-adv-x="630" 
d="M498 295q38 0 38 -38q0 -37 -38 -37h-142v-182q0 -18 -11 -28t-30 -10q-40 0 -40 38v182h-143q-38 0 -38 37q0 38 38 38h143v128h-143q-38 0 -38 38t38 38h143v163q0 38 40 38q19 0 30 -10t11 -28v-163h142q38 0 38 -38t-38 -38h-142v-128h142z" />
    <glyph glyph-name="bullet" unicode="&#x2022;" horiz-adv-x="379" 
d="M189 236q-45 0 -70 23.5t-25 66.5t25 67t70 24q46 0 71 -24t25 -67t-25 -66.5t-71 -23.5z" />
    <glyph glyph-name="ellipsis" unicode="&#x2026;" horiz-adv-x="784" 
d="M154 -10q-60 0 -60 55t60 55q59 0 59 -55t-59 -55zM392 -10q-60 0 -60 55t60 55q59 0 59 -55t-59 -55zM631 -10q-60 0 -60 55t60 55q59 0 59 -55t-59 -55z" />
    <glyph glyph-name="perthousand" unicode="&#x2030;" horiz-adv-x="1524" 
d="M285 331q-85 0 -138 53t-53 136q0 84 53 137t138 53q84 0 137 -53t53 -137q0 -83 -53 -136t-137 -53zM350 0q-16 0 -27.5 10t-11.5 24q0 12 9 26l383 619q13 21 33 21q16 0 27.5 -10t11.5 -24q0 -12 -9 -26l-383 -619q-13 -21 -33 -21zM285 402q50 0 82 33t32 85
q1 52 -31.5 85.5t-82.5 33.5q-51 0 -82.5 -33.5t-32.5 -85.5q0 -52 32 -85t83 -33zM801 -10q-85 0 -137.5 53t-52.5 137t52.5 136.5t137.5 52.5t138 -53t53 -136q0 -84 -53 -137t-138 -53zM1240 -10q-85 0 -138 53t-53 137q0 83 53 136t138 53q84 0 137 -53t53 -136
q0 -84 -53 -137t-137 -53zM801 61q50 0 82 33.5t33 85.5q0 52 -32.5 85t-82.5 33t-82 -33t-32 -85q-1 -52 31.5 -85.5t82.5 -33.5zM1240 61q50 0 82 33.5t32 85.5q1 52 -31.5 85t-82.5 33q-51 0 -82.5 -33t-32.5 -85q0 -52 32 -85.5t83 -33.5z" />
    <glyph glyph-name="guilsinglleft" unicode="&#x2039;" horiz-adv-x="468" 
d="M359 139q15 -12 15 -30q0 -16 -12 -28t-29 -12q-14 0 -28 11l-187 149q-24 17 -24 44q0 26 24 44l187 149q16 11 28 11q17 0 29 -12.5t12 -28.5q0 -18 -15 -29l-167 -134z" />
    <glyph glyph-name="guilsinglright" unicode="&#x203a;" horiz-adv-x="468" 
d="M350 317q24 -18 24 -44q0 -27 -24 -44l-187 -149q-14 -11 -28 -11q-17 0 -29 12t-12 28q0 18 15 30l167 134l-167 134q-15 11 -15 29q0 16 12 28.5t29 12.5q12 0 28 -11z" />
    <glyph glyph-name="fraction" unicode="&#x2044;" horiz-adv-x="240" 
d="M-73 0q-16 0 -27.5 10t-11.5 24q0 12 9 26l383 619q13 21 33 21q16 0 27.5 -10t11.5 -24q0 -12 -9 -26l-383 -619q-13 -21 -33 -21z" />
    <glyph glyph-name="Euro" unicode="&#x20ac;" horiz-adv-x="736" 
d="M641 88q33 0 33 -33q0 -22 -19 -33q-71 -32 -167 -32q-128 0 -210 62t-109 179h-108q-35 0 -35 35q0 34 35 34h97q-2 32 -2 50q0 20 2 54h-97q-35 0 -35 35t35 35h109q28 115 109.5 175.5t208.5 60.5q96 0 167 -32q19 -11 19 -33q0 -33 -33 -33q-9 0 -28 4
q-68 18 -124 18q-187 0 -236 -160h243q35 0 35 -35t-35 -35h-256q-3 -26 -3 -54q0 -18 2 -50h257q35 0 35 -34q0 -35 -35 -35h-244q48 -165 237 -165q57 0 124 18q19 4 28 4z" />
    <glyph glyph-name="uni20BA" unicode="&#x20ba;" horiz-adv-x="698" 
d="M584 311q40 0 40 -38v-35q0 -115 -62.5 -176.5t-180.5 -61.5h-177q-40 0 -40 38v208l-89 -36q-7 -3 -16 -3q-14 0 -23.5 11t-9.5 26q0 21 23 30l115 46v115l-89 -36q-7 -3 -16 -3q-14 0 -23.5 11t-9.5 26q0 21 23 30l115 46v153q0 38 40 38q41 0 41 -38v-120l191 77
q6 3 16 3q14 0 23.5 -11t9.5 -26q0 -21 -23 -30l-217 -87v-115l191 77q6 3 16 3q14 0 23.5 -11t9.5 -26q0 -21 -23 -30l-217 -87v-203h141q157 0 157 160v37q0 38 41 38z" />
    <glyph glyph-name="uni20BD" unicode="&#x20bd;" horiz-adv-x="738" 
d="M417 278h-169v-87h248q35 0 35 -35t-35 -35h-248v-83q0 -38 -40 -38t-40 38v83h-107q-35 0 -35 35t35 35h107v87h-104q-38 0 -38 38t38 38h104v308q0 38 40 38h209q121 0 184 -54t63 -157t-63 -157t-184 -54zM248 624v-270h174q161 0 161 135t-161 135h-174z" />
    <glyph glyph-name="uni2113" unicode="&#x2113;" horiz-adv-x="524" 
d="M465 168q13 0 21 -8t8 -19q0 -15 -10 -28q-88 -123 -193 -123q-117 0 -151 136q-27 -21 -57 -42q-12 -8 -26 -8q-13 0 -22 9.5t-9 23.5q0 20 23 35l79 60q-2 38 -2 60q0 194 71.5 320t182.5 126q55 0 86.5 -35.5t31.5 -96.5q0 -90 -70 -185t-228 -221q16 -118 96 -118
q67 0 142 97q13 17 27 17zM371 646q-72 0 -123.5 -114t-52.5 -274q121 101 177.5 176.5t56.5 138.5q0 73 -58 73z" />
    <glyph glyph-name="uni2116" unicode="&#x2116;" horiz-adv-x="1236" 
d="M929 282q-95 0 -154.5 60t-59.5 154t59.5 154t154.5 60t155 -59.5t60 -154.5t-60 -154.5t-155 -59.5zM591 700q40 0 40 -38v-624q0 -38 -40 -38q-29 0 -46 24l-372 523v-509q0 -38 -40 -38q-41 0 -41 38v624q0 38 41 38q29 0 46 -24l372 -523v509q0 38 40 38zM929 636
q-60 0 -97.5 -39t-37.5 -101t37.5 -101t97.5 -39t98 39t38 101t-38 101t-98 39zM1090 191q38 0 38 -38q0 -37 -38 -37h-321q-39 0 -39 37q0 38 39 38h321z" />
    <glyph glyph-name="trademark" unicode="&#x2122;" horiz-adv-x="799" 
d="M328 700q25 0 25 -25t-25 -25h-78v-217q0 -25 -26 -25q-27 0 -27 25v217h-78q-25 0 -25 25t25 25h209zM678 700q27 0 27 -25v-242q0 -25 -27 -25q-26 0 -26 25v171l-74 -97q-8 -11 -21 -11q-12 0 -20 11l-74 97v-171q0 -25 -26 -25q-27 0 -27 25v242q0 25 27 25
q16 0 29 -17l92 -119l91 119q13 17 29 17z" />
    <glyph glyph-name="uni2126" unicode="&#x2126;" horiz-adv-x="806" 
d="M674 76q38 0 38 -38t-38 -38h-174q-38 0 -38 38v113q0 23 23 38q147 58 147 221q0 104 -61.5 164t-167.5 60t-167 -60t-61 -164q0 -160 146 -221q23 -14 23 -38v-113q0 -38 -38 -38h-174q-38 0 -38 38t38 38h132v60q0 8 -9 13q-77 35 -119 103t-42 160q0 135 84.5 216.5
t224.5 81.5t224.5 -81.5t84.5 -216.5q0 -93 -42 -162t-119 -101q-8 -5 -8 -13v-60h131z" />
    <glyph glyph-name="estimated" unicode="&#x212e;" horiz-adv-x="890" 
d="M445 710q160 0 265.5 -102.5t105.5 -257.5h-610v-248q98 -88 239 -88q104 0 187.5 50.5t125.5 138.5h28q-43 -99 -134 -156t-207 -57q-160 0 -265.5 102.5t-105.5 257.5t105.5 257.5t265.5 102.5zM206 598v-224h477v225q-96 87 -238 87q-141 0 -239 -88z" />
    <glyph glyph-name="uni2150" unicode="&#x2150;" horiz-adv-x="1018" 
d="M250 273q0 -16 -10.5 -26t-27.5 -10q-38 0 -38 36v320l-88 -70q-10 -9 -23 -9q-15 0 -26 11t-11 26q0 19 17 30l139 109q14 10 30 10q17 0 27.5 -10t10.5 -26v-391zM700 666q0 -12 -9 -26l-383 -619q-13 -21 -33 -21q-16 0 -27.5 10t-11.5 24q0 12 9 26l383 619
q13 21 33 21q16 0 27.5 -10t11.5 -24zM955 463q37 0 37 -35q0 -8 -7 -26l-187 -382q-9 -20 -29 -20q-17 0 -29 10t-12 25q0 13 4 18l166 339h-210q-38 0 -38 36q0 35 38 35h267z" />
    <glyph glyph-name="uni2151" unicode="&#x2151;" horiz-adv-x="1061" 
d="M250 273q0 -16 -10.5 -26t-27.5 -10q-38 0 -38 36v320l-88 -70q-10 -9 -23 -9q-15 0 -26 11t-11 26q0 19 17 30l139 109q14 10 30 10q17 0 27.5 -10t10.5 -26v-391zM700 666q0 -12 -9 -26l-383 -619q-13 -21 -33 -21q-16 0 -27.5 10t-11.5 24q0 12 9 26l383 619
q13 21 33 21q16 0 27.5 -10t11.5 -24zM824 473q78 0 126.5 -45t48.5 -116q0 -58 -31 -115.5t-128 -176.5q-14 -20 -31 -20q-16 0 -26.5 9.5t-10.5 24.5q0 13 10 24q67 85 75 97q-18 -2 -28 -2q-81 0 -130 44t-49 116q0 70 48.5 115t125.5 45zM824 220q46 0 74 25.5t28 67.5
t-28 67.5t-74 25.5t-73.5 -26t-27.5 -67t27.5 -67t73.5 -26z" />
    <glyph glyph-name="uni2153" unicode="&#x2153;" horiz-adv-x="1033" 
d="M250 273q0 -16 -10.5 -26t-27.5 -10q-38 0 -38 36v320l-88 -70q-10 -9 -23 -9q-15 0 -26 11t-11 26q0 19 17 30l139 109q14 10 30 10q17 0 27.5 -10t10.5 -26v-391zM700 666q0 -12 -9 -26l-383 -619q-13 -21 -33 -21q-16 0 -27.5 10t-11.5 24q0 12 9 26l383 619
q13 21 33 21q16 0 27.5 -10t11.5 -24zM912 237q59 -35 59 -108q0 -66 -45 -102.5t-125 -36.5q-69 0 -126 23q-25 11 -25 35q0 32 27 32q9 0 26 -5q55 -16 99 -16q42 0 67.5 19.5t25.5 52.5q0 70 -85 70h-55q-38 0 -38 34q0 36 38 36h48q39 0 61.5 16t22.5 47q0 32 -23 51
t-61 19q-40 0 -94 -16q-17 -5 -27 -5q-28 0 -28 32q0 23 25 35q57 23 123 23q76 0 118.5 -36.5t42.5 -100.5q0 -63 -51 -99z" />
    <glyph glyph-name="uni2154" unicode="&#x2154;" horiz-adv-x="1147" 
d="M400 271q0 -35 -37 -35h-263q-18 0 -28 9.5t-10 25.5v7q0 24 20 43l162 146q63 56 63 102q0 32 -23 51t-60 19q-44 0 -96 -15q-22 -6 -30 -6q-27 0 -27 33q0 22 21 33q59 26 132 26q75 0 117 -37t42 -102q0 -79 -94 -162l-116 -102h190q37 0 37 -36zM814 666
q0 -12 -9 -26l-383 -619q-13 -21 -33 -21q-16 0 -27.5 10t-11.5 24q0 12 9 26l383 619q13 21 33 21q16 0 27.5 -10t11.5 -24zM1026 237q59 -35 59 -108q0 -66 -45 -102.5t-125 -36.5q-69 0 -126 23q-25 11 -25 35q0 32 27 32q9 0 26 -5q55 -16 99 -16q42 0 67.5 19.5
t25.5 52.5q0 70 -85 70h-55q-38 0 -38 34q0 36 38 36h48q39 0 61.5 16t22.5 47q0 32 -23 51t-61 19q-40 0 -94 -16q-17 -5 -27 -5q-28 0 -28 32q0 23 25 35q57 23 123 23q76 0 118.5 -36.5t42.5 -100.5q0 -63 -51 -99z" />
    <glyph glyph-name="uni2155" unicode="&#x2155;" horiz-adv-x="1036" 
d="M250 273q0 -16 -10.5 -26t-27.5 -10q-38 0 -38 36v320l-88 -70q-10 -9 -23 -9q-15 0 -26 11t-11 26q0 19 17 30l139 109q14 10 30 10q17 0 27.5 -10t10.5 -26v-391zM700 666q0 -12 -9 -26l-383 -619q-13 -21 -33 -21q-16 0 -27.5 10t-11.5 24q0 12 9 26l383 619
q13 21 33 21q16 0 27.5 -10t11.5 -24zM805 278q169 0 169 -142q0 -67 -46.5 -106.5t-125.5 -39.5q-66 0 -125 22q-27 11 -27 36q0 32 27 32q9 0 26 -5q55 -16 100 -16q42 0 68.5 21.5t26.5 55.5q0 76 -95 76h-98q-39 0 -36 37l18 178q5 36 39 36h191q37 0 37 -34
q0 -36 -37 -36h-161l-12 -115h61z" />
    <glyph glyph-name="uni2156" unicode="&#x2156;" horiz-adv-x="1150" 
d="M400 271q0 -35 -37 -35h-263q-18 0 -28 9.5t-10 25.5v7q0 24 20 43l162 146q63 56 63 102q0 32 -23 51t-60 19q-44 0 -96 -15q-22 -6 -30 -6q-27 0 -27 33q0 22 21 33q59 26 132 26q75 0 117 -37t42 -102q0 -79 -94 -162l-116 -102h190q37 0 37 -36zM814 666
q0 -12 -9 -26l-383 -619q-13 -21 -33 -21q-16 0 -27.5 10t-11.5 24q0 12 9 26l383 619q13 21 33 21q16 0 27.5 -10t11.5 -24zM919 278q169 0 169 -142q0 -67 -46.5 -106.5t-125.5 -39.5q-66 0 -125 22q-27 11 -27 36q0 32 27 32q9 0 26 -5q55 -16 100 -16q42 0 68.5 21.5
t26.5 55.5q0 76 -95 76h-98q-39 0 -36 37l18 178q5 36 39 36h191q37 0 37 -34q0 -36 -37 -36h-161l-12 -115h61z" />
    <glyph glyph-name="uni2157" unicode="&#x2157;" horiz-adv-x="1133" 
d="M383 366q0 -66 -45 -102.5t-125 -36.5q-69 0 -126 23q-25 11 -25 35q0 32 27 32q9 0 26 -5q55 -16 99 -16q42 0 67.5 19.5t25.5 52.5q0 70 -85 70h-55q-38 0 -38 34q0 36 38 36h48q39 0 61.5 16t22.5 47q0 32 -23 51t-61 19q-40 0 -94 -16q-18 -5 -27 -5q-28 0 -28 32
q0 23 25 35q58 23 123 23q76 0 118.5 -36.5t42.5 -100.5q0 -63 -51 -99q59 -35 59 -108zM797 666q0 -12 -9 -26l-383 -619q-13 -21 -33 -21q-16 0 -27.5 10t-11.5 24q0 12 9 26l383 619q13 21 33 21q16 0 27.5 -10t11.5 -24zM902 278q169 0 169 -142q0 -67 -46.5 -106.5
t-125.5 -39.5q-66 0 -125 22q-27 11 -27 36q0 32 27 32q8 0 26 -5q55 -16 100 -16q42 0 68.5 21.5t26.5 55.5q0 76 -95 76h-98q-39 0 -36 37l18 178q5 36 39 36h191q37 0 37 -34q0 -36 -37 -36h-161l-12 -115h61z" />
    <glyph glyph-name="uni2158" unicode="&#x2158;" horiz-adv-x="1153" 
d="M383 339h-48v-66q0 -36 -38 -36q-17 0 -27.5 10t-10.5 26v66h-195q-38 0 -38 35v14q0 16 16 36l189 249q20 27 45 27h21q38 0 38 -36v-256h48q38 0 38 -35q0 -34 -38 -34zM817 666q0 -12 -9 -26l-383 -619q-13 -21 -33 -21q-16 0 -27.5 10t-11.5 24q0 12 9 26l383 619
q13 21 33 21q16 0 27.5 -10t11.5 -24zM103 408h156v204zM922 278q169 0 169 -142q0 -67 -46.5 -106.5t-125.5 -39.5q-66 0 -125 22q-27 11 -27 36q0 32 27 32q8 0 26 -5q55 -16 100 -16q42 0 68.5 21.5t26.5 55.5q0 76 -95 76h-98q-39 0 -36 37l18 178q5 36 39 36h191
q37 0 37 -34q0 -36 -37 -36h-161l-12 -115h61z" />
    <glyph glyph-name="uni2159" unicode="&#x2159;" horiz-adv-x="1005" 
d="M250 273q0 -16 -10.5 -26t-27.5 -10q-38 0 -38 36v320l-88 -70q-10 -9 -23 -9q-15 0 -26 11t-11 26q0 19 17 30l139 109q14 10 30 10q17 0 27.5 -10t10.5 -26v-391zM700 666q0 -12 -9 -26l-383 -619q-13 -21 -33 -21q-16 0 -27.5 10t-11.5 24q0 12 9 26l383 619
q13 21 33 21q16 0 27.5 -10t11.5 -24zM764 310q81 0 130 -44t49 -116q0 -70 -48.5 -115t-126.5 -45q-77 0 -125.5 45t-48.5 116q0 59 31.5 118.5t127.5 173.5q14 20 31 20q15 0 26 -9.5t11 -24.5q0 -12 -9 -24q-54 -64 -77 -97q18 2 29 2zM768 57q46 0 74 25.5t28 67.5
t-28 67.5t-74 25.5t-73.5 -25.5t-27.5 -67.5q0 -41 27.5 -67t73.5 -26z" />
    <glyph glyph-name="uni215A" unicode="&#x215a;" horiz-adv-x="1105" 
d="M386 373q0 -67 -46.5 -106.5t-125.5 -39.5q-66 0 -125 22q-27 11 -27 36q0 32 27 32q9 0 26 -5q55 -16 100 -16q42 0 68.5 21.5t26.5 55.5q0 76 -95 76h-98q-39 0 -36 37l18 178q5 36 39 36h191q37 0 37 -34q0 -36 -37 -36h-161l-12 -115h61q169 0 169 -142zM800 666
q0 -12 -9 -26l-383 -619q-13 -21 -33 -21q-16 0 -27.5 10t-11.5 24q0 12 9 26l383 619q13 21 33 21q16 0 27.5 -10t11.5 -24zM864 310q81 0 130 -44t49 -116q0 -70 -48.5 -115t-126.5 -45q-77 0 -125.5 45t-48.5 116q0 59 31.5 118.5t127.5 173.5q14 20 31 20q15 0 26 -9.5
t11 -24.5q0 -12 -9 -24q-54 -64 -77 -97q18 2 29 2zM868 57q46 0 74 25.5t28 67.5t-28 67.5t-74 25.5t-73.5 -25.5t-27.5 -67.5q0 -41 27.5 -67t73.5 -26z" />
    <glyph glyph-name="oneeighth" unicode="&#x215b;" horiz-adv-x="1056" 
d="M250 273q0 -16 -10.5 -26t-27.5 -10q-38 0 -38 36v320l-88 -70q-10 -9 -23 -9q-15 0 -26 11t-11 26q0 19 17 30l139 109q14 10 30 10q17 0 27.5 -10t10.5 -26v-391zM700 666q0 -12 -9 -26l-383 -619q-13 -21 -33 -21q-16 0 -27.5 10t-11.5 24q0 12 9 26l383 619
q13 21 33 21q16 0 27.5 -10t11.5 -24zM920 241q34 -15 54 -45.5t20 -69.5q0 -62 -47 -99t-125 -37q-79 0 -125.5 37t-46.5 99q0 39 19.5 69.5t53.5 45.5q-60 34 -60 101q0 59 43.5 95t115.5 36q71 0 115 -36t44 -95q0 -67 -61 -101zM822 410q-40 0 -64.5 -20t-24.5 -52
t24 -50.5t65 -18.5t65 18.5t24 50.5t-24.5 52t-64.5 20zM822 53q45 0 72 20.5t27 55.5q0 78 -99 78t-99 -78q0 -35 26.5 -55.5t72.5 -20.5z" />
    <glyph glyph-name="threeeighths" unicode="&#x215c;" horiz-adv-x="1153" 
d="M383 366q0 -66 -45 -102.5t-125 -36.5q-69 0 -126 23q-25 11 -25 35q0 32 27 32q9 0 26 -5q55 -16 99 -16q42 0 67.5 19.5t25.5 52.5q0 70 -85 70h-55q-38 0 -38 34q0 36 38 36h48q39 0 61.5 16t22.5 47q0 32 -23 51t-61 19q-40 0 -94 -16q-18 -5 -27 -5q-28 0 -28 32
q0 23 25 35q58 23 123 23q76 0 118.5 -36.5t42.5 -100.5q0 -63 -51 -99q59 -35 59 -108zM797 666q0 -12 -9 -26l-383 -619q-13 -21 -33 -21q-16 0 -27.5 10t-11.5 24q0 12 9 26l383 619q13 21 33 21q16 0 27.5 -10t11.5 -24zM1017 241q34 -15 54 -45.5t20 -69.5
q0 -62 -47 -99t-125 -37q-79 0 -125.5 37t-46.5 99q0 39 19.5 69.5t53.5 45.5q-60 34 -60 101q0 59 43.5 95t115.5 36q71 0 115 -36t44 -95q0 -67 -61 -101zM919 410q-40 0 -64.5 -20t-24.5 -52t24 -50.5t65 -18.5t65 18.5t24 50.5t-24.5 52t-64.5 20zM919 53q45 0 72 20.5
t27 55.5q0 78 -99 78t-99 -78q0 -35 26.5 -55.5t72.5 -20.5z" />
    <glyph glyph-name="fiveeighths" unicode="&#x215d;" horiz-adv-x="1156" 
d="M386 373q0 -67 -46.5 -106.5t-125.5 -39.5q-66 0 -125 22q-27 11 -27 36q0 32 27 32q9 0 26 -5q55 -16 100 -16q42 0 68.5 21.5t26.5 55.5q0 76 -95 76h-98q-39 0 -36 37l18 178q5 36 39 36h191q37 0 37 -34q0 -36 -37 -36h-161l-12 -115h61q169 0 169 -142zM800 666
q0 -12 -9 -26l-383 -619q-13 -21 -33 -21q-16 0 -27.5 10t-11.5 24q0 12 9 26l383 619q13 21 33 21q16 0 27.5 -10t11.5 -24zM1020 241q34 -15 54 -45.5t20 -69.5q0 -62 -47 -99t-125 -37q-79 0 -125.5 37t-46.5 99q0 39 19.5 69.5t53.5 45.5q-60 34 -60 101q0 59 43.5 95
t115.5 36q71 0 115 -36t44 -95q0 -67 -61 -101zM922 410q-40 0 -64.5 -20t-24.5 -52t24 -50.5t65 -18.5t65 18.5t24 50.5t-24.5 52t-64.5 20zM922 53q45 0 72 20.5t27 55.5q0 78 -99 78t-99 -78q0 -35 26.5 -55.5t72.5 -20.5z" />
    <glyph glyph-name="seveneighths" unicode="&#x215e;" horiz-adv-x="1040" 
d="M368 665q0 -9 -7 -26l-187 -382q-9 -20 -29 -20q-17 0 -29 10t-12 25q0 13 4 18l166 339h-210q-38 0 -38 36q0 35 38 35h267q37 0 37 -35zM684 666q0 -12 -9 -26l-383 -619q-13 -21 -33 -21q-16 0 -27.5 10t-11.5 24q0 12 9 26l383 619q13 21 33 21q16 0 27.5 -10
t11.5 -24zM904 241q34 -15 54 -45.5t20 -69.5q0 -62 -47 -99t-125 -37q-79 0 -125.5 37t-46.5 99q0 39 19.5 69.5t53.5 45.5q-60 34 -60 101q0 59 43.5 95t115.5 36q71 0 115 -36t44 -95q0 -67 -61 -101zM806 410q-40 0 -64.5 -20t-24.5 -52t24 -50.5t65 -18.5t65 18.5
t24 50.5t-24.5 52t-64.5 20zM806 53q45 0 72 20.5t27 55.5q0 78 -99 78t-99 -78q0 -35 26.5 -55.5t72.5 -20.5z" />
    <glyph glyph-name="partialdiff" unicode="&#x2202;" horiz-adv-x="603" 
d="M367 678q173 -192 173 -400q0 -131 -66.5 -209.5t-184.5 -78.5q-97 0 -161.5 61t-64.5 163q0 110 65 170t161 60q81 0 150 -31q-36 109 -139 224q-11 14 -11 28q0 13 12.5 24t28.5 11q19 0 37 -22zM291 63q84 0 126.5 58t42.5 157q0 28 -3 55q-72 37 -161 37
q-66 0 -110 -39.5t-44 -116.5q0 -69 43 -110t106 -41z" />
    <glyph glyph-name="uni2206" unicode="&#x2206;" horiz-adv-x="660" 
d="M630 57q4 -8 4 -21q0 -15 -12 -25.5t-31 -10.5h-522q-19 0 -31 10.5t-12 25.5q0 13 4 21l245 600q17 43 55 43q39 0 55 -43zM330 586l-205 -510h410z" />
    <glyph glyph-name="product" unicode="&#x220f;" horiz-adv-x="699" 
d="M635 700q38 0 38 -38t-38 -38h-58v-786q0 -18 -11 -28t-30 -10q-40 0 -40 38v786h-293v-786q0 -38 -40 -38q-41 0 -41 38v786h-58q-38 0 -38 38t38 38h571z" />
    <glyph glyph-name="summation" unicode="&#x2211;" horiz-adv-x="545" 
d="M481 -124q38 0 38 -38t-38 -38h-416q-39 0 -39 39q0 16 14 35l260 376l-260 376q-14 19 -14 35q0 39 39 39h416q38 0 38 -38t-38 -38h-341l239 -348q9 -12 9 -26q0 -12 -9 -26l-239 -348h341z" />
    <glyph glyph-name="minus" unicode="&#x2212;" horiz-adv-x="593" 
d="M461 325q38 0 38 -38t-38 -38h-329q-38 0 -38 38t38 38h329z" />
    <glyph glyph-name="uni2215" unicode="&#x2215;" horiz-adv-x="569" 
d="M136 -106q-17 0 -29.5 9.5t-12.5 26.5q0 8 4 22l294 736q11 27 37 27q17 0 29.5 -9.5t12.5 -26.5q0 -8 -4 -22l-294 -736q-11 -27 -37 -27z" />
    <glyph glyph-name="uni2219" unicode="&#x2219;" horiz-adv-x="379" 
d="M189 236q-45 0 -70 23.5t-25 66.5t25 67t70 24q46 0 71 -24t25 -67t-25 -66.5t-71 -23.5z" />
    <glyph glyph-name="radical" unicode="&#x221a;" horiz-adv-x="859" 
d="M799 700q39 0 39 -37t-39 -37h-123l-377 -802q-11 -24 -37 -24t-37 24l-199 422q-5 13 -5 21q0 16 13 26.5t28 10.5q24 0 34 -24l166 -353l352 749q10 24 34 24h151z" />
    <glyph glyph-name="infinity" unicode="&#x221e;" horiz-adv-x="919" 
d="M650 452q79 0 127 -46t48 -122t-48 -122t-127 -46q-61 0 -104.5 28t-85.5 79q-42 -51 -85.5 -79t-105.5 -28q-79 0 -127 46t-48 122t48 122t127 46q62 0 106 -28t85 -79q41 51 84.5 79t105.5 28zM269 191q43 0 75.5 24t67.5 69q-35 45 -67.5 69.5t-75.5 24.5t-69.5 -26
t-26.5 -68t26.5 -67.5t69.5 -25.5zM650 191q43 0 69.5 25.5t26.5 67.5t-26.5 68t-69.5 26q-44 0 -76 -24t-68 -70q37 -46 69 -69.5t75 -23.5z" />
    <glyph glyph-name="integral" unicode="&#x222b;" horiz-adv-x="522" 
d="M450 700q46 0 46 -39t-39 -39h-15q-51 0 -79 -27t-35 -94l-54 -515q-10 -94 -56 -140t-122 -46h-24q-46 0 -46 39t39 39h15q51 0 79 27t35 94l55 515q10 94 55.5 140t121.5 46h24z" />
    <glyph glyph-name="approxequal" unicode="&#x2248;" horiz-adv-x="591" 
d="M136 298q-42 0 -42 41v1q0 49 29 77.5t79 28.5q37 0 72.5 -19t63 -38t43.5 -19q40 0 40 46v1q0 13 9.5 21.5t24.5 8.5q42 0 42 -41v-1q0 -49 -29.5 -78t-79.5 -29q-29 0 -57.5 12t-47.5 26.5t-39 26.5t-34 12q-40 0 -40 -46v-1q0 -13 -9.5 -21.5t-24.5 -8.5zM136 111
q-42 0 -42 41v1q0 49 29 77.5t79 28.5q37 0 72.5 -19t63 -38t43.5 -19q40 0 40 46v1q0 13 9.5 21.5t24.5 8.5q42 0 42 -41v-1q0 -49 -29.5 -78t-79.5 -29q-37 0 -72.5 19.5t-62.5 38.5t-43 19q-40 0 -40 -47v-1q0 -13 -9.5 -21t-24.5 -8z" />
    <glyph glyph-name="notequal" unicode="&#x2260;" horiz-adv-x="593" 
d="M461 225q38 0 38 -38t-38 -38h-175l-41 -100q-10 -25 -37 -25q-17 0 -28.5 10t-11.5 27q0 13 3 20l28 68h-67q-38 0 -38 38t38 38h98l46 113h-144q-38 0 -38 38t38 38h175l41 100q10 25 37 25q18 0 29.5 -10t11.5 -27q0 -10 -4 -20l-28 -68h67q38 0 38 -38t-38 -38h-98
l-46 -113h144z" />
    <glyph glyph-name="lessequal" unicode="&#x2264;" horiz-adv-x="594" 
d="M465 289q35 -6 35 -32q0 -15 -9 -24t-25 -9q-10 0 -32 5l-291 82q-49 10 -49 51t49 51l291 82q22 5 32 5q16 0 25 -9t9 -24q0 -26 -35 -31l-291 -73zM466 165q33 0 33 -33t-33 -33h-339q-33 0 -33 33t33 33h339z" />
    <glyph glyph-name="greaterequal" unicode="&#x2265;" horiz-adv-x="594" 
d="M94 257q0 26 35 32l291 74l-291 73q-35 5 -35 31q0 15 9 24t25 9q10 0 32 -5l291 -82q49 -10 49 -51t-49 -51l-291 -82q-22 -5 -32 -5q-16 0 -25 9t-9 24zM467 165q33 0 33 -33t-33 -33h-339q-33 0 -33 33t33 33h339z" />
    <glyph glyph-name="lozenge" unicode="&#x25ca;" horiz-adv-x="490" 
d="M456 375q8 -11 8 -25t-8 -25l-173 -305q-13 -20 -38 -20t-38 20l-173 305q-8 11 -8 25t8 25l173 305q13 20 38 20t38 -20zM245 112l134 238l-134 238l-134 -238z" />
    <glyph glyph-name="Iacute_J.loclNLD" horiz-adv-x="729" 
d="M214 914q16 0 27.5 -12.5t11.5 -28.5q0 -21 -24 -34l-142 -74q-14 -7 -25 -7q-16 0 -27.5 13t-11.5 28q0 21 24 34l143 74q14 7 24 7zM427 758q-16 0 -27.5 13t-11.5 28q0 21 24 34l143 74q14 7 24 7q16 0 27.5 -12.5t11.5 -28.5q0 -21 -24 -34l-142 -74q-14 -7 -25 -7z
M135 700q40 0 40 -38v-624q0 -38 -40 -38q-41 0 -41 38v624q0 38 41 38zM595 700q40 0 40 -38v-473q0 -199 -195 -199q-65 0 -122 30q-23 14 -23 35q0 33 33 33q12 0 26 -6q39 -16 81 -16q119 0 119 120v438h-157q-38 0 -38 38t38 38h198z" />
    <glyph glyph-name="iacute_j.loclNLD" horiz-adv-x="501" 
d="M52 590q-16 0 -27.5 13t-11.5 28q0 21 24 34l143 74q14 7 24 7q16 0 27.5 -12.5t11.5 -28.5q0 -21 -24 -34l-142 -74q-14 -7 -25 -7zM304 590q-16 0 -27.5 13t-11.5 28q0 21 24 34l143 74q14 7 24 7q16 0 27.5 -12.5t11.5 -28.5q0 -21 -24 -34l-142 -74q-14 -7 -25 -7z
M126 0q-19 0 -29.5 10.5t-10.5 28.5v426q0 18 10.5 28.5t29.5 10.5q18 0 28.5 -10.5t10.5 -28.5v-426q0 -18 -10.5 -28.5t-28.5 -10.5zM278 -210q-50 0 -86 17q-26 14 -26 37q0 15 8.5 24t22.5 9q6 0 23 -5q26 -8 49 -8q72 0 72 87v514q0 18 10.5 28.5t28.5 10.5
q19 0 29.5 -10.5t10.5 -28.5v-527q0 -68 -38 -108t-104 -40z" />
    <glyph glyph-name="zero.subs" horiz-adv-x="532" 
d="M266 -110q-95 0 -149.5 64.5t-54.5 177.5t54.5 177t149.5 64t149.5 -64t54.5 -177t-54.5 -177.5t-149.5 -64.5zM266 -39q61 0 94.5 44.5t33.5 126.5q0 81 -33.5 125.5t-94.5 44.5t-94.5 -44.5t-33.5 -125.5q0 -82 33.5 -126.5t94.5 -44.5z" />
    <glyph glyph-name="one.subs" horiz-adv-x="312" 
d="M212 363q17 0 27.5 -10t10.5 -26v-391q0 -16 -10.5 -26t-27.5 -10q-38 0 -38 36v320l-88 -70q-10 -9 -23 -9q-15 0 -26 11t-11 26q0 19 17 30l139 109q14 10 30 10z" />
    <glyph glyph-name="two.subs" horiz-adv-x="462" 
d="M363 -29q37 0 37 -36q0 -35 -37 -35h-263q-18 0 -28 9.5t-10 25.5v7q0 24 20 43l162 146q63 56 63 102q0 32 -23 51t-60 19q-44 0 -96 -15q-23 -6 -30 -6q-27 0 -27 33q0 22 21 33q58 26 132 26q75 0 117 -37t42 -102q0 -79 -94 -162l-116 -102h190z" />
    <glyph glyph-name="three.subs" horiz-adv-x="445" 
d="M324 137q59 -35 59 -108q0 -66 -45 -102.5t-125 -36.5q-69 0 -126 23q-25 11 -25 35q0 32 27 32q9 0 26 -5q55 -16 99 -16q42 0 67.5 19.5t25.5 52.5q0 70 -85 70h-55q-38 0 -38 34q0 36 38 36h48q39 0 61.5 16t22.5 47q0 32 -23 51t-61 19q-40 0 -94 -16q-18 -5 -27 -5
q-28 0 -28 32q0 23 25 35q57 23 123 23q76 0 118.5 -36.5t42.5 -100.5q0 -63 -51 -99z" />
    <glyph glyph-name="four.subs" horiz-adv-x="447" 
d="M383 71q38 0 38 -35q0 -34 -38 -34h-48v-66q0 -36 -38 -36q-17 0 -27.5 10t-10.5 26v66h-195q-38 0 -38 35v14q0 16 16 36l189 249q20 27 45 27h21q38 0 38 -36v-256h48zM103 71h156v204z" />
    <glyph glyph-name="five.subs" horiz-adv-x="448" 
d="M217 178q169 0 169 -142q0 -67 -46.5 -106.5t-125.5 -39.5q-66 0 -125 22q-27 11 -27 36q0 32 27 32q9 0 26 -5q55 -16 100 -16q42 0 68.5 21.5t26.5 55.5q0 76 -95 76h-98q-39 0 -36 37l18 178q5 36 39 36h191q37 0 37 -34q0 -36 -37 -36h-161l-12 -115h61z" />
    <glyph glyph-name="six.subs" horiz-adv-x="473" 
d="M232 210q81 0 130 -44t49 -116q0 -70 -48.5 -115t-126.5 -45q-77 0 -125.5 45t-48.5 116q0 59 31.5 118.5t127.5 173.5q14 20 31 20q15 0 26 -9.5t11 -24.5q0 -12 -9 -24q-54 -64 -77 -97q18 2 29 2zM236 -43q46 0 74 25.5t28 67.5t-28 67.5t-74 25.5t-73.5 -25.5
t-27.5 -67.5q0 -41 27.5 -67t73.5 -26z" />
    <glyph glyph-name="seven.subs" horiz-adv-x="394" 
d="M331 363q37 0 37 -35q0 -8 -7 -26l-187 -382q-9 -20 -29 -20q-17 0 -29 10t-12 25q0 13 4 18l166 339h-210q-38 0 -38 36q0 35 38 35h267z" />
    <glyph glyph-name="eight.subs" horiz-adv-x="468" 
d="M332 141q34 -15 54 -45.5t20 -69.5q0 -62 -47 -99t-125 -37q-79 0 -125.5 37t-46.5 99q0 39 19.5 69.5t53.5 45.5q-60 34 -60 101q0 59 43.5 95t115.5 36q71 0 115 -36t44 -95q0 -67 -61 -101zM234 310q-40 0 -64.5 -20t-24.5 -52t24 -50.5t65 -18.5t65 18.5t24 50.5
t-24.5 52t-64.5 20zM234 -47q45 0 72 20.5t27 55.5q0 78 -99 78t-99 -78q0 -35 26.5 -55.5t72.5 -20.5z" />
    <glyph glyph-name="nine.subs" horiz-adv-x="473" 
d="M236 373q78 0 126.5 -45t48.5 -116q0 -58 -31 -115.5t-128 -176.5q-14 -20 -31 -20q-16 0 -26.5 9.5t-10.5 24.5q0 13 10 24q66 85 75 97q-18 -2 -28 -2q-81 0 -130 44t-49 116q0 70 48.5 115t125.5 45zM236 120q46 0 74 25.5t28 67.5t-28 67.5t-74 25.5t-73.5 -26
t-27.5 -67t27.5 -67t73.5 -26z" />
    <glyph glyph-name="zero.dnom" horiz-adv-x="532" 
d="M266 -10q-95 0 -149.5 64.5t-54.5 177.5t54.5 177t149.5 64t149.5 -64t54.5 -177t-54.5 -177.5t-149.5 -64.5zM266 61q61 0 94.5 44.5t33.5 126.5q0 81 -33.5 125.5t-94.5 44.5t-94.5 -44.5t-33.5 -125.5q0 -82 33.5 -126.5t94.5 -44.5z" />
    <glyph glyph-name="one.dnom" horiz-adv-x="312" 
d="M212 463q17 0 27.5 -10t10.5 -26v-391q0 -16 -10.5 -26t-27.5 -10q-38 0 -38 36v320l-88 -70q-10 -9 -23 -9q-15 0 -26 11t-11 26q0 19 17 30l139 109q14 10 30 10z" />
    <glyph glyph-name="two.dnom" horiz-adv-x="462" 
d="M363 71q37 0 37 -36q0 -35 -37 -35h-263q-18 0 -28 9.5t-10 25.5v7q0 24 20 43l162 146q63 56 63 102q0 32 -23 51t-60 19q-44 0 -96 -15q-23 -6 -30 -6q-27 0 -27 33q0 22 21 33q58 26 132 26q75 0 117 -37t42 -102q0 -79 -94 -162l-116 -102h190z" />
    <glyph glyph-name="three.dnom" horiz-adv-x="445" 
d="M324 237q59 -35 59 -108q0 -66 -45 -102.5t-125 -36.5q-69 0 -126 23q-25 11 -25 35q0 32 27 32q9 0 26 -5q55 -16 99 -16q42 0 67.5 19.5t25.5 52.5q0 70 -85 70h-55q-38 0 -38 34q0 36 38 36h48q39 0 61.5 16t22.5 47q0 32 -23 51t-61 19q-40 0 -94 -16q-17 -5 -27 -5
q-28 0 -28 32q0 23 25 35q57 23 123 23q76 0 118.5 -36.5t42.5 -100.5q0 -63 -51 -99z" />
    <glyph glyph-name="four.dnom" horiz-adv-x="447" 
d="M383 171q38 0 38 -35q0 -34 -38 -34h-48v-66q0 -36 -38 -36q-17 0 -27.5 10t-10.5 26v66h-195q-38 0 -38 35v14q0 16 16 36l189 249q20 27 45 27h21q38 0 38 -36v-256h48zM103 171h156v204z" />
    <glyph glyph-name="five.dnom" horiz-adv-x="448" 
d="M217 278q169 0 169 -142q0 -67 -46.5 -106.5t-125.5 -39.5q-66 0 -125 22q-27 11 -27 36q0 32 27 32q9 0 26 -5q55 -16 100 -16q42 0 68.5 21.5t26.5 55.5q0 76 -95 76h-98q-39 0 -36 37l18 178q5 36 39 36h191q37 0 37 -34q0 -36 -37 -36h-161l-12 -115h61z" />
    <glyph glyph-name="six.dnom" horiz-adv-x="473" 
d="M232 310q81 0 130 -44t49 -116q0 -70 -48.5 -115t-126.5 -45q-77 0 -125.5 45t-48.5 116q0 59 31.5 118.5t127.5 173.5q14 20 31 20q15 0 26 -9.5t11 -24.5q0 -12 -9 -24q-54 -64 -77 -97q18 2 29 2zM236 57q46 0 74 25.5t28 67.5t-28 67.5t-74 25.5t-73.5 -25.5
t-27.5 -67.5q0 -41 27.5 -67t73.5 -26z" />
    <glyph glyph-name="seven.dnom" horiz-adv-x="394" 
d="M331 463q37 0 37 -35q0 -8 -7 -26l-187 -382q-9 -20 -29 -20q-17 0 -29 10t-12 25q0 13 4 18l166 339h-210q-38 0 -38 36q0 35 38 35h267z" />
    <glyph glyph-name="eight.dnom" horiz-adv-x="468" 
d="M332 241q34 -15 54 -45.5t20 -69.5q0 -62 -47 -99t-125 -37q-79 0 -125.5 37t-46.5 99q0 39 19.5 69.5t53.5 45.5q-60 34 -60 101q0 59 43.5 95t115.5 36q71 0 115 -36t44 -95q0 -67 -61 -101zM234 410q-40 0 -64.5 -20t-24.5 -52t24 -50.5t65 -18.5t65 18.5t24 50.5
t-24.5 52t-64.5 20zM234 53q45 0 72 20.5t27 55.5q0 78 -99 78t-99 -78q0 -35 26.5 -55.5t72.5 -20.5z" />
    <glyph glyph-name="nine.dnom" horiz-adv-x="473" 
d="M236 473q78 0 126.5 -45t48.5 -116q0 -58 -31 -115.5t-128 -176.5q-14 -20 -31 -20q-16 0 -26.5 9.5t-10.5 24.5q0 13 10 24q66 86 75 97q-18 -2 -28 -2q-81 0 -130 44t-49 116q0 70 48.5 115t125.5 45zM236 220q46 0 74 25.5t28 67.5t-28 67.5t-74 25.5t-73.5 -26
t-27.5 -67t27.5 -67t73.5 -26z" />
    <glyph glyph-name="zero.numr" horiz-adv-x="532" 
d="M266 227q-95 0 -149.5 64.5t-54.5 177.5t54.5 177t149.5 64t149.5 -64t54.5 -177t-54.5 -177.5t-149.5 -64.5zM266 298q61 0 94.5 44.5t33.5 126.5q0 81 -33.5 125.5t-94.5 44.5t-94.5 -44.5t-33.5 -125.5q0 -82 33.5 -126.5t94.5 -44.5z" />
    <glyph glyph-name="one.numr" horiz-adv-x="312" 
d="M212 700q17 0 27.5 -10t10.5 -26v-391q0 -16 -10.5 -26t-27.5 -10q-38 0 -38 36v320l-88 -70q-10 -9 -23 -9q-15 0 -26 11t-11 26q0 19 17 30l139 109q14 10 30 10z" />
    <glyph glyph-name="two.numr" horiz-adv-x="462" 
d="M363 307q37 0 37 -36q0 -35 -37 -35h-263q-18 0 -28 9.5t-10 25.5v7q0 24 20 43l162 146q63 56 63 102q0 32 -23 51t-60 19q-44 0 -96 -15q-22 -6 -30 -6q-27 0 -27 33q0 22 21 33q59 26 132 26q75 0 117 -37t42 -102q0 -79 -94 -162l-116 -102h190z" />
    <glyph glyph-name="three.numr" horiz-adv-x="445" 
d="M324 474q59 -35 59 -108q0 -66 -45 -102.5t-125 -36.5q-69 0 -126 23q-25 11 -25 35q0 32 27 32q9 0 26 -5q55 -16 99 -16q42 0 67.5 19.5t25.5 52.5q0 70 -85 70h-55q-38 0 -38 34q0 36 38 36h48q39 0 61.5 16t22.5 47q0 32 -23 51t-61 19q-40 0 -94 -16q-18 -5 -27 -5
q-28 0 -28 32q0 23 25 35q58 23 123 23q76 0 118.5 -36.5t42.5 -100.5q0 -63 -51 -99z" />
    <glyph glyph-name="four.numr" horiz-adv-x="447" 
d="M383 408q38 0 38 -35q0 -34 -38 -34h-48v-66q0 -36 -38 -36q-17 0 -27.5 10t-10.5 26v66h-195q-38 0 -38 35v14q0 16 16 36l189 249q20 27 45 27h21q38 0 38 -36v-256h48zM103 408h156v204z" />
    <glyph glyph-name="five.numr" horiz-adv-x="448" 
d="M217 515q169 0 169 -142q0 -67 -46.5 -106.5t-125.5 -39.5q-66 0 -125 22q-27 11 -27 36q0 32 27 32q9 0 26 -5q55 -16 100 -16q42 0 68.5 21.5t26.5 55.5q0 76 -95 76h-98q-39 0 -36 37l18 178q5 36 39 36h191q37 0 37 -34q0 -36 -37 -36h-161l-12 -115h61z" />
    <glyph glyph-name="six.numr" horiz-adv-x="473" 
d="M232 547q81 0 130 -44t49 -116q0 -70 -48.5 -115t-126.5 -45q-77 0 -125.5 45t-48.5 116q0 59 31.5 118.5t127.5 173.5q14 20 31 20q15 0 26 -9.5t11 -24.5q0 -12 -9 -24q-54 -64 -77 -97q18 2 29 2zM236 294q46 0 74 25.5t28 67.5t-28 67.5t-74 25.5t-73.5 -25.5
t-27.5 -67.5q0 -41 27.5 -67t73.5 -26z" />
    <glyph glyph-name="seven.numr" horiz-adv-x="394" 
d="M331 700q37 0 37 -35q0 -9 -7 -26l-187 -382q-9 -20 -29 -20q-17 0 -29 10t-12 25q0 13 4 18l166 339h-210q-38 0 -38 36q0 35 38 35h267z" />
    <glyph glyph-name="eight.numr" horiz-adv-x="468" 
d="M332 478q34 -15 54 -45.5t20 -69.5q0 -62 -47 -99t-125 -37q-79 0 -125.5 37t-46.5 99q0 39 19.5 69.5t53.5 45.5q-60 34 -60 101q0 59 43.5 95t115.5 36q71 0 115 -36t44 -95q0 -67 -61 -101zM234 647q-40 0 -64.5 -20t-24.5 -52t24 -50.5t65 -18.5t65 18.5t24 50.5
t-24.5 52t-64.5 20zM234 290q45 0 72 20.5t27 55.5q0 78 -99 78t-99 -78q0 -35 26.5 -55.5t72.5 -20.5z" />
    <glyph glyph-name="nine.numr" horiz-adv-x="473" 
d="M236 710q78 0 126.5 -45t48.5 -116q0 -58 -31 -115.5t-128 -176.5q-14 -20 -31 -20q-16 0 -26.5 9.5t-10.5 24.5q0 13 10 24q66 86 75 97q-18 -2 -28 -2q-81 0 -130 44t-49 116q0 70 48.5 115t125.5 45zM236 457q46 0 74 25.5t28 67.5t-28 67.5t-74 25.5t-73.5 -26
t-27.5 -67t27.5 -67t73.5 -26z" />
    <glyph glyph-name="zero.sups" horiz-adv-x="532" 
d="M266 327q-95 0 -149.5 64.5t-54.5 177.5t54.5 177t149.5 64t149.5 -64t54.5 -177t-54.5 -177.5t-149.5 -64.5zM266 398q61 0 94.5 44.5t33.5 126.5q0 81 -33.5 125.5t-94.5 44.5t-94.5 -44.5t-33.5 -125.5q0 -82 33.5 -126.5t94.5 -44.5z" />
    <glyph glyph-name="one.sups" horiz-adv-x="312" 
d="M212 800q17 0 27.5 -10t10.5 -26v-391q0 -16 -10.5 -26t-27.5 -10q-38 0 -38 36v320l-88 -70q-10 -9 -23 -9q-15 0 -26 11t-11 26q0 19 17 30l139 109q14 10 30 10z" />
    <glyph glyph-name="two.sups" horiz-adv-x="462" 
d="M363 407q37 0 37 -36q0 -35 -37 -35h-263q-18 0 -28 9.5t-10 25.5v7q0 24 20 43l162 146q63 56 63 102q0 32 -23 51t-60 19q-44 0 -96 -15q-22 -6 -30 -6q-27 0 -27 33q0 22 21 33q59 26 132 26q75 0 117 -37t42 -102q0 -79 -94 -162l-116 -102h190z" />
    <glyph glyph-name="three.sups" horiz-adv-x="445" 
d="M324 574q59 -35 59 -108q0 -66 -45 -102.5t-125 -36.5q-69 0 -126 23q-25 11 -25 35q0 32 27 32q9 0 26 -5q55 -16 99 -16q42 0 67.5 19.5t25.5 52.5q0 70 -85 70h-55q-38 0 -38 34q0 36 38 36h48q39 0 61.5 16t22.5 47q0 32 -23 51t-61 19q-40 0 -94 -16q-18 -5 -27 -5
q-28 0 -28 32q0 23 25 35q58 23 123 23q76 0 118.5 -36.5t42.5 -100.5q0 -63 -51 -99z" />
    <glyph glyph-name="four.sups" horiz-adv-x="447" 
d="M383 508q38 0 38 -35q0 -34 -38 -34h-48v-66q0 -36 -38 -36q-17 0 -27.5 10t-10.5 26v66h-195q-38 0 -38 35v14q0 16 16 36l189 249q20 27 45 27h21q38 0 38 -36v-256h48zM103 508h156v204z" />
    <glyph glyph-name="five.sups" horiz-adv-x="448" 
d="M217 615q169 0 169 -142q0 -67 -46.5 -106.5t-125.5 -39.5q-66 0 -125 22q-27 11 -27 36q0 32 27 32q9 0 26 -5q55 -16 100 -16q42 0 68.5 21.5t26.5 55.5q0 76 -95 76h-98q-39 0 -36 37l18 178q5 36 39 36h191q37 0 37 -34q0 -36 -37 -36h-161l-12 -115h61z" />
    <glyph glyph-name="six.sups" horiz-adv-x="473" 
d="M232 647q81 0 130 -44t49 -116q0 -70 -48.5 -115t-126.5 -45q-77 0 -125.5 45t-48.5 116q0 59 31.5 118.5t127.5 173.5q14 20 31 20q15 0 26 -9.5t11 -24.5q0 -12 -9 -24q-54 -64 -77 -97q18 2 29 2zM236 394q46 0 74 25.5t28 67.5t-28 67.5t-74 25.5t-73.5 -25.5
t-27.5 -67.5q0 -41 27.5 -67t73.5 -26z" />
    <glyph glyph-name="seven.sups" horiz-adv-x="394" 
d="M331 800q37 0 37 -35q0 -9 -7 -26l-187 -382q-9 -20 -29 -20q-17 0 -29 10t-12 25q0 13 4 18l166 339h-210q-38 0 -38 36q0 35 38 35h267z" />
    <glyph glyph-name="eight.sups" horiz-adv-x="468" 
d="M332 578q34 -15 54 -45.5t20 -69.5q0 -62 -47 -99t-125 -37q-79 0 -125.5 37t-46.5 99q0 39 19.5 69.5t53.5 45.5q-60 34 -60 101q0 59 43.5 95t115.5 36q71 0 115 -36t44 -95q0 -67 -61 -101zM234 747q-40 0 -64.5 -20t-24.5 -52t24 -50.5t65 -18.5t65 18.5t24 50.5
t-24.5 52t-64.5 20zM234 390q45 0 72 20.5t27 55.5q0 78 -99 78t-99 -78q0 -35 26.5 -55.5t72.5 -20.5z" />
    <glyph glyph-name="nine.sups" horiz-adv-x="473" 
d="M236 810q78 0 126.5 -45t48.5 -116q0 -58 -31 -115.5t-128 -176.5q-14 -20 -31 -20q-16 0 -26.5 9.5t-10.5 24.5q0 13 10 24q66 86 75 97q-18 -2 -28 -2q-81 0 -130 44t-49 116q0 70 48.5 115t125.5 45zM236 557q46 0 74 25.5t28 67.5t-28 67.5t-74 25.5t-73.5 -26
t-27.5 -67t27.5 -67t73.5 -26z" />
    <glyph glyph-name="ampersand.ss01" horiz-adv-x="657" 
d="M615 69q16 -13 16 -29q0 -17 -12 -28.5t-29 -11.5q-18 0 -45 24l-67 66q-61 -58 -114 -79t-113 -21q-92 0 -148 50.5t-56 127.5q0 59 31 103.5t115 97.5q-52 56 -72.5 95.5t-20.5 82.5q0 74 53 118.5t141 44.5q82 0 134 -44t52 -114q0 -51 -38 -96.5t-125 -97.5l159 -155
q30 35 66 89q22 28 42 28q17 0 29 -11t12 -27t-12 -29q-44 -62 -80 -104zM294 634q-53 0 -83 -23t-30 -64q0 -29 17.5 -58t65.5 -78q77 44 106 74.5t29 63.5q0 37 -29.5 61t-75.5 24zM253 66q87 0 169 78l-176 172q-70 -45 -94 -76t-24 -69q0 -45 34 -75t91 -30z" />
    <glyph glyph-name="uni030C.calt" 
 />
    <glyph glyph-name="uni0308.case" 
d="M-341 764q-53 0 -53 49t53 49t53 -48q0 -50 -53 -50zM-137 764q-53 0 -53 49t53 49t53 -48q0 -50 -53 -50z" />
    <glyph glyph-name="uni0307.case" 
d="M-147 764q-53 0 -53 49t53 49t53 -49t-53 -49z" />
    <glyph glyph-name="gravecomb.case" 
d="M-133 758q-11 0 -25 7l-142 74q-24 13 -24 34q0 16 11.5 28.5t27.5 12.5q10 0 24 -7l143 -74q24 -13 24 -34q0 -15 -11.5 -28t-27.5 -13z" />
    <glyph glyph-name="acutecomb.case" 
d="M-272 758q-16 0 -27.5 13t-11.5 28q0 21 24 34l143 74q14 7 24 7q16 0 27.5 -12.5t11.5 -28.5q0 -21 -24 -34l-142 -74q-14 -7 -25 -7z" />
    <glyph glyph-name="uni030B.case" 
d="M-304 933q16 0 27 -9.5t11 -23.5t-4 -22l-48 -107q-12 -26 -34 -26q-16 0 -27 10t-11 24q0 11 5 21l47 107q12 26 34 26zM-132 933q16 0 27 -9.5t11 -23.5q0 -7 -5 -22l-48 -107q-12 -26 -34 -26q-16 0 -27 10t-11 24q0 6 5 21l48 107q12 26 34 26z" />
    <glyph glyph-name="uni0302.case" 
d="M-122 835q22 -15 22 -34q0 -16 -11 -26.5t-27 -10.5q-11 0 -24 9l-92 63l-91 -63q-14 -9 -25 -9q-15 0 -26.5 10.5t-11.5 26.5q0 19 23 34l105 67q10 6 26 6t26 -6z" />
    <glyph glyph-name="uni030C.case" 
d="M-138 907q16 0 27 -10.5t11 -26.5q0 -19 -22 -34l-106 -67q-10 -6 -26 -6t-26 6l-105 67q-23 15 -23 34q0 16 11.5 26.5t26.5 10.5q11 0 25 -9l91 -63l92 63q13 9 24 9z" />
    <glyph glyph-name="uni0306.case" 
d="M-238 755q-67 0 -106 34t-39 92v4q0 37 40 37q35 0 35 -35v-4q0 -60 70 -60q69 0 69 60v4q0 35 36 35q39 0 39 -37v-4q0 -58 -38.5 -92t-105.5 -34z" />
    <glyph glyph-name="uni030A.case" 
d="M-198 739q-47 0 -76 26t-29 68q0 41 29 67t76 26q46 0 75 -26t29 -67q0 -42 -29 -68t-75 -26zM-198 789q21 0 34 12t13 32q0 19 -13 31t-34 12q-22 0 -35 -12t-13 -31q0 -20 13 -32t35 -12z" />
    <glyph glyph-name="tildecomb.case" 
d="M-175 758q-46 0 -87 45q-19 22 -27.5 28t-18.5 6q-25 0 -25 -29v-19q0 -29 -30 -29t-30 29v36q0 35 22.5 57.5t58.5 22.5q44 0 86 -46q20 -21 28.5 -27t18.5 -6q11 0 18 8t7 21v19q0 28 30 28t30 -28v-36q0 -35 -22.5 -57.5t-58.5 -22.5z" />
    <glyph glyph-name="uni0304.case" 
d="M-338 788q-42 0 -42 39t42 39h202q42 0 42 -39t-42 -39h-202z" />
    <glyph glyph-name="uni0327.case" 
d="M-232 -38q52 0 82.5 -27.5t30.5 -73.5t-30.5 -73.5t-82.5 -27.5q-35 0 -57.5 11t-22.5 29q0 24 26 24q3 0 17 -4t31 -4q53 0 53 45q0 46 -53 46q-17 0 -31 -4.5t-17 -4.5q-26 0 -26 25q0 18 22 28.5t58 10.5z" />
    <glyph glyph-name="uni0328.case" 
d="M-174 -210q-52 0 -82.5 26t-30.5 70q0 35 21 70t71 85l48 -33q-74 -70 -74 -114q0 -45 53 -45q17 0 31 4t17 4q11 0 18.5 -7.5t7.5 -20.5q0 -17 -22.5 -28t-57.5 -11z" />
    </font>
</defs>
</svg>
